Merienda-Regular.otf.ufo
<glyph name="exclam" format="1">
  <advance width="286"/>
  <unicode hex="0021"/>
  <outline>
    <contour>
      <point x="275" y="703" type="curve" smooth="yes"/>
      <point x="275" y="773"/>
      <point x="200" y="798"/>
      <point x="168" y="798" type="curve"/>
      <point x="171" y="782" smooth="yes"/>
      <point x="171" y="765" smooth="yes"/>
      <point x="171" y="748" type="curve" smooth="yes"/>
      <point x="171" y="607" smooth="yes"/>
      <point x="121" y="489" smooth="yes"/>
      <point x="121" y="366" type="curve" smooth="yes" name="hr01"/>
      <point x="121" y="288"/>
      <point x="146" y="242"/>
      <point x="212" y="218" type="curve"/>
      <point x="206" y="232" smooth="yes"/>
      <point x="204" y="256" smooth="yes"/>
      <point x="204" y="287" type="curve" smooth="yes"/>
      <point x="204" y="468" smooth="yes"/>
      <point x="275" y="622" smooth="yes"/>
    </contour>
    <contour>
      <point x="93" y="106" type="curve"/>
      <point x="85" y="83" smooth="yes"/>
      <point x="75" y="62" smooth="yes"/>
      <point x="75" y="40" type="curve" smooth="yes"/>
      <point x="75" y="1" smooth="yes"/>
      <point x="108" y="-11" smooth="yes"/>
      <point x="136" y="-11" type="curve" smooth="yes"/>
      <point x="154" y="-11"/>
      <point x="174" y="-7"/>
      <point x="190" y="-1" type="curve"/>
      <point x="198" y="22" smooth="yes"/>
      <point x="208" y="43" smooth="yes"/>
      <point x="208" y="65" type="curve" smooth="yes"/>
      <point x="208" y="104" smooth="yes"/>
      <point x="175" y="116" smooth="yes"/>
      <point x="147" y="116" type="curve" smooth="yes"/>
      <point x="129" y="116"/>
      <point x="109" y="112"/>
    </contour>
  </outline>
</glyph>
<glyph name="numbersign" format="1">
  <advance width="772"/>
  <unicode hex="0023"/>
  <outline>
    <contour>
      <point x="166" y="-41" type="curve" name="hr00"/>
      <point x="175" y="16"/>
      <point x="199" y="91"/>
      <point x="228" y="171" type="curve"/>
      <point x="290" y="173"/>
      <point x="346" y="177"/>
      <point x="400" y="180" type="curve"/>
      <point x="378" y="120" smooth="yes"/>
      <point x="364" y="72" smooth="yes"/>
      <point x="364" y="46" type="curve" smooth="yes"/>
      <point x="364" y="-31"/>
      <point x="437" y="-41"/>
      <point x="437" y="-41" type="curve"/>
      <point x="447" y="18"/>
      <point x="472" y="98"/>
      <point x="503" y="182" type="curve"/>
      <point x="568" y="181"/>
      <point x="627" y="179"/>
      <point x="696" y="173" type="curve"/>
      <point x="696" y="180" smooth="yes"/>
      <point x="697" y="186" smooth="yes"/>
      <point x="697" y="192" type="curve" smooth="yes"/>
      <point x="697" y="246" smooth="yes"/>
      <point x="680" y="285" smooth="yes"/>
      <point x="557" y="285" type="curve" smooth="yes"/>
      <point x="543" y="285" type="line"/>
      <point x="564" y="340"/>
      <point x="586" y="394"/>
      <point x="605" y="443" type="curve"/>
      <point x="654" y="442"/>
      <point x="702" y="440"/>
      <point x="756" y="435" type="curve"/>
      <point x="756" y="442" smooth="yes"/>
      <point x="757" y="448" smooth="yes"/>
      <point x="757" y="454" type="curve" smooth="yes"/>
      <point x="757" y="504"/>
      <point x="742" y="541"/>
      <point x="642" y="546" type="curve"/>
      <point x="656" y="587" smooth="yes"/>
      <point x="664" y="620" smooth="yes"/>
      <point x="664" y="640" type="curve" smooth="yes"/>
      <point x="664" y="717"/>
      <point x="591" y="727"/>
      <point x="591" y="727" type="curve"/>
      <point x="582" y="677"/>
      <point x="563" y="614"/>
      <point x="539" y="545" type="curve"/>
      <point x="478" y="543"/>
      <point x="422" y="539"/>
      <point x="368" y="537" type="curve"/>
      <point x="383" y="582" smooth="yes"/>
      <point x="393" y="618" smooth="yes"/>
      <point x="393" y="640" type="curve" smooth="yes"/>
      <point x="393" y="717"/>
      <point x="320" y="727"/>
      <point x="320" y="727" type="curve"/>
      <point x="311" y="675"/>
      <point x="290" y="607"/>
      <point x="264" y="535" type="curve"/>
      <point x="201" y="535"/>
      <point x="143" y="538"/>
      <point x="76" y="544" type="curve"/>
      <point x="76" y="537" smooth="yes"/>
      <point x="75" y="531" smooth="yes"/>
      <point x="75" y="525" type="curve" smooth="yes"/>
      <point x="75" y="471" smooth="yes"/>
      <point x="92" y="432" smooth="yes"/>
      <point x="214" y="432" type="curve" smooth="yes"/>
      <point x="226" y="432" type="line"/>
      <point x="205" y="378"/>
      <point x="183" y="324"/>
      <point x="164" y="273" type="curve"/>
      <point x="115" y="274"/>
      <point x="68" y="277"/>
      <point x="16" y="282" type="curve"/>
      <point x="16" y="275" smooth="yes"/>
      <point x="15" y="269" smooth="yes"/>
      <point x="15" y="263" type="curve" smooth="yes"/>
      <point x="15" y="213"/>
      <point x="29" y="176"/>
      <point x="125" y="170" type="curve"/>
      <point x="106" y="115" smooth="yes"/>
      <point x="93" y="71" smooth="yes"/>
      <point x="93" y="46" type="curve" smooth="yes"/>
      <point x="93" y="-31"/>
      <point x="166" y="-41"/>
    </contour>
    <contour>
      <point x="501" y="443" type="curve"/>
      <point x="438" y="282" type="line"/>
      <point x="377" y="279"/>
      <point x="322" y="275"/>
      <point x="267" y="273" type="curve"/>
      <point x="331" y="435" type="line"/>
      <point x="391" y="438"/>
      <point x="447" y="442"/>
    </contour>
  </outline>
</glyph>
<glyph name="dollar" format="1">
  <advance width="620"/>
  <unicode hex="0024"/>
  <outline>
    <contour>
      <point x="399" y="489" type="curve"/>
      <point x="413" y="484" smooth="yes"/>
      <point x="428" y="482" smooth="yes"/>
      <point x="440" y="482" type="curve" smooth="yes"/>
      <point x="502" y="482" smooth="yes"/>
      <point x="530" y="539" smooth="yes"/>
      <point x="530" y="580" type="curve" smooth="yes"/>
      <point x="530" y="636"/>
      <point x="492" y="698"/>
      <point x="402" y="715" type="curve"/>
      <point x="408" y="747" smooth="yes"/>
      <point x="412" y="773" smooth="yes"/>
      <point x="412" y="791" type="curve" smooth="yes"/>
      <point x="412" y="849"/>
      <point x="379" y="875"/>
      <point x="358" y="875" type="curve"/>
      <point x="354" y="833"/>
      <point x="343" y="778"/>
      <point x="330" y="718" type="curve"/>
      <point x="198" y="711" smooth="yes"/>
      <point x="136" y="637" smooth="yes"/>
      <point x="136" y="534" type="curve" smooth="yes"/>
      <point x="136" y="325" smooth="yes"/>
      <point x="417" y="274" smooth="yes"/>
      <point x="417" y="146" type="curve" smooth="yes" name="hr01"/>
      <point x="417" y="79" smooth="yes"/>
      <point x="374" y="38" smooth="yes"/>
      <point x="298" y="38" type="curve" smooth="yes"/>
      <point x="219" y="38" smooth="yes"/>
      <point x="182" y="99" smooth="yes"/>
      <point x="182" y="159" type="curve" smooth="yes"/>
      <point x="182" y="187"/>
      <point x="184" y="215"/>
      <point x="201" y="241" type="curve"/>
      <point x="191" y="244" smooth="yes"/>
      <point x="180" y="245" smooth="yes"/>
      <point x="172" y="245" type="curve" smooth="yes"/>
      <point x="119" y="245" smooth="yes"/>
      <point x="76" y="197" smooth="yes"/>
      <point x="76" y="134" type="curve" smooth="yes"/>
      <point x="76" y="65"/>
      <point x="125" y="-1"/>
      <point x="227" y="-20" type="curve"/>
      <point x="219" y="-59" smooth="yes"/>
      <point x="214" y="-91" smooth="yes"/>
      <point x="214" y="-113" type="curve" smooth="yes"/>
      <point x="214" y="-190"/>
      <point x="288" y="-190"/>
      <point x="295" y="-190" type="curve"/>
      <point x="295" y="-141"/>
      <point x="302" y="-84"/>
      <point x="313" y="-24" type="curve"/>
      <point x="443" y="-14" smooth="yes"/>
      <point x="527" y="72" smooth="yes"/>
      <point x="527" y="172" type="curve" smooth="yes"/>
      <point x="527" y="353" smooth="yes"/>
      <point x="236" y="395" smooth="yes"/>
      <point x="236" y="552" type="curve" smooth="yes" name="hr02"/>
      <point x="236" y="626" smooth="yes"/>
      <point x="290" y="658" smooth="yes"/>
      <point x="345" y="658" type="curve" smooth="yes"/>
      <point x="393" y="658" smooth="yes"/>
      <point x="440" y="633" smooth="yes"/>
      <point x="440" y="583" type="curve" smooth="yes"/>
      <point x="440" y="547"/>
      <point x="430" y="510"/>
    </contour>
  </outline>
</glyph>
<glyph name="ampersand" format="1">
  <advance width="620"/>
  <unicode hex="0026"/>
  <outline>
    <contour>
      <point x="201" y="590" type="curve" smooth="yes"/>
      <point x="201" y="652" smooth="yes"/>
      <point x="245" y="715" smooth="yes"/>
      <point x="318" y="715" type="curve" smooth="yes"/>
      <point x="359" y="715" smooth="yes"/>
      <point x="400" y="690" smooth="yes"/>
      <point x="400" y="638" type="curve" smooth="yes"/>
      <point x="400" y="596"/>
      <point x="382" y="562"/>
      <point x="345" y="521" type="curve"/>
      <point x="362" y="517" smooth="yes"/>
      <point x="376" y="516" smooth="yes"/>
      <point x="387" y="516" type="curve" smooth="yes"/>
      <point x="461" y="516" smooth="yes"/>
      <point x="503" y="580" smooth="yes"/>
      <point x="503" y="637" type="curve" smooth="yes"/>
      <point x="503" y="718" smooth="yes"/>
      <point x="440" y="781" smooth="yes"/>
      <point x="313" y="781" type="curve" smooth="yes"/>
      <point x="188" y="781" smooth="yes"/>
      <point x="100" y="686" smooth="yes"/>
      <point x="100" y="587" type="curve" smooth="yes"/>
      <point x="100" y="516"/>
      <point x="146" y="434"/>
      <point x="264" y="395" type="curve"/>
      <point x="115" y="372" smooth="yes"/>
      <point x="24" y="269" smooth="yes"/>
      <point x="24" y="162" type="curve" smooth="yes" name="hr01"/>
      <point x="24" y="34" smooth="yes"/>
      <point x="116" y="-33" smooth="yes"/>
      <point x="219" y="-33" type="curve" smooth="yes"/>
      <point x="277" y="-33"/>
      <point x="353" y="-8"/>
      <point x="396" y="63" type="curve"/>
      <point x="394" y="43" smooth="yes"/>
      <point x="391" y="-11" smooth="yes"/>
      <point x="391" y="-32" type="curve" smooth="yes"/>
      <point x="391" y="-138"/>
      <point x="411" y="-199"/>
      <point x="497" y="-230" type="curve"/>
      <point x="488" y="-209" smooth="yes"/>
      <point x="473" y="-162" smooth="yes"/>
      <point x="473" y="-103" type="curve" smooth="yes"/>
      <point x="473" y="37"/>
      <point x="507" y="221"/>
      <point x="526" y="356" type="curve"/>
      <point x="592" y="356" type="line" smooth="yes"/>
      <point x="663" y="356"/>
      <point x="667" y="422"/>
      <point x="667" y="468" type="curve"/>
      <point x="591" y="436" smooth="yes"/>
      <point x="509" y="422" smooth="yes"/>
      <point x="441" y="422" type="curve" smooth="yes"/>
      <point x="289" y="422" smooth="yes"/>
      <point x="201" y="477" smooth="yes"/>
    </contour>
    <contour>
      <point x="258" y="40" type="curve" smooth="yes"/>
      <point x="186" y="40" smooth="yes"/>
      <point x="131" y="83" smooth="yes"/>
      <point x="131" y="173" type="curve" smooth="yes" name="hr03"/>
      <point x="131" y="334"/>
      <point x="317" y="356"/>
      <point x="436" y="357" type="curve"/>
      <point x="421" y="248" type="line" smooth="yes"/>
      <point x="407" y="147" smooth="yes"/>
      <point x="378" y="40" smooth="yes"/>
    </contour>
  </outline>
</glyph>
<glyph name="hyphen" format="1">
  <advance width="480"/>
  <unicode hex="002D"/>
  <outline>
    <contour>
      <point x="399" y="404" type="curve" name="hr00"/>
      <point x="371" y="376" smooth="yes"/>
      <point x="329" y="372" smooth="yes"/>
      <point x="284" y="372" type="curve" smooth="yes"/>
      <point x="253" y="372" smooth="yes"/>
      <point x="217" y="375" smooth="yes"/>
      <point x="193" y="375" type="curve" smooth="yes"/>
      <point x="126" y="375" smooth="yes"/>
      <point x="74" y="362" smooth="yes"/>
      <point x="74" y="268" type="curve" smooth="yes"/>
      <point x="74" y="256"/>
      <point x="76" y="237"/>
      <point x="78" y="229" type="curve"/>
      <point x="142" y="267" smooth="yes"/>
      <point x="196" y="271" smooth="yes"/>
      <point x="331" y="271" type="curve" smooth="yes"/>
      <point x="386" y="271" smooth="yes"/>
      <point x="405" y="316" smooth="yes"/>
      <point x="405" y="362" type="curve" smooth="yes"/>
      <point x="405" y="378"/>
      <point x="403" y="393"/>
    </contour>
  </outline>
</glyph>
<glyph name="slash" format="1">
  <advance width="413"/>
  <unicode hex="002F"/>
  <outline>
    <contour>
      <point x="364" y="868" type="curve" name="hr00"/>
      <point x="328" y="657" smooth="yes"/>
      <point x="0" y="22" smooth="yes"/>
      <point x="0" y="-86" type="curve" smooth="yes"/>
      <point x="0" y="-172"/>
      <point x="84" y="-182"/>
      <point x="84" y="-182" type="curve"/>
      <point x="117" y="58" smooth="yes"/>
      <point x="413" y="669" smooth="yes"/>
      <point x="413" y="765" type="curve" smooth="yes"/>
      <point x="413" y="835"/>
      <point x="364" y="868"/>
    </contour>
  </outline>
</glyph>
<glyph name="three" format="1">
  <advance width="550"/>
  <unicode hex="0033"/>
  <outline>
    <contour>
      <point x="184" y="332" type="line"/>
      <point x="199" y="334"/>
      <point x="213" y="336"/>
      <point x="227" y="339" type="curve"/>
      <point x="319" y="324" smooth="yes"/>
      <point x="367" y="249" smooth="yes"/>
      <point x="367" y="185" type="curve" smooth="yes"/>
      <point x="367" y="86" smooth="yes"/>
      <point x="299" y="38" smooth="yes"/>
      <point x="232" y="38" type="curve" smooth="yes"/>
      <point x="166" y="38" smooth="yes"/>
      <point x="126" y="69" smooth="yes"/>
      <point x="126" y="135" type="curve" smooth="yes"/>
      <point x="126" y="170"/>
      <point x="145" y="213"/>
      <point x="173" y="233" type="curve"/>
      <point x="158" y="238" smooth="yes"/>
      <point x="145" y="240" smooth="yes"/>
      <point x="135" y="240" type="curve" smooth="yes"/>
      <point x="59" y="240" smooth="yes"/>
      <point x="20" y="183" smooth="yes"/>
      <point x="20" y="123" type="curve" smooth="yes"/>
      <point x="20" y="48" smooth="yes"/>
      <point x="87" y="-33" smooth="yes"/>
      <point x="225" y="-33" type="curve" smooth="yes"/>
      <point x="397" y="-33" smooth="yes"/>
      <point x="480" y="84" smooth="yes"/>
      <point x="480" y="194" type="curve" smooth="yes"/>
      <point x="480" y="284"/>
      <point x="421" y="359"/>
      <point x="337" y="373" type="curve"/>
      <point x="432" y="416" smooth="yes"/>
      <point x="471" y="484" smooth="yes"/>
      <point x="471" y="549" type="curve" smooth="yes"/>
      <point x="471" y="637" smooth="yes"/>
      <point x="403" y="717" smooth="yes"/>
      <point x="290" y="717" type="curve" smooth="yes"/>
      <point x="160" y="717" smooth="yes"/>
      <point x="93" y="648" smooth="yes"/>
      <point x="93" y="563" type="curve" smooth="yes" name="hr01"/>
      <point x="93" y="514" smooth="yes"/>
      <point x="128" y="470" smooth="yes"/>
      <point x="190" y="470" type="curve" smooth="yes"/>
      <point x="198" y="470"/>
      <point x="210" y="471"/>
      <point x="224" y="475" type="curve"/>
      <point x="196" y="507" smooth="yes"/>
      <point x="189" y="536" smooth="yes"/>
      <point x="189" y="562" type="curve" smooth="yes"/>
      <point x="189" y="610" smooth="yes"/>
      <point x="224" y="645" smooth="yes"/>
      <point x="276" y="645" type="curve" smooth="yes"/>
      <point x="343" y="645" smooth="yes"/>
      <point x="371" y="602" smooth="yes"/>
      <point x="371" y="548" type="curve" smooth="yes"/>
      <point x="371" y="477"/>
      <point x="311" y="388"/>
      <point x="179" y="366" type="curve"/>
    </contour>
  </outline>
</glyph>
<glyph name="five" format="1">
  <advance width="563"/>
  <unicode hex="0035"/>
  <outline>
    <contour>
      <point x="504" y="708" type="curve" name="hr00"/>
      <point x="504" y="708" smooth="yes"/>
      <point x="385" y="693" smooth="yes"/>
      <point x="254" y="693" type="curve" smooth="yes"/>
      <point x="208" y="693"/>
      <point x="161" y="694"/>
      <point x="116" y="700" type="curve"/>
      <point x="119" y="665"/>
      <point x="132" y="648"/>
      <point x="148" y="638" type="curve"/>
      <point x="99" y="353" type="line"/>
      <point x="143" y="363" smooth="yes"/>
      <point x="174" y="366" smooth="yes"/>
      <point x="204" y="366" type="curve" smooth="yes"/>
      <point x="342" y="366" smooth="yes"/>
      <point x="394" y="275" smooth="yes"/>
      <point x="394" y="195" type="curve" smooth="yes"/>
      <point x="394" y="90" smooth="yes"/>
      <point x="327" y="38" smooth="yes"/>
      <point x="261" y="38" type="curve" smooth="yes"/>
      <point x="186" y="38" smooth="yes"/>
      <point x="156" y="82" smooth="yes"/>
      <point x="156" y="138" type="curve" smooth="yes"/>
      <point x="156" y="170"/>
      <point x="168" y="203"/>
      <point x="195" y="233" type="curve"/>
      <point x="185" y="235" smooth="yes"/>
      <point x="165" y="236" smooth="yes"/>
      <point x="156" y="236" type="curve" smooth="yes"/>
      <point x="92" y="236" smooth="yes"/>
      <point x="50" y="184" smooth="yes"/>
      <point x="50" y="119" type="curve" smooth="yes"/>
      <point x="50" y="20" smooth="yes"/>
      <point x="144" y="-33" smooth="yes"/>
      <point x="251" y="-33" type="curve" smooth="yes"/>
      <point x="413" y="-33" smooth="yes"/>
      <point x="507" y="87" smooth="yes"/>
      <point x="507" y="211" type="curve" smooth="yes"/>
      <point x="507" y="330" smooth="yes"/>
      <point x="413" y="425" smooth="yes"/>
      <point x="256" y="425" type="curve" smooth="yes"/>
      <point x="235" y="425"/>
      <point x="213" y="424"/>
      <point x="190" y="420" type="curve"/>
      <point x="221" y="619" type="line"/>
      <point x="296" y="606" smooth="yes"/>
      <point x="416" y="589" smooth="yes"/>
      <point x="461" y="589" type="curve" smooth="yes"/>
      <point x="502" y="589" smooth="yes"/>
      <point x="513" y="620" smooth="yes"/>
      <point x="513" y="654" type="curve" smooth="yes"/>
      <point x="513" y="677"/>
      <point x="508" y="700"/>
    </contour>
  </outline>
</glyph>
<glyph name="six" format="1">
  <advance width="593"/>
  <unicode hex="0036"/>
  <outline>
    <contour>
      <point x="345" y="652" type="curve" smooth="yes" name="hr00"/>
      <point x="399" y="652" smooth="yes"/>
      <point x="422" y="611" smooth="yes"/>
      <point x="422" y="572" type="curve" smooth="yes"/>
      <point x="422" y="542"/>
      <point x="411" y="513"/>
      <point x="391" y="499" type="curve"/>
      <point x="404" y="492" smooth="yes"/>
      <point x="418" y="489" smooth="yes"/>
      <point x="431" y="489" type="curve" smooth="yes"/>
      <point x="495" y="489" smooth="yes"/>
      <point x="523" y="532" smooth="yes"/>
      <point x="523" y="577" type="curve" smooth="yes"/>
      <point x="523" y="643" smooth="yes"/>
      <point x="463" y="719" smooth="yes"/>
      <point x="353" y="719" type="curve" smooth="yes"/>
      <point x="137" y="719" smooth="yes"/>
      <point x="50" y="481" smooth="yes"/>
      <point x="50" y="270" type="curve" smooth="yes"/>
      <point x="50" y="53" smooth="yes"/>
      <point x="163" y="-34" smooth="yes"/>
      <point x="277" y="-34" type="curve" smooth="yes"/>
      <point x="405" y="-34" smooth="yes"/>
      <point x="520" y="54" smooth="yes"/>
      <point x="520" y="203" type="curve" smooth="yes"/>
      <point x="520" y="314" smooth="yes"/>
      <point x="434" y="392" smooth="yes"/>
      <point x="324" y="392" type="curve" smooth="yes"/>
      <point x="257" y="392"/>
      <point x="205" y="376"/>
      <point x="160" y="354" type="curve"/>
      <point x="178" y="496" smooth="yes"/>
      <point x="238" y="652" smooth="yes"/>
    </contour>
    <contour>
      <point x="279" y="324" type="curve" smooth="yes"/>
      <point x="378" y="324" smooth="yes"/>
      <point x="411" y="258" smooth="yes"/>
      <point x="411" y="190" type="curve" smooth="yes"/>
      <point x="411" y="115" smooth="yes"/>
      <point x="365" y="37" smooth="yes"/>
      <point x="284" y="37" type="curve" smooth="yes"/>
      <point x="225" y="37" smooth="yes"/>
      <point x="155" y="60" smooth="yes"/>
      <point x="155" y="269" type="curve" smooth="yes"/>
      <point x="155" y="296" type="line"/>
      <point x="190" y="311" smooth="yes"/>
      <point x="235" y="324" smooth="yes"/>
    </contour>
  </outline>
</glyph>
<glyph name="eight" format="1">
  <advance width="577"/>
  <unicode hex="0038"/>
  <outline>
    <contour>
      <point x="50" y="138" type="curve" smooth="yes" name="hr00"/>
      <point x="50" y="51" smooth="yes"/>
      <point x="119" y="-33" smooth="yes"/>
      <point x="269" y="-33" type="curve" smooth="yes"/>
      <point x="416" y="-33" smooth="yes"/>
      <point x="510" y="46" smooth="yes"/>
      <point x="510" y="154" type="curve" smooth="yes"/>
      <point x="510" y="241"/>
      <point x="442" y="303"/>
      <point x="372" y="358" type="curve"/>
      <point x="468" y="399" smooth="yes"/>
      <point x="527" y="477" smooth="yes"/>
      <point x="527" y="573" type="curve" smooth="yes"/>
      <point x="527" y="645" smooth="yes"/>
      <point x="475" y="719" smooth="yes"/>
      <point x="345" y="719" type="curve" smooth="yes"/>
      <point x="200" y="719" smooth="yes"/>
      <point x="110" y="644" smooth="yes"/>
      <point x="110" y="530" type="curve" smooth="yes"/>
      <point x="110" y="449"/>
      <point x="163" y="389"/>
      <point x="224" y="338" type="curve"/>
      <point x="115" y="296" smooth="yes"/>
      <point x="50" y="219" smooth="yes"/>
    </contour>
    <contour>
      <point x="398" y="148" type="curve" smooth="yes"/>
      <point x="398" y="68" smooth="yes"/>
      <point x="321" y="29" smooth="yes"/>
      <point x="265" y="29" type="curve" smooth="yes"/>
      <point x="194" y="29" smooth="yes"/>
      <point x="157" y="78" smooth="yes"/>
      <point x="157" y="142" type="curve" smooth="yes"/>
      <point x="157" y="204"/>
      <point x="205" y="257"/>
      <point x="264" y="304" type="curve"/>
      <point x="333" y="250" smooth="yes"/>
      <point x="398" y="204" smooth="yes"/>
    </contour>
    <contour>
      <point x="221" y="541" type="curve" smooth="yes"/>
      <point x="221" y="612" smooth="yes"/>
      <point x="271" y="656" smooth="yes"/>
      <point x="334" y="656" type="curve" smooth="yes"/>
      <point x="405" y="656" smooth="yes"/>
      <point x="432" y="608" smooth="yes"/>
      <point x="432" y="557" type="curve" smooth="yes"/>
      <point x="432" y="496"/>
      <point x="396" y="442"/>
      <point x="330" y="391" type="curve"/>
      <point x="271" y="437" smooth="yes"/>
      <point x="221" y="483" smooth="yes"/>
    </contour>
  </outline>
</glyph>
<glyph name="less" format="1">
  <advance width="620"/>
  <unicode hex="003C"/>
  <outline>
    <contour>
      <point x="104" y="316" type="curve" name="hr00"/>
      <point x="276" y="234" smooth="yes"/>
      <point x="388" y="111" smooth="yes"/>
      <point x="478" y="111" type="curve" smooth="yes"/>
      <point x="506" y="111"/>
      <point x="523" y="135"/>
      <point x="535" y="185" type="curve"/>
      <point x="423" y="228"/>
      <point x="305" y="315"/>
      <point x="205" y="368" type="curve"/>
      <point x="305" y="421"/>
      <point x="426" y="511"/>
      <point x="535" y="551" type="curve"/>
      <point x="523" y="601" smooth="yes"/>
      <point x="506" y="625" smooth="yes"/>
      <point x="478" y="625" type="curve" smooth="yes"/>
      <point x="388" y="625"/>
      <point x="276" y="502"/>
      <point x="104" y="420" type="curve"/>
      <point x="92" y="403" smooth="yes"/>
      <point x="85" y="383" smooth="yes"/>
      <point x="85" y="365" type="curve" smooth="yes"/>
      <point x="85" y="347"/>
      <point x="92" y="329"/>
    </contour>
  </outline>
</glyph>
<glyph name="equal" format="1">
  <advance width="620"/>
  <unicode hex="003D"/>
  <outline>
    <contour>
      <point x="456" y="528" type="curve" smooth="yes" name="hr00"/>
      <point x="364" y="528" smooth="yes"/>
      <point x="294" y="517" smooth="yes"/>
      <point x="219" y="517" type="curve" smooth="yes"/>
      <point x="165" y="517"/>
      <point x="107" y="519"/>
      <point x="61" y="525" type="curve"/>
      <point x="61" y="519" smooth="yes"/>
      <point x="60" y="513" smooth="yes"/>
      <point x="60" y="507" type="curve" smooth="yes"/>
      <point x="60" y="459" smooth="yes"/>
      <point x="73" y="423" smooth="yes"/>
      <point x="164" y="423" type="curve" smooth="yes"/>
      <point x="256" y="423" smooth="yes"/>
      <point x="326" y="434" smooth="yes"/>
      <point x="401" y="434" type="curve" smooth="yes"/>
      <point x="455" y="434"/>
      <point x="513" y="432"/>
      <point x="559" y="426" type="curve"/>
      <point x="559" y="432" smooth="yes"/>
      <point x="560" y="438" smooth="yes"/>
      <point x="560" y="444" type="curve" smooth="yes"/>
      <point x="560" y="492" smooth="yes"/>
      <point x="547" y="528" smooth="yes"/>
    </contour>
    <contour>
      <point x="456" y="290" type="curve" smooth="yes"/>
      <point x="364" y="290" smooth="yes"/>
      <point x="294" y="279" smooth="yes"/>
      <point x="219" y="279" type="curve" smooth="yes"/>
      <point x="165" y="279"/>
      <point x="107" y="281"/>
      <point x="61" y="287" type="curve"/>
      <point x="61" y="281" smooth="yes"/>
      <point x="60" y="275" smooth="yes"/>
      <point x="60" y="269" type="curve" smooth="yes"/>
      <point x="60" y="221" smooth="yes"/>
      <point x="73" y="185" smooth="yes"/>
      <point x="164" y="185" type="curve" smooth="yes"/>
      <point x="256" y="185" smooth="yes"/>
      <point x="326" y="196" smooth="yes"/>
      <point x="401" y="196" type="curve" smooth="yes"/>
      <point x="455" y="196"/>
      <point x="513" y="194"/>
      <point x="559" y="188" type="curve"/>
      <point x="559" y="194" smooth="yes"/>
      <point x="560" y="200" smooth="yes"/>
      <point x="560" y="206" type="curve" smooth="yes"/>
      <point x="560" y="254" smooth="yes"/>
      <point x="547" y="290" smooth="yes"/>
    </contour>
  </outline>
</glyph>
<glyph name="question" format="1">
  <advance width="453"/>
  <unicode hex="003F"/>
  <outline>
    <contour>
      <point x="130" y="317" type="curve" smooth="yes"/>
      <point x="130" y="270"/>
      <point x="145" y="232"/>
      <point x="222" y="206" type="curve"/>
      <point x="216" y="220" smooth="yes"/>
      <point x="211" y="238" smooth="yes"/>
      <point x="211" y="268" type="curve" smooth="yes"/>
      <point x="211" y="411" smooth="yes"/>
      <point x="458" y="451" smooth="yes"/>
      <point x="458" y="616" type="curve" smooth="yes"/>
      <point x="458" y="736" smooth="yes"/>
      <point x="365" y="776" smooth="yes"/>
      <point x="273" y="776" type="curve" smooth="yes"/>
      <point x="174" y="776" smooth="yes"/>
      <point x="75" y="721" smooth="yes"/>
      <point x="75" y="632" type="curve" smooth="yes" name="hr01"/>
      <point x="75" y="584" smooth="yes"/>
      <point x="109" y="552" smooth="yes"/>
      <point x="153" y="552" type="curve" smooth="yes"/>
      <point x="164" y="552"/>
      <point x="177" y="554"/>
      <point x="190" y="560" type="curve"/>
      <point x="174" y="579" smooth="yes"/>
      <point x="165" y="603" smooth="yes"/>
      <point x="165" y="627" type="curve" smooth="yes"/>
      <point x="165" y="675" smooth="yes"/>
      <point x="195" y="721" smooth="yes"/>
      <point x="268" y="721" type="curve" smooth="yes"/>
      <point x="312" y="721" smooth="yes"/>
      <point x="358" y="692" smooth="yes"/>
      <point x="358" y="633" type="curve" smooth="yes"/>
      <point x="358" y="491" smooth="yes"/>
      <point x="130" y="443" smooth="yes"/>
    </contour>
    <contour>
      <point x="129" y="106" type="curve"/>
      <point x="121" y="83" smooth="yes"/>
      <point x="111" y="62" smooth="yes"/>
      <point x="111" y="40" type="curve" smooth="yes"/>
      <point x="111" y="1" smooth="yes"/>
      <point x="144" y="-11" smooth="yes"/>
      <point x="172" y="-11" type="curve" smooth="yes"/>
      <point x="190" y="-11"/>
      <point x="210" y="-7"/>
      <point x="226" y="-1" type="curve"/>
      <point x="234" y="22" smooth="yes"/>
      <point x="244" y="43" smooth="yes"/>
      <point x="244" y="65" type="curve" smooth="yes"/>
      <point x="244" y="104" smooth="yes"/>
      <point x="211" y="116" smooth="yes"/>
      <point x="183" y="116" type="curve" smooth="yes"/>
      <point x="165" y="116"/>
      <point x="145" y="112"/>
    </contour>
  </outline>
</glyph>
<glyph name="A" format="1">
  <advance width="645"/>
  <unicode hex="0041"/>
  <outline>
    <contour>
      <point x="473" y="64" type="curve" smooth="yes"/>
      <point x="489" y="12" smooth="yes"/>
      <point x="500" y="-16" smooth="yes"/>
      <point x="541" y="-16" type="curve" smooth="yes"/>
      <point x="561" y="-16"/>
      <point x="593" y="-4"/>
      <point x="620" y="12" type="curve"/>
      <point x="551" y="108" smooth="yes"/>
      <point x="521" y="299" smooth="yes"/>
      <point x="480" y="493" type="curve" smooth="yes"/>
      <point x="439" y="687" smooth="yes"/>
      <point x="417" y="805" smooth="yes"/>
      <point x="322" y="805" type="curve" smooth="yes"/>
      <point x="305" y="805"/>
      <point x="284" y="801"/>
      <point x="263" y="793" type="curve"/>
      <point x="272" y="782"/>
      <point x="285" y="770"/>
      <point x="298" y="750" type="curve"/>
      <point x="276" y="693" type="line" smooth="yes"/>
      <point x="210" y="522" smooth="yes"/>
      <point x="-5" y="88" smooth="yes"/>
      <point x="-5" y="44" type="curve" smooth="yes"/>
      <point x="-5" y="20"/>
      <point x="11" y="-6"/>
      <point x="76" y="-33" type="curve" name="hr01"/>
      <point x="96" y="50"/>
      <point x="126" y="141"/>
      <point x="159" y="231" type="curve"/>
      <point x="337" y="238" type="line" smooth="yes"/>
      <point x="368" y="239"/>
      <point x="406" y="245"/>
      <point x="425" y="274" type="curve"/>
      <point x="445" y="178" smooth="yes"/>
      <point x="463" y="97" smooth="yes"/>
    </contour>
    <contour>
      <point x="333" y="661" type="curve"/>
      <point x="362" y="564"/>
      <point x="393" y="427"/>
      <point x="418" y="306" type="curve"/>
      <point x="186" y="306" type="line"/>
      <point x="238" y="439"/>
      <point x="293" y="566"/>
    </contour>
  </outline>
</glyph>
<glyph name="B" format="1">
  <advance width="679"/>
  <unicode hex="0042"/>
  <outline>
    <contour>
      <point x="90" y="53" type="curve"/>
      <point x="156" y="3" smooth="yes"/>
      <point x="240" y="-24" smooth="yes"/>
      <point x="324" y="-24" type="curve" smooth="yes"/>
      <point x="467" y="-24" smooth="yes"/>
      <point x="606" y="54" smooth="yes"/>
      <point x="606" y="221" type="curve" smooth="yes"/>
      <point x="606" y="333"/>
      <point x="503" y="401"/>
      <point x="422" y="418" type="curve"/>
      <point x="540" y="457" smooth="yes"/>
      <point x="610" y="533" smooth="yes"/>
      <point x="611" y="638" type="curve" smooth="yes"/>
      <point x="611" y="743" smooth="yes"/>
      <point x="505" y="802" smooth="yes"/>
      <point x="413" y="802" type="curve" smooth="yes"/>
      <point x="369" y="802"/>
      <point x="306" y="792"/>
      <point x="246" y="759" type="curve"/>
      <point x="232" y="799"/>
      <point x="202" y="827"/>
      <point x="142" y="847" type="curve"/>
      <point x="151" y="826" smooth="yes"/>
      <point x="156" y="786" smooth="yes"/>
      <point x="156" y="735" type="curve" smooth="yes"/>
      <point x="156" y="437"/>
      <point x="105" y="179"/>
    </contour>
    <contour>
      <point x="372" y="728" type="curve" smooth="yes"/>
      <point x="462" y="728" smooth="yes"/>
      <point x="508" y="673" smooth="yes"/>
      <point x="508" y="612" type="curve" smooth="yes"/>
      <point x="508" y="537"/>
      <point x="434" y="447"/>
      <point x="283" y="428" type="curve"/>
      <point x="286" y="392" type="line"/>
      <point x="430" y="387" smooth="yes"/>
      <point x="503" y="307" smooth="yes"/>
      <point x="503" y="230" type="curve" smooth="yes"/>
      <point x="503" y="116" smooth="yes"/>
      <point x="417" y="47" smooth="yes"/>
      <point x="305" y="47" type="curve" smooth="yes"/>
      <point x="273" y="47"/>
      <point x="239" y="53"/>
      <point x="205" y="65" type="curve"/>
      <point x="205" y="204"/>
      <point x="258" y="574"/>
      <point x="258" y="702" type="curve" name="hr01"/>
      <point x="291" y="718" smooth="yes"/>
      <point x="339" y="728" smooth="yes"/>
    </contour>
  </outline>
</glyph>
<glyph name="C" format="1">
  <advance width="687"/>
  <unicode hex="0043"/>
  <outline>
    <contour>
      <point x="570" y="195" type="curve" name="hr00"/>
      <point x="516" y="105" smooth="yes"/>
      <point x="427" y="63" smooth="yes"/>
      <point x="358" y="63" type="curve" smooth="yes"/>
      <point x="253" y="63" smooth="yes"/>
      <point x="168" y="144" smooth="yes"/>
      <point x="168" y="338" type="curve" smooth="yes"/>
      <point x="168" y="529" smooth="yes"/>
      <point x="266" y="748" smooth="yes"/>
      <point x="427" y="748" type="curve" smooth="yes"/>
      <point x="499" y="748" smooth="yes"/>
      <point x="525" y="696" smooth="yes"/>
      <point x="525" y="636" type="curve" smooth="yes"/>
      <point x="525" y="581"/>
      <point x="495" y="516"/>
      <point x="467" y="486" type="curve"/>
      <point x="483" y="481" smooth="yes"/>
      <point x="498" y="478" smooth="yes"/>
      <point x="511" y="478" type="curve" smooth="yes"/>
      <point x="586" y="478" smooth="yes"/>
      <point x="637" y="540" smooth="yes"/>
      <point x="637" y="625" type="curve" smooth="yes"/>
      <point x="637" y="712" smooth="yes"/>
      <point x="581" y="806" smooth="yes"/>
      <point x="437" y="806" type="curve" smooth="yes"/>
      <point x="187" y="806" smooth="yes"/>
      <point x="60" y="584" smooth="yes"/>
      <point x="60" y="337" type="curve" smooth="yes"/>
      <point x="60" y="94" smooth="yes"/>
      <point x="186" y="-15" smooth="yes"/>
      <point x="323" y="-15" type="curve" smooth="yes"/>
      <point x="411" y="-15"/>
      <point x="534" y="21"/>
      <point x="611" y="168" type="curve"/>
      <point x="611" y="179"/>
      <point x="591" y="195"/>
    </contour>
  </outline>
</glyph>
<glyph name="D" format="1">
  <advance width="760"/>
  <unicode hex="0044"/>
  <outline>
    <contour>
      <point x="246" y="759" type="curve"/>
      <point x="232" y="799"/>
      <point x="202" y="827"/>
      <point x="142" y="847" type="curve"/>
      <point x="151" y="826" smooth="yes"/>
      <point x="156" y="786" smooth="yes"/>
      <point x="156" y="735" type="curve" smooth="yes"/>
      <point x="156" y="437"/>
      <point x="105" y="179"/>
      <point x="90" y="53" type="curve"/>
      <point x="90" y="53" smooth="yes"/>
      <point x="184" y="-15" smooth="yes"/>
      <point x="331" y="-15" type="curve" smooth="yes"/>
      <point x="592" y="-15" smooth="yes"/>
      <point x="709" y="207" smooth="yes"/>
      <point x="709" y="419" type="curve" smooth="yes"/>
      <point x="709" y="631" smooth="yes"/>
      <point x="603" y="802" smooth="yes"/>
      <point x="413" y="802" type="curve" smooth="yes"/>
      <point x="351" y="802"/>
      <point x="304" y="787"/>
    </contour>
    <contour>
      <point x="206" y="70" type="curve"/>
      <point x="206" y="208"/>
      <point x="259" y="575"/>
      <point x="259" y="702" type="curve" name="hr01"/>
      <point x="299" y="720" smooth="yes"/>
      <point x="348" y="725" smooth="yes"/>
      <point x="379" y="725" type="curve" smooth="yes"/>
      <point x="519" y="725" smooth="yes"/>
      <point x="604" y="598" smooth="yes"/>
      <point x="604" y="425" type="curve" smooth="yes"/>
      <point x="604" y="247" smooth="yes"/>
      <point x="506" y="55" smooth="yes"/>
      <point x="302" y="55" type="curve" smooth="yes"/>
      <point x="270" y="55"/>
      <point x="235" y="60"/>
    </contour>
  </outline>
</glyph>
<glyph name="E" format="1">
  <advance width="631"/>
  <unicode hex="0045"/>
  <outline>
    <contour>
      <point x="70" y="-8" type="curve" name="hr00"/>
      <point x="122" y="2" smooth="yes"/>
      <point x="173" y="5" smooth="yes"/>
      <point x="220" y="5" type="curve" smooth="yes"/>
      <point x="314" y="5" smooth="yes"/>
      <point x="392" y="-8" smooth="yes"/>
      <point x="433" y="-8" type="curve" smooth="yes"/>
      <point x="497" y="-8"/>
      <point x="544" y="36"/>
      <point x="554" y="114" type="curve"/>
      <point x="494" y="97" smooth="yes"/>
      <point x="363" y="84" smooth="yes"/>
      <point x="232" y="84" type="curve" smooth="yes"/>
      <point x="220" y="84" type="line"/>
      <point x="220" y="171"/>
      <point x="227" y="259"/>
      <point x="236" y="339" type="curve"/>
      <point x="262" y="341" smooth="yes"/>
      <point x="288" y="341" smooth="yes"/>
      <point x="311" y="341" type="curve" smooth="yes"/>
      <point x="338" y="341" smooth="yes"/>
      <point x="367" y="340" smooth="yes"/>
      <point x="400" y="340" type="curve" smooth="yes"/>
      <point x="438" y="340" smooth="yes"/>
      <point x="463" y="360" smooth="yes"/>
      <point x="463" y="419" type="curve" smooth="yes"/>
      <point x="463" y="428"/>
      <point x="462" y="437"/>
      <point x="461" y="445" type="curve"/>
      <point x="430" y="421" smooth="yes"/>
      <point x="383" y="416" smooth="yes"/>
      <point x="336" y="416" type="curve" smooth="yes"/>
      <point x="314" y="416"/>
      <point x="277" y="417"/>
      <point x="246" y="418" type="curve"/>
      <point x="261" y="530"/>
      <point x="276" y="623"/>
      <point x="277" y="681" type="curve"/>
      <point x="347" y="683" smooth="yes"/>
      <point x="426" y="688" smooth="yes"/>
      <point x="476" y="696" type="curve" smooth="yes"/>
      <point x="533" y="706"/>
      <point x="579" y="729"/>
      <point x="589" y="793" type="curve"/>
      <point x="514" y="778" smooth="yes"/>
      <point x="427" y="771" smooth="yes"/>
      <point x="341" y="771" type="curve" smooth="yes"/>
      <point x="272" y="771"/>
      <point x="200" y="776"/>
      <point x="134" y="785" type="curve"/>
      <point x="130" y="774" smooth="yes"/>
      <point x="126" y="755" smooth="yes"/>
      <point x="126" y="732" type="curve" smooth="yes"/>
      <point x="126" y="697"/>
      <point x="138" y="685"/>
      <point x="173" y="682" type="curve"/>
      <point x="171" y="597"/>
      <point x="160" y="503"/>
      <point x="148" y="414" type="curve"/>
      <point x="111" y="405" smooth="yes"/>
      <point x="86" y="385" smooth="yes"/>
      <point x="86" y="338" type="curve" smooth="yes"/>
      <point x="86" y="328"/>
      <point x="87" y="318"/>
      <point x="88" y="309" type="curve"/>
      <point x="103" y="315"/>
      <point x="120" y="320"/>
      <point x="136" y="324" type="curve"/>
      <point x="120" y="218" smooth="yes"/>
      <point x="107" y="124" smooth="yes"/>
      <point x="107" y="69" type="curve" smooth="yes"/>
      <point x="107" y="62"/>
      <point x="107" y="55"/>
      <point x="108" y="49" type="curve"/>
      <point x="82" y="28"/>
      <point x="73" y="4"/>
    </contour>
  </outline>
</glyph>
<glyph name="H" format="1">
  <advance width="791"/>
  <unicode hex="0048"/>
  <outline>
    <contour>
      <point x="285" y="684" type="curve" smooth="yes"/>
      <point x="285" y="753"/>
      <point x="279" y="796"/>
      <point x="174" y="802" type="curve"/>
      <point x="176" y="776" smooth="yes"/>
      <point x="178" y="748" smooth="yes"/>
      <point x="178" y="720" type="curve" smooth="yes"/>
      <point x="178" y="623"/>
      <point x="168" y="522"/>
      <point x="156" y="429" type="curve"/>
      <point x="116" y="423" smooth="yes"/>
      <point x="90" y="406" smooth="yes"/>
      <point x="90" y="362" type="curve" smooth="yes"/>
      <point x="90" y="353"/>
      <point x="91" y="333"/>
      <point x="92" y="324" type="curve"/>
      <point x="109" y="330"/>
      <point x="126" y="334"/>
      <point x="143" y="338" type="curve"/>
      <point x="141" y="322" type="line" smooth="yes"/>
      <point x="130" y="241" smooth="yes"/>
      <point x="120" y="173" smooth="yes"/>
      <point x="120" y="129" type="curve" smooth="yes" name="hr01"/>
      <point x="120" y="46"/>
      <point x="149" y="-1"/>
      <point x="233" y="-31" type="curve"/>
      <point x="224" y="-10" smooth="yes"/>
      <point x="219" y="29" smooth="yes"/>
      <point x="219" y="78" type="curve" smooth="yes"/>
      <point x="219" y="152"/>
      <point x="230" y="253"/>
      <point x="244" y="353" type="curve"/>
      <point x="274" y="355" smooth="yes"/>
      <point x="304" y="356" smooth="yes"/>
      <point x="335" y="356" type="curve" smooth="yes"/>
      <point x="384" y="356" smooth="yes"/>
      <point x="434" y="354" smooth="yes"/>
      <point x="480" y="354" type="curve" smooth="yes"/>
      <point x="517" y="354"/>
      <point x="562" y="367"/>
      <point x="574" y="424" type="curve"/>
      <point x="560" y="322" type="line" smooth="yes"/>
      <point x="549" y="241" smooth="yes"/>
      <point x="539" y="173" smooth="yes"/>
      <point x="539" y="129" type="curve" smooth="yes"/>
      <point x="539" y="46"/>
      <point x="568" y="-1"/>
      <point x="652" y="-31" type="curve"/>
      <point x="643" y="-10" smooth="yes"/>
      <point x="638" y="29" smooth="yes"/>
      <point x="638" y="78" type="curve" smooth="yes"/>
      <point x="638" y="180" smooth="yes"/>
      <point x="660" y="334" smooth="yes"/>
      <point x="679" y="464" type="curve" smooth="yes"/>
      <point x="693" y="560" smooth="yes"/>
      <point x="704" y="643" smooth="yes"/>
      <point x="704" y="684" type="curve" smooth="yes" name="hr02"/>
      <point x="704" y="753"/>
      <point x="698" y="796"/>
      <point x="593" y="802" type="curve"/>
      <point x="595" y="776" smooth="yes"/>
      <point x="597" y="748" smooth="yes"/>
      <point x="597" y="720" type="curve" smooth="yes"/>
      <point x="597" y="625"/>
      <point x="587" y="526"/>
      <point x="575" y="435" type="curve"/>
      <point x="433" y="432"/>
      <point x="310" y="432"/>
      <point x="255" y="432" type="curve"/>
      <point x="256" y="443" smooth="yes"/>
      <point x="258" y="453" smooth="yes"/>
      <point x="260" y="464" type="curve" smooth="yes"/>
      <point x="274" y="560" smooth="yes"/>
      <point x="285" y="643" smooth="yes"/>
    </contour>
  </outline>
</glyph>
<glyph name="I" format="1">
  <advance width="344"/>
  <unicode hex="0049"/>
  <outline>
    <contour>
      <point x="257" y="684" type="curve" smooth="yes"/>
      <point x="257" y="753"/>
      <point x="251" y="796"/>
      <point x="146" y="802" type="curve"/>
      <point x="148" y="776" smooth="yes"/>
      <point x="150" y="748" smooth="yes"/>
      <point x="150" y="720" type="curve" smooth="yes"/>
      <point x="150" y="585" smooth="yes"/>
      <point x="130" y="440" smooth="yes"/>
      <point x="113" y="322" type="curve" smooth="yes"/>
      <point x="102" y="241" smooth="yes"/>
      <point x="92" y="173" smooth="yes"/>
      <point x="92" y="129" type="curve" smooth="yes" name="hr01"/>
      <point x="92" y="46"/>
      <point x="121" y="-1"/>
      <point x="205" y="-31" type="curve"/>
      <point x="196" y="-10" smooth="yes"/>
      <point x="191" y="29" smooth="yes"/>
      <point x="191" y="78" type="curve" smooth="yes"/>
      <point x="191" y="180" smooth="yes"/>
      <point x="213" y="334" smooth="yes"/>
      <point x="232" y="464" type="curve" smooth="yes"/>
      <point x="246" y="560" smooth="yes"/>
      <point x="257" y="643" smooth="yes"/>
    </contour>
  </outline>
</glyph>
<glyph name="K" format="1">
  <advance width="671"/>
  <unicode hex="004B"/>
  <outline>
    <contour>
      <point x="257" y="684" type="curve" smooth="yes"/>
      <point x="257" y="753"/>
      <point x="251" y="796"/>
      <point x="146" y="802" type="curve"/>
      <point x="148" y="776" smooth="yes"/>
      <point x="150" y="748" smooth="yes"/>
      <point x="150" y="720" type="curve" smooth="yes"/>
      <point x="150" y="585" smooth="yes"/>
      <point x="130" y="440" smooth="yes"/>
      <point x="113" y="322" type="curve" smooth="yes"/>
      <point x="102" y="241" smooth="yes"/>
      <point x="92" y="173" smooth="yes"/>
      <point x="92" y="129" type="curve" smooth="yes" name="hr01"/>
      <point x="92" y="46"/>
      <point x="121" y="-1"/>
      <point x="205" y="-31" type="curve"/>
      <point x="196" y="-10" smooth="yes"/>
      <point x="191" y="29" smooth="yes"/>
      <point x="191" y="78" type="curve" smooth="yes"/>
      <point x="191" y="140"/>
      <point x="199" y="222"/>
      <point x="210" y="306" type="curve"/>
      <point x="294" y="365" type="line"/>
      <point x="363" y="174" smooth="yes"/>
      <point x="453" y="-33" smooth="yes"/>
      <point x="597" y="-33" type="curve" smooth="yes"/>
      <point x="613" y="-33"/>
      <point x="631" y="-28"/>
      <point x="641" y="-23" type="curve"/>
      <point x="539" y="85"/>
      <point x="469" y="181"/>
      <point x="389" y="432" type="curve"/>
      <point x="525" y="529" smooth="yes"/>
      <point x="622" y="613" smooth="yes"/>
      <point x="622" y="695" type="curve" smooth="yes"/>
      <point x="622" y="736"/>
      <point x="612" y="773"/>
      <point x="599" y="799" type="curve"/>
      <point x="552" y="688"/>
      <point x="425" y="543"/>
      <point x="219" y="374" type="curve"/>
      <point x="232" y="464" type="line" smooth="yes"/>
      <point x="246" y="560" smooth="yes"/>
      <point x="257" y="643" smooth="yes"/>
    </contour>
  </outline>
</glyph>
<glyph name="M" format="1">
  <advance width="927"/>
  <unicode hex="004D"/>
  <outline>
    <contour>
      <point x="448" y="264" type="curve" name="hr00"/>
      <point x="262" y="754" smooth="yes"/>
      <point x="244" y="803" smooth="yes"/>
      <point x="150" y="803" type="curve" smooth="yes"/>
      <point x="133" y="803"/>
      <point x="106" y="793"/>
      <point x="91" y="777" type="curve"/>
      <point x="111" y="758"/>
      <point x="132" y="732"/>
      <point x="152" y="700" type="curve"/>
      <point x="152" y="695" type="line" smooth="yes"/>
      <point x="152" y="521" smooth="yes"/>
      <point x="75" y="108" smooth="yes"/>
      <point x="75" y="58" type="curve" smooth="yes"/>
      <point x="75" y="24"/>
      <point x="102" y="-5"/>
      <point x="179" y="-5" type="curve"/>
      <point x="177" y="21" smooth="yes"/>
      <point x="175" y="50" smooth="yes"/>
      <point x="175" y="78" type="curve" smooth="yes"/>
      <point x="175" y="262"/>
      <point x="210" y="424"/>
      <point x="223" y="566" type="curve"/>
      <point x="278" y="449"/>
      <point x="329" y="308"/>
      <point x="375" y="191" type="curve"/>
      <point x="377" y="183" smooth="yes"/>
      <point x="395" y="174" smooth="yes"/>
      <point x="417" y="174" type="curve" smooth="yes"/>
      <point x="432" y="174"/>
      <point x="461" y="178"/>
      <point x="478" y="188" type="curve"/>
      <point x="559" y="319"/>
      <point x="656" y="447"/>
      <point x="725" y="581" type="curve"/>
      <point x="718" y="490" smooth="yes"/>
      <point x="706" y="400" smooth="yes"/>
      <point x="694" y="322" type="curve" smooth="yes"/>
      <point x="682" y="241" smooth="yes"/>
      <point x="673" y="173" smooth="yes"/>
      <point x="673" y="129" type="curve" smooth="yes"/>
      <point x="673" y="46"/>
      <point x="700" y="-1"/>
      <point x="790" y="-31" type="curve"/>
      <point x="781" y="-10" smooth="yes"/>
      <point x="776" y="29" smooth="yes"/>
      <point x="776" y="78" type="curve" smooth="yes"/>
      <point x="776" y="180" smooth="yes"/>
      <point x="798" y="334" smooth="yes"/>
      <point x="817" y="464" type="curve" smooth="yes"/>
      <point x="831" y="560" smooth="yes"/>
      <point x="842" y="643" smooth="yes"/>
      <point x="842" y="684" type="curve" smooth="yes"/>
      <point x="842" y="753"/>
      <point x="816" y="795"/>
      <point x="738" y="802" type="curve"/>
      <point x="708" y="627"/>
      <point x="537" y="397"/>
    </contour>
  </outline>
</glyph>
<glyph name="N" format="1">
  <advance width="821"/>
  <unicode hex="004E"/>
  <outline>
    <contour>
      <point x="524" y="38" type="curve" smooth="yes" name="hr00"/>
      <point x="546" y="3" smooth="yes"/>
      <point x="568" y="-21" smooth="yes"/>
      <point x="603" y="-21" type="curve" smooth="yes"/>
      <point x="633" y="-21"/>
      <point x="660" y="-10"/>
      <point x="698" y="19" type="curve"/>
      <point x="689" y="24"/>
      <point x="680" y="29"/>
      <point x="672" y="36" type="curve"/>
      <point x="670" y="53" smooth="yes"/>
      <point x="670" y="71" smooth="yes"/>
      <point x="670" y="90" type="curve" smooth="yes"/>
      <point x="670" y="265" smooth="yes"/>
      <point x="746" y="688" smooth="yes"/>
      <point x="746" y="740" type="curve" smooth="yes"/>
      <point x="746" y="773"/>
      <point x="720" y="801"/>
      <point x="643" y="801" type="curve"/>
      <point x="645" y="776" smooth="yes"/>
      <point x="647" y="747" smooth="yes"/>
      <point x="647" y="720" type="curve" smooth="yes"/>
      <point x="647" y="503"/>
      <point x="599" y="286"/>
      <point x="593" y="125" type="curve"/>
      <point x="531" y="216" smooth="yes"/>
      <point x="474" y="344" smooth="yes"/>
      <point x="416" y="461" type="curve" smooth="yes"/>
      <point x="341" y="612" smooth="yes"/>
      <point x="288" y="707" smooth="yes"/>
      <point x="265" y="742" type="curve" smooth="yes"/>
      <point x="235" y="787" smooth="yes"/>
      <point x="199" y="802" smooth="yes"/>
      <point x="155" y="802" type="curve" smooth="yes"/>
      <point x="132" y="802"/>
      <point x="105" y="794"/>
      <point x="75" y="773" type="curve"/>
      <point x="94" y="760"/>
      <point x="130" y="741"/>
      <point x="162" y="702" type="curve"/>
      <point x="162" y="695" type="line" smooth="yes"/>
      <point x="162" y="521" smooth="yes"/>
      <point x="85" y="108" smooth="yes"/>
      <point x="85" y="58" type="curve" smooth="yes"/>
      <point x="85" y="24"/>
      <point x="112" y="-5"/>
      <point x="189" y="-5" type="curve"/>
      <point x="187" y="21" smooth="yes"/>
      <point x="185" y="50" smooth="yes"/>
      <point x="185" y="78" type="curve" smooth="yes"/>
      <point x="185" y="274"/>
      <point x="225" y="445"/>
      <point x="235" y="593" type="curve"/>
      <point x="350" y="402" smooth="yes"/>
      <point x="485" y="100" smooth="yes"/>
    </contour>
  </outline>
</glyph>
<glyph name="O" format="1">
  <advance width="802"/>
  <unicode hex="004F"/>
  <outline>
    <contour>
      <point x="458" y="731" type="curve" smooth="yes" name="hr00"/>
      <point x="551" y="731" smooth="yes"/>
      <point x="624" y="658" smooth="yes"/>
      <point x="624" y="450" type="curve" smooth="yes"/>
      <point x="624" y="250" smooth="yes"/>
      <point x="533" y="35" smooth="yes"/>
      <point x="372" y="35" type="curve" smooth="yes"/>
      <point x="238" y="35" smooth="yes"/>
      <point x="182" y="170" smooth="yes"/>
      <point x="182" y="330" type="curve" smooth="yes"/>
      <point x="182" y="519" smooth="yes"/>
      <point x="295" y="731" smooth="yes"/>
    </contour>
    <contour>
      <point x="359" y="-25" type="curve" smooth="yes"/>
      <point x="631" y="-25" smooth="yes"/>
      <point x="737" y="244" smooth="yes"/>
      <point x="737" y="479" type="curve" smooth="yes"/>
      <point x="737" y="700" smooth="yes"/>
      <point x="625" y="804" smooth="yes"/>
      <point x="498" y="804" type="curve" smooth="yes"/>
      <point x="381" y="804"/>
      <point x="243" y="716"/>
      <point x="185" y="553" type="curve"/>
      <point x="210" y="697"/>
      <point x="282" y="762"/>
      <point x="361" y="811" type="curve"/>
      <point x="360" y="818"/>
      <point x="351" y="825"/>
      <point x="342" y="827" type="curve"/>
      <point x="180" y="776" smooth="yes"/>
      <point x="65" y="600" smooth="yes"/>
      <point x="65" y="379" type="curve" smooth="yes"/>
      <point x="65" y="191" smooth="yes"/>
      <point x="152" y="-25" smooth="yes"/>
    </contour>
  </outline>
</glyph>
<glyph name="Q" format="1">
  <advance width="787"/>
  <unicode hex="0051"/>
  <outline>
    <contour>
      <point x="651" y="-312" type="curve" smooth="yes" name="hr00"/>
      <point x="699" y="-312"/>
      <point x="745" y="-277"/>
      <point x="774" y="-210" type="curve"/>
      <point x="605" y="-201"/>
      <point x="445" y="-132"/>
      <point x="292" y="-75" type="curve"/>
      <point x="570" y="-6" smooth="yes"/>
      <point x="737" y="193" smooth="yes"/>
      <point x="737" y="464" type="curve" smooth="yes"/>
      <point x="737" y="667" smooth="yes"/>
      <point x="633" y="800" smooth="yes"/>
      <point x="473" y="800" type="curve" smooth="yes"/>
      <point x="190" y="800" smooth="yes"/>
      <point x="82" y="535" smooth="yes"/>
      <point x="82" y="346" type="curve" smooth="yes"/>
      <point x="82" y="159" smooth="yes"/>
      <point x="191" y="79" smooth="yes"/>
      <point x="294" y="79" type="curve" smooth="yes"/>
      <point x="386" y="79" smooth="yes"/>
      <point x="488" y="141" smooth="yes"/>
      <point x="488" y="279" type="curve" smooth="yes"/>
      <point x="488" y="361" smooth="yes"/>
      <point x="426" y="389" smooth="yes"/>
      <point x="385" y="389" type="curve" smooth="yes"/>
      <point x="354" y="389"/>
      <point x="329" y="377"/>
      <point x="329" y="377" type="curve"/>
      <point x="329" y="377" smooth="yes"/>
      <point x="379" y="340" smooth="yes"/>
      <point x="379" y="259" type="curve" smooth="yes"/>
      <point x="379" y="179" smooth="yes"/>
      <point x="346" y="143" smooth="yes"/>
      <point x="285" y="143" type="curve" smooth="yes"/>
      <point x="217" y="143" smooth="yes"/>
      <point x="182" y="210" smooth="yes"/>
      <point x="182" y="341" type="curve" smooth="yes"/>
      <point x="182" y="556" smooth="yes"/>
      <point x="302" y="732" smooth="yes"/>
      <point x="448" y="732" type="curve" smooth="yes"/>
      <point x="563" y="732" smooth="yes"/>
      <point x="634" y="620" smooth="yes"/>
      <point x="634" y="437" type="curve" smooth="yes"/>
      <point x="634" y="257"/>
      <point x="539" y="-7"/>
      <point x="187" y="-46" type="curve"/>
      <point x="120" y="-46"/>
      <point x="90" y="-87"/>
      <point x="78" y="-104" type="curve"/>
      <point x="140" y="-106" smooth="yes"/>
      <point x="199" y="-124" smooth="yes"/>
      <point x="257" y="-144" type="curve" smooth="yes"/>
      <point x="389" y="-188" smooth="yes"/>
      <point x="582" y="-312" smooth="yes"/>
    </contour>
  </outline>
</glyph>
<glyph name="R" format="1">
  <advance width="675"/>
  <unicode hex="0052"/>
  <outline>
    <contour>
      <point x="97" y="69" type="curve" smooth="yes"/>
      <point x="97" y="7" smooth="yes"/>
      <point x="128" y="-17" smooth="yes"/>
      <point x="186" y="-17" type="curve" smooth="yes"/>
      <point x="193" y="-17"/>
      <point x="200" y="-16"/>
      <point x="212" y="-15" type="curve"/>
      <point x="206" y="20" smooth="yes"/>
      <point x="206" y="52" smooth="yes"/>
      <point x="206" y="83" type="curve" smooth="yes"/>
      <point x="206" y="331" smooth="yes"/>
      <point x="263" y="573" smooth="yes"/>
      <point x="263" y="683" type="curve" smooth="yes" name="hr01"/>
      <point x="263" y="687"/>
      <point x="262" y="691"/>
      <point x="262" y="695" type="curve"/>
      <point x="300" y="708" smooth="yes"/>
      <point x="335" y="715" smooth="yes"/>
      <point x="365" y="715" type="curve" smooth="yes"/>
      <point x="470" y="715" smooth="yes"/>
      <point x="519" y="648" smooth="yes"/>
      <point x="519" y="570" type="curve" smooth="yes"/>
      <point x="519" y="467"/>
      <point x="463" y="347"/>
      <point x="275" y="347" type="curve"/>
      <point x="278" y="315" type="line"/>
      <point x="297" y="312" smooth="yes"/>
      <point x="314" y="311" smooth="yes"/>
      <point x="333" y="311" type="curve" smooth="yes"/>
      <point x="342" y="311" type="line"/>
      <point x="399" y="142" smooth="yes"/>
      <point x="482" y="-48" smooth="yes"/>
      <point x="605" y="-48" type="curve" smooth="yes"/>
      <point x="624" y="-48"/>
      <point x="643" y="-45"/>
      <point x="658" y="-38" type="curve"/>
      <point x="614" y="2" smooth="yes"/>
      <point x="496" y="162" smooth="yes"/>
      <point x="443" y="325" type="curve" smooth="yes"/>
      <point x="441" y="330" type="line"/>
      <point x="559" y="373" smooth="yes"/>
      <point x="621" y="486" smooth="yes"/>
      <point x="621" y="589" type="curve" smooth="yes"/>
      <point x="621" y="694" smooth="yes"/>
      <point x="554" y="788" smooth="yes"/>
      <point x="414" y="788" type="curve" smooth="yes"/>
      <point x="366" y="788"/>
      <point x="305" y="776"/>
      <point x="251" y="747" type="curve"/>
      <point x="232" y="793"/>
      <point x="192" y="821"/>
      <point x="150" y="826" type="curve"/>
      <point x="159" y="806" smooth="yes"/>
      <point x="164" y="767" smooth="yes"/>
      <point x="164" y="716" type="curve" smooth="yes"/>
      <point x="164" y="493" smooth="yes"/>
      <point x="97" y="190" smooth="yes"/>
    </contour>
  </outline>
</glyph>
<glyph name="backslash" format="1">
  <advance width="413"/>
  <unicode hex="005C"/>
  <outline>
    <contour>
      <point x="49" y="868" type="curve" name="hr00"/>
      <point x="49" y="868" smooth="yes"/>
      <point x="0" y="835" smooth="yes"/>
      <point x="0" y="765" type="curve" smooth="yes"/>
      <point x="0" y="669"/>
      <point x="296" y="58"/>
      <point x="329" y="-182" type="curve"/>
      <point x="329" y="-182" smooth="yes"/>
      <point x="413" y="-172" smooth="yes"/>
      <point x="413" y="-86" type="curve" smooth="yes"/>
      <point x="413" y="22"/>
      <point x="85" y="657"/>
    </contour>
  </outline>
</glyph>
<glyph name="bracketright" format="1">
  <advance width="379"/>
  <unicode hex="005D"/>
  <outline>
    <contour>
      <point x="67" y="-139" type="line" smooth="yes" name="hr00"/>
      <point x="154" y="-139" smooth="yes"/>
      <point x="187" y="-117" smooth="yes"/>
      <point x="190" y="-69" type="curve" smooth="yes"/>
      <point x="198" y="73" smooth="yes"/>
      <point x="198" y="105" smooth="yes"/>
      <point x="213" y="323" type="curve" smooth="yes"/>
      <point x="228" y="540" smooth="yes"/>
      <point x="247" y="670" smooth="yes"/>
      <point x="247" y="718" type="curve" smooth="yes"/>
      <point x="247" y="763" smooth="yes"/>
      <point x="210" y="783" smooth="yes"/>
      <point x="132" y="783" type="curve" smooth="yes"/>
      <point x="64" y="783" type="line" smooth="yes"/>
      <point x="40" y="783"/>
      <point x="27" y="760"/>
      <point x="24" y="709" type="curve"/>
      <point x="47" y="711"/>
      <point x="91" y="714"/>
      <point x="133" y="715" type="curve"/>
      <point x="133" y="705" type="line" smooth="yes"/>
      <point x="133" y="581" smooth="yes"/>
      <point x="129" y="405" smooth="yes"/>
      <point x="124" y="323" type="curve" smooth="yes"/>
      <point x="118" y="239"/>
      <point x="96" y="50"/>
      <point x="78" y="-71" type="curve"/>
      <point x="31" y="-70"/>
      <point x="-18" y="-67"/>
      <point x="-43" y="-65" type="curve"/>
      <point x="-40" y="-116" smooth="yes"/>
      <point x="-27" y="-139" smooth="yes"/>
      <point x="-3" y="-139" type="curve" smooth="yes"/>
    </contour>
  </outline>
</glyph>
<glyph name="asciicircum" format="1">
  <advance width="620"/>
  <unicode hex="005E"/>
  <outline>
    <contour>
      <point x="311" y="759" type="curve" name="hr00"/>
      <point x="185" y="598" smooth="yes"/>
      <point x="81" y="459" smooth="yes"/>
      <point x="81" y="404" type="curve" smooth="yes"/>
      <point x="81" y="370"/>
      <point x="94" y="346"/>
      <point x="139" y="328" type="curve"/>
      <point x="189" y="447"/>
      <point x="239" y="547"/>
      <point x="342" y="708" type="curve"/>
      <point x="386" y="420" smooth="yes"/>
      <point x="420" y="327" smooth="yes"/>
      <point x="493" y="327" type="curve" smooth="yes"/>
      <point x="523" y="327"/>
      <point x="549" y="339"/>
      <point x="559" y="352" type="curve"/>
      <point x="488" y="476" smooth="yes"/>
      <point x="458" y="573" smooth="yes"/>
      <point x="418" y="758" type="curve" smooth="yes"/>
      <point x="415" y="771" smooth="yes"/>
      <point x="401" y="776" smooth="yes"/>
      <point x="383" y="776" type="curve" smooth="yes"/>
      <point x="356" y="776"/>
      <point x="320" y="764"/>
    </contour>
  </outline>
</glyph>
<glyph name="c" format="1">
  <advance width="545"/>
  <unicode hex="0063"/>
  <outline>
    <contour>
      <point x="173" y="226" type="curve" smooth="yes" name="hr00"/>
      <point x="173" y="364" smooth="yes"/>
      <point x="237" y="525" smooth="yes"/>
      <point x="338" y="525" type="curve" smooth="yes"/>
      <point x="380" y="525" smooth="yes"/>
      <point x="395" y="493" smooth="yes"/>
      <point x="395" y="456" type="curve" smooth="yes"/>
      <point x="395" y="414"/>
      <point x="377" y="365"/>
      <point x="356" y="342" type="curve"/>
      <point x="371" y="335" smooth="yes"/>
      <point x="389" y="333" smooth="yes"/>
      <point x="402" y="333" type="curve" smooth="yes"/>
      <point x="461" y="333" smooth="yes"/>
      <point x="500" y="391" smooth="yes"/>
      <point x="500" y="449" type="curve" smooth="yes"/>
      <point x="500" y="513" smooth="yes"/>
      <point x="457" y="577" smooth="yes"/>
      <point x="354" y="577" type="curve" smooth="yes"/>
      <point x="172" y="577" smooth="yes"/>
      <point x="65" y="407" smooth="yes"/>
      <point x="65" y="221" type="curve" smooth="yes"/>
      <point x="65" y="58" smooth="yes"/>
      <point x="154" y="-15" smooth="yes"/>
      <point x="248" y="-15" type="curve" smooth="yes"/>
      <point x="311" y="-15"/>
      <point x="404" y="13"/>
      <point x="462" y="120" type="curve"/>
      <point x="462" y="138"/>
      <point x="446" y="144"/>
      <point x="425" y="147" type="curve"/>
      <point x="385" y="84" smooth="yes"/>
      <point x="323" y="49" smooth="yes"/>
      <point x="273" y="49" type="curve" smooth="yes"/>
      <point x="209" y="49" smooth="yes"/>
      <point x="173" y="116" smooth="yes"/>
    </contour>
  </outline>
</glyph>
<glyph name="d" format="1">
  <advance width="616"/>
  <unicode hex="0064"/>
  <outline>
    <contour>
      <point x="515" y="-18" type="curve"/>
      <point x="509" y="28" smooth="yes"/>
      <point x="506" y="75" smooth="yes"/>
      <point x="506" y="122" type="curve" smooth="yes"/>
      <point x="506" y="357" smooth="yes"/>
      <point x="573" y="589" smooth="yes"/>
      <point x="573" y="750" type="curve" smooth="yes" name="hr01"/>
      <point x="573" y="857"/>
      <point x="541" y="934"/>
      <point x="470" y="957" type="curve"/>
      <point x="476" y="921" smooth="yes"/>
      <point x="478" y="874" smooth="yes"/>
      <point x="478" y="822" type="curve" smooth="yes"/>
      <point x="478" y="635" smooth="yes"/>
      <point x="447" y="73" smooth="yes"/>
      <point x="249" y="73" type="curve" smooth="yes"/>
      <point x="183" y="73" smooth="yes"/>
      <point x="159" y="133" smooth="yes"/>
      <point x="159" y="202" type="curve" smooth="yes"/>
      <point x="159" y="326"/>
      <point x="234" y="518"/>
      <point x="426" y="550" type="curve"/>
      <point x="400" y="557" smooth="yes"/>
      <point x="374" y="561" smooth="yes"/>
      <point x="349" y="561" type="curve" smooth="yes"/>
      <point x="182" y="561" smooth="yes"/>
      <point x="51" y="407" smooth="yes"/>
      <point x="51" y="188" type="curve" smooth="yes"/>
      <point x="51" y="51" smooth="yes"/>
      <point x="117" y="-11" smooth="yes"/>
      <point x="195" y="-11" type="curve" smooth="yes"/>
      <point x="283" y="-11"/>
      <point x="374" y="57"/>
      <point x="416" y="175" type="curve" name="hr02"/>
      <point x="416" y="87"/>
      <point x="432" y="10"/>
    </contour>
  </outline>
</glyph>
<glyph name="g" format="1">
  <advance width="619"/>
  <unicode hex="0067"/>
  <outline>
    <contour>
      <point x="379" y="567" type="curve" smooth="yes" name="hr00"/>
      <point x="171" y="567" smooth="yes"/>
      <point x="54" y="359" smooth="yes"/>
      <point x="54" y="201" type="curve" smooth="yes"/>
      <point x="54" y="87" smooth="yes"/>
      <point x="103" y="-7" smooth="yes"/>
      <point x="210" y="-7" type="curve" smooth="yes"/>
      <point x="288" y="-7"/>
      <point x="376" y="65"/>
      <point x="415" y="183" type="curve"/>
      <point x="408" y="-165" smooth="yes"/>
      <point x="300" y="-267" smooth="yes"/>
      <point x="206" y="-267" type="curve" smooth="yes"/>
      <point x="155" y="-267" smooth="yes"/>
      <point x="125" y="-240" smooth="yes"/>
      <point x="125" y="-194" type="curve" smooth="yes"/>
      <point x="125" y="-164"/>
      <point x="141" y="-129"/>
      <point x="163" y="-114" type="curve"/>
      <point x="146" y="-107" smooth="yes"/>
      <point x="131" y="-104" smooth="yes"/>
      <point x="117" y="-104" type="curve" smooth="yes"/>
      <point x="62" y="-104" smooth="yes"/>
      <point x="28" y="-156" smooth="yes"/>
      <point x="28" y="-212" type="curve" smooth="yes"/>
      <point x="28" y="-268" smooth="yes"/>
      <point x="80" y="-329" smooth="yes"/>
      <point x="184" y="-329" type="curve" smooth="yes"/>
      <point x="439" y="-329" smooth="yes"/>
      <point x="533" y="-41" smooth="yes"/>
      <point x="533" y="473" type="curve" smooth="yes"/>
      <point x="533" y="527"/>
      <point x="540" y="580"/>
      <point x="547" y="633" type="curve"/>
      <point x="466" y="601" smooth="yes"/>
      <point x="454" y="514" smooth="yes"/>
      <point x="441" y="412" type="curve" smooth="yes"/>
      <point x="419" y="249" smooth="yes"/>
      <point x="358" y="82" smooth="yes"/>
      <point x="250" y="82" type="curve" smooth="yes"/>
      <point x="190" y="82" smooth="yes"/>
      <point x="165" y="143" smooth="yes"/>
      <point x="165" y="212" type="curve" smooth="yes"/>
      <point x="165" y="338"/>
      <point x="266" y="506"/>
      <point x="421" y="538" type="curve"/>
      <point x="418" y="558" smooth="yes"/>
      <point x="402" y="567" smooth="yes"/>
    </contour>
  </outline>
</glyph>
<glyph name="k" format="1">
  <advance width="574"/>
  <unicode hex="006B"/>
  <outline>
    <contour>
      <point x="193" y="309" type="curve"/>
      <point x="210" y="494" smooth="yes"/>
      <point x="239" y="664" smooth="yes"/>
      <point x="239" y="751" type="curve" smooth="yes"/>
      <point x="239" y="845"/>
      <point x="213" y="898"/>
      <point x="134" y="926" type="curve"/>
      <point x="142" y="906" smooth="yes"/>
      <point x="146" y="864" smooth="yes"/>
      <point x="146" y="809" type="curve" smooth="yes"/>
      <point x="146" y="515" smooth="yes"/>
      <point x="75" y="192" smooth="yes"/>
      <point x="75" y="83" type="curve" smooth="yes"/>
      <point x="75" y="21" smooth="yes"/>
      <point x="106" y="-2" smooth="yes"/>
      <point x="167" y="-2" type="curve" smooth="yes"/>
      <point x="174" y="-2"/>
      <point x="182" y="-1"/>
      <point x="194" y="0" type="curve"/>
      <point x="188" y="35" smooth="yes"/>
      <point x="188" y="63" smooth="yes"/>
      <point x="188" y="94" type="curve" smooth="yes" name="hr01"/>
      <point x="188" y="315" smooth="yes"/>
      <point x="292" y="505" smooth="yes"/>
      <point x="375" y="505" type="curve" smooth="yes"/>
      <point x="408" y="505" smooth="yes"/>
      <point x="424" y="477" smooth="yes"/>
      <point x="424" y="443" type="curve" smooth="yes"/>
      <point x="424" y="378"/>
      <point x="380" y="277"/>
      <point x="253" y="275" type="curve"/>
      <point x="253" y="258"/>
      <point x="255" y="246"/>
      <point x="259" y="243" type="curve"/>
      <point x="272" y="243"/>
      <point x="284" y="243"/>
      <point x="297" y="244" type="curve"/>
      <point x="356" y="69" smooth="yes"/>
      <point x="418" y="-120" smooth="yes"/>
      <point x="547" y="-120" type="curve" smooth="yes"/>
      <point x="562" y="-120"/>
      <point x="578" y="-117"/>
      <point x="596" y="-111" type="curve"/>
      <point x="555" y="-73" smooth="yes"/>
      <point x="447" y="77" smooth="yes"/>
      <point x="398" y="231" type="curve" smooth="yes"/>
      <point x="386" y="268" type="line"/>
      <point x="467" y="299" smooth="yes"/>
      <point x="517" y="368" smooth="yes"/>
      <point x="517" y="449" type="curve" smooth="yes"/>
      <point x="517" y="534" smooth="yes"/>
      <point x="470" y="579" smooth="yes"/>
      <point x="402" y="579" type="curve" smooth="yes"/>
      <point x="336" y="579"/>
      <point x="238" y="520"/>
    </contour>
  </outline>
</glyph>
<glyph name="m" format="1">
  <advance width="895"/>
  <unicode hex="006D"/>
  <outline>
    <contour>
      <point x="487" y="106" type="curve" smooth="yes"/>
      <point x="487" y="330" smooth="yes"/>
      <point x="595" y="483" smooth="yes"/>
      <point x="662" y="483" type="curve" smooth="yes"/>
      <point x="692" y="483" smooth="yes"/>
      <point x="708" y="460" smooth="yes"/>
      <point x="708" y="417" type="curve" smooth="yes"/>
      <point x="708" y="316" smooth="yes"/>
      <point x="668" y="181" smooth="yes"/>
      <point x="668" y="102" type="curve" smooth="yes" name="hr01"/>
      <point x="668" y="13" smooth="yes"/>
      <point x="712" y="-15" smooth="yes"/>
      <point x="793" y="-15" type="curve" smooth="yes"/>
      <point x="805" y="-15"/>
      <point x="817" y="-15"/>
      <point x="830" y="-14" type="curve"/>
      <point x="791" y="8" smooth="yes"/>
      <point x="773" y="32" smooth="yes"/>
      <point x="773" y="95" type="curve" smooth="yes"/>
      <point x="773" y="211" smooth="yes"/>
      <point x="812" y="322" smooth="yes"/>
      <point x="812" y="435" type="curve" smooth="yes" name="hr02"/>
      <point x="812" y="521" smooth="yes"/>
      <point x="786" y="577" smooth="yes"/>
      <point x="701" y="577" type="curve" smooth="yes"/>
      <point x="647" y="577"/>
      <point x="576" y="513"/>
      <point x="525" y="404" type="curve"/>
      <point x="525" y="501" smooth="yes"/>
      <point x="500" y="577" smooth="yes"/>
      <point x="413" y="577" type="curve" smooth="yes"/>
      <point x="348" y="577"/>
      <point x="255" y="482"/>
      <point x="209" y="345" type="curve"/>
      <point x="213" y="373" smooth="yes"/>
      <point x="216" y="400" smooth="yes"/>
      <point x="216" y="426" type="curve" smooth="yes"/>
      <point x="216" y="503"/>
      <point x="194" y="565"/>
      <point x="109" y="598" type="curve"/>
      <point x="121" y="551" smooth="yes"/>
      <point x="126" y="500" smooth="yes"/>
      <point x="126" y="448" type="curve" smooth="yes"/>
      <point x="126" y="314" smooth="yes"/>
      <point x="85" y="128" smooth="yes"/>
      <point x="85" y="83" type="curve" smooth="yes"/>
      <point x="85" y="22" smooth="yes"/>
      <point x="116" y="-2" smooth="yes"/>
      <point x="172" y="-2" type="curve" smooth="yes"/>
      <point x="180" y="-2"/>
      <point x="190" y="-1"/>
      <point x="203" y="0" type="curve"/>
      <point x="199" y="37" smooth="yes"/>
      <point x="197" y="73" smooth="yes"/>
      <point x="197" y="106" type="curve" smooth="yes" name="hr03"/>
      <point x="197" y="332" smooth="yes"/>
      <point x="305" y="483" smooth="yes"/>
      <point x="372" y="483" type="curve" smooth="yes"/>
      <point x="402" y="483" smooth="yes"/>
      <point x="418" y="460" smooth="yes"/>
      <point x="418" y="417" type="curve" smooth="yes"/>
      <point x="418" y="311" smooth="yes"/>
      <point x="375" y="153" smooth="yes"/>
      <point x="375" y="83" type="curve" smooth="yes"/>
      <point x="375" y="22" smooth="yes"/>
      <point x="406" y="-2" smooth="yes"/>
      <point x="462" y="-2" type="curve" smooth="yes"/>
      <point x="470" y="-2"/>
      <point x="480" y="-1"/>
      <point x="493" y="0" type="curve"/>
      <point x="489" y="37" smooth="yes"/>
      <point x="487" y="73" smooth="yes"/>
    </contour>
  </outline>
</glyph>
<glyph name="o" format="1">
  <advance width="617"/>
  <unicode hex="006F"/>
  <outline>
    <contour>
      <point x="363" y="511" type="curve" smooth="yes"/>
      <point x="416" y="511" smooth="yes"/>
      <point x="454" y="459" smooth="yes"/>
      <point x="454" y="341" type="curve" smooth="yes"/>
      <point x="454" y="207" smooth="yes"/>
      <point x="389" y="47" smooth="yes"/>
      <point x="278" y="47" type="curve" smooth="yes"/>
      <point x="199" y="47" smooth="yes"/>
      <point x="169" y="134" smooth="yes"/>
      <point x="169" y="228" type="curve" smooth="yes"/>
      <point x="169" y="354" smooth="yes"/>
      <point x="260" y="511" smooth="yes"/>
    </contour>
    <contour>
      <point x="266" y="591" type="curve" name="hr01"/>
      <point x="143" y="543" smooth="yes"/>
      <point x="65" y="413" smooth="yes"/>
      <point x="65" y="247" type="curve" smooth="yes"/>
      <point x="65" y="65" smooth="yes"/>
      <point x="171" y="-15" smooth="yes"/>
      <point x="268" y="-15" type="curve" smooth="yes"/>
      <point x="470" y="-15" smooth="yes"/>
      <point x="552" y="187" smooth="yes"/>
      <point x="552" y="357" type="curve" smooth="yes"/>
      <point x="552" y="493" smooth="yes"/>
      <point x="492" y="574" smooth="yes"/>
      <point x="405" y="574" type="curve" smooth="yes" name="hr02"/>
      <point x="324" y="574"/>
      <point x="219" y="526"/>
      <point x="164" y="367" type="curve"/>
      <point x="183" y="482"/>
      <point x="237" y="539"/>
      <point x="286" y="571" type="curve" name="hr03"/>
      <point x="286" y="581"/>
      <point x="281" y="591"/>
    </contour>
  </outline>
</glyph>
<glyph name="p" format="1">
  <advance width="649"/>
  <unicode hex="0070"/>
  <outline>
    <contour>
      <point x="215" y="361" type="curve"/>
      <point x="215" y="494"/>
      <point x="191" y="576"/>
      <point x="99" y="603" type="curve"/>
      <point x="110" y="541" smooth="yes"/>
      <point x="114" y="472" smooth="yes"/>
      <point x="114" y="402" type="curve" smooth="yes"/>
      <point x="114" y="174" smooth="yes"/>
      <point x="53" y="-129" smooth="yes"/>
      <point x="53" y="-213" type="curve" smooth="yes"/>
      <point x="53" y="-308"/>
      <point x="115" y="-326"/>
      <point x="184" y="-329" type="curve"/>
      <point x="169" y="-252" smooth="yes"/>
      <point x="164" y="-178" smooth="yes"/>
      <point x="164" y="-108" type="curve" smooth="yes"/>
      <point x="164" y="215" smooth="yes"/>
      <point x="257" y="468" smooth="yes"/>
      <point x="399" y="468" type="curve" smooth="yes"/>
      <point x="450" y="468" smooth="yes"/>
      <point x="476" y="422" smooth="yes"/>
      <point x="476" y="360" type="curve" smooth="yes"/>
      <point x="476" y="239"/>
      <point x="396" y="49"/>
      <point x="237" y="16" type="curve"/>
      <point x="265" y="5" smooth="yes"/>
      <point x="290" y="0" smooth="yes"/>
      <point x="317" y="0" type="curve" smooth="yes"/>
      <point x="463" y="0" smooth="yes"/>
      <point x="584" y="160" smooth="yes"/>
      <point x="584" y="360" type="curve" smooth="yes"/>
      <point x="584" y="491" smooth="yes"/>
      <point x="520" y="553" smooth="yes"/>
      <point x="443" y="553" type="curve" smooth="yes"/>
      <point x="364" y="553"/>
      <point x="272" y="490"/>
    </contour>
  </outline>
</glyph>
<glyph name="q" format="1">
  <advance width="637"/>
  <unicode hex="0071"/>
  <outline>
    <contour>
      <point x="434" y="216" type="curve" name="hr00"/>
      <point x="424" y="129"/>
      <point x="407" y="35"/>
      <point x="393" y="-44" type="curve"/>
      <point x="345" y="-62" smooth="yes"/>
      <point x="307" y="-84" smooth="yes"/>
      <point x="307" y="-122" type="curve" smooth="yes"/>
      <point x="307" y="-132"/>
      <point x="310" y="-142"/>
      <point x="316" y="-154" type="curve"/>
      <point x="340" y="-136"/>
      <point x="360" y="-123"/>
      <point x="380" y="-113" type="curve"/>
      <point x="371" y="-160" smooth="yes"/>
      <point x="366" y="-197" smooth="yes"/>
      <point x="366" y="-217" type="curve" smooth="yes"/>
      <point x="366" y="-308"/>
      <point x="425" y="-326"/>
      <point x="492" y="-329" type="curve"/>
      <point x="484" y="-275" smooth="yes"/>
      <point x="481" y="-222" smooth="yes"/>
      <point x="481" y="-166" type="curve" smooth="yes"/>
      <point x="481" y="-135"/>
      <point x="482" y="-105"/>
      <point x="483" y="-75" type="curve"/>
      <point x="505" y="-68" smooth="yes"/>
      <point x="528" y="-60" smooth="yes"/>
      <point x="555" y="-50" type="curve" smooth="yes"/>
      <point x="583" y="-39" smooth="yes"/>
      <point x="594" y="-22" smooth="yes"/>
      <point x="594" y="-2" type="curve" smooth="yes"/>
      <point x="594" y="12"/>
      <point x="586" y="31"/>
      <point x="575" y="43" type="curve"/>
      <point x="560" y="18"/>
      <point x="526" y="1"/>
      <point x="487" y="-13" type="curve"/>
      <point x="504" y="216" smooth="yes"/>
      <point x="552" y="422" smooth="yes"/>
      <point x="552" y="483" type="curve" smooth="yes"/>
      <point x="552" y="553" smooth="yes"/>
      <point x="512" y="570" smooth="yes"/>
      <point x="467" y="570" type="curve" smooth="yes"/>
      <point x="461" y="570"/>
      <point x="453" y="569"/>
      <point x="442" y="568" type="curve"/>
      <point x="447" y="528" smooth="yes"/>
      <point x="448" y="490" smooth="yes"/>
      <point x="448" y="454" type="curve" smooth="yes"/>
      <point x="448" y="257" smooth="yes"/>
      <point x="347" y="83" smooth="yes"/>
      <point x="236" y="83" type="curve" smooth="yes"/>
      <point x="183" y="83" smooth="yes"/>
      <point x="159" y="138" smooth="yes"/>
      <point x="159" y="202" type="curve" smooth="yes"/>
      <point x="159" y="354"/>
      <point x="251" y="499"/>
      <point x="399" y="541" type="curve"/>
      <point x="371" y="550" smooth="yes"/>
      <point x="345" y="554" smooth="yes"/>
      <point x="321" y="554" type="curve" smooth="yes"/>
      <point x="145" y="554" smooth="yes"/>
      <point x="51" y="342" smooth="yes"/>
      <point x="51" y="187" type="curve" smooth="yes"/>
      <point x="51" y="60" smooth="yes"/>
      <point x="115" y="0" smooth="yes"/>
      <point x="193" y="0" type="curve" smooth="yes"/>
      <point x="275" y="0"/>
      <point x="363" y="51"/>
    </contour>
  </outline>
</glyph>
<glyph name="w" format="1">
  <advance width="769"/>
  <unicode hex="0077"/>
  <outline>
    <contour>
      <point x="547" y="0" type="curve" name="hr00"/>
      <point x="617" y="210" smooth="yes"/>
      <point x="754" y="397" smooth="yes"/>
      <point x="754" y="502" type="curve" smooth="yes"/>
      <point x="754" y="549"/>
      <point x="734" y="579"/>
      <point x="692" y="599" type="curve"/>
      <point x="689" y="473"/>
      <point x="599" y="267"/>
      <point x="529" y="105" type="curve"/>
      <point x="495" y="381" smooth="yes"/>
      <point x="517" y="586" smooth="yes"/>
      <point x="409" y="586" type="curve" smooth="yes"/>
      <point x="392" y="586"/>
      <point x="366" y="575"/>
      <point x="344" y="560" type="curve"/>
      <point x="353" y="543"/>
      <point x="362" y="523"/>
      <point x="370" y="500" type="curve"/>
      <point x="339" y="384"/>
      <point x="273" y="226"/>
      <point x="221" y="105" type="curve"/>
      <point x="187" y="381" smooth="yes"/>
      <point x="214" y="586" smooth="yes"/>
      <point x="101" y="586" type="curve" smooth="yes"/>
      <point x="84" y="586"/>
      <point x="58" y="575"/>
      <point x="36" y="560" type="curve"/>
      <point x="101" y="450" smooth="yes"/>
      <point x="111" y="182" smooth="yes"/>
      <point x="152" y="1" type="curve" smooth="yes"/>
      <point x="154" y="-10" smooth="yes"/>
      <point x="164" y="-14" smooth="yes"/>
      <point x="177" y="-14" type="curve" smooth="yes"/>
      <point x="198" y="-14"/>
      <point x="224" y="-4"/>
      <point x="229" y="0" type="curve"/>
      <point x="270" y="104"/>
      <point x="350" y="252"/>
      <point x="401" y="367" type="curve"/>
      <point x="422" y="249" smooth="yes"/>
      <point x="435" y="109" smooth="yes"/>
      <point x="460" y="1" type="curve" smooth="yes"/>
      <point x="462" y="-10" smooth="yes"/>
      <point x="472" y="-14" smooth="yes"/>
      <point x="485" y="-14" type="curve" smooth="yes"/>
      <point x="506" y="-14"/>
      <point x="542" y="-4"/>
    </contour>
  </outline>
</glyph>
<glyph name="y" format="1">
  <advance width="516"/>
  <unicode hex="0079"/>
  <outline>
    <contour>
      <point x="496" y="508" type="curve" smooth="yes" name="hr00"/>
      <point x="496" y="543"/>
      <point x="478" y="569"/>
      <point x="434" y="599" type="curve"/>
      <point x="434" y="492"/>
      <point x="325" y="270"/>
      <point x="238" y="106" type="curve"/>
      <point x="227" y="157" smooth="yes"/>
      <point x="212" y="287" smooth="yes"/>
      <point x="208" y="328" type="curve" smooth="yes"/>
      <point x="191" y="514" smooth="yes"/>
      <point x="177" y="586" smooth="yes"/>
      <point x="112" y="586" type="curve" smooth="yes"/>
      <point x="87" y="586"/>
      <point x="58" y="575"/>
      <point x="39" y="560" type="curve"/>
      <point x="105" y="452"/>
      <point x="128" y="170"/>
      <point x="172" y="-11" type="curve"/>
      <point x="140" y="-84" smooth="yes"/>
      <point x="102" y="-181" smooth="yes"/>
      <point x="102" y="-228" type="curve" smooth="yes"/>
      <point x="102" y="-272"/>
      <point x="117" y="-320"/>
      <point x="211" y="-342" type="curve"/>
      <point x="206" y="-313" smooth="yes"/>
      <point x="204" y="-283" smooth="yes"/>
      <point x="204" y="-256" type="curve" smooth="yes"/>
      <point x="204" y="70" smooth="yes"/>
      <point x="496" y="377" smooth="yes"/>
    </contour>
  </outline>
</glyph>
<glyph name="braceright" format="1">
  <advance width="372"/>
  <unicode hex="007D"/>
  <outline>
    <contour>
      <point x="135" y="473" type="curve" smooth="yes"/>
      <point x="135" y="392"/>
      <point x="175" y="322"/>
      <point x="213" y="314" type="curve"/>
      <point x="134" y="288" smooth="yes"/>
      <point x="105" y="163" smooth="yes"/>
      <point x="105" y="34" type="curve" smooth="yes"/>
      <point x="105" y="-35" smooth="yes"/>
      <point x="94" y="-68" smooth="yes"/>
      <point x="27" y="-68" type="curve" smooth="yes"/>
      <point x="15" y="-68"/>
      <point x="1" y="-67"/>
      <point x="-15" y="-65" type="curve"/>
      <point x="-15" y="-114" smooth="yes"/>
      <point x="1" y="-139" smooth="yes"/>
      <point x="51" y="-139" type="curve" smooth="yes"/>
      <point x="180" y="-139" smooth="yes"/>
      <point x="219" y="-80" smooth="yes"/>
      <point x="219" y="49" type="curve" smooth="yes"/>
      <point x="219" y="154"/>
      <point x="219" y="283"/>
      <point x="310" y="296" type="curve"/>
      <point x="312" y="332" type="line"/>
      <point x="258" y="334" smooth="yes"/>
      <point x="244" y="399" smooth="yes"/>
      <point x="244" y="476" type="curve" smooth="yes"/>
      <point x="244" y="543" smooth="yes"/>
      <point x="263" y="604" smooth="yes"/>
      <point x="263" y="654" type="curve" smooth="yes"/>
      <point x="263" y="733" smooth="yes"/>
      <point x="225" y="783" smooth="yes"/>
      <point x="110" y="783" type="curve" smooth="yes"/>
      <point x="53" y="783"/>
      <point x="37" y="767"/>
      <point x="37" y="709" type="curve"/>
      <point x="53" y="712" smooth="yes"/>
      <point x="67" y="713" smooth="yes"/>
      <point x="79" y="713" type="curve" smooth="yes"/>
      <point x="136" y="713" smooth="yes"/>
      <point x="148" y="683" smooth="yes"/>
      <point x="148" y="636" type="curve" smooth="yes"/>
      <point x="148" y="592" smooth="yes"/>
      <point x="135" y="533" smooth="yes"/>
    </contour>
  </outline>
</glyph>
<glyph name="exclamdown" format="1">
  <advance width="286"/>
  <unicode hex="00A1"/>
  <outline>
    <contour>
      <point x="41" y="-160" type="curve" smooth="yes"/>
      <point x="41" y="-230"/>
      <point x="116" y="-255"/>
      <point x="148" y="-255" type="curve"/>
      <point x="145" y="-239" smooth="yes"/>
      <point x="145" y="-222" smooth="yes"/>
      <point x="145" y="-205" type="curve" smooth="yes"/>
      <point x="145" y="-64" smooth="yes"/>
      <point x="195" y="54" smooth="yes"/>
      <point x="195" y="177" type="curve" smooth="yes" name="hr01"/>
      <point x="195" y="255"/>
      <point x="170" y="301"/>
      <point x="104" y="325" type="curve"/>
      <point x="110" y="311" smooth="yes"/>
      <point x="112" y="287" smooth="yes"/>
      <point x="112" y="256" type="curve" smooth="yes"/>
      <point x="112" y="75" smooth="yes"/>
      <point x="41" y="-79" smooth="yes"/>
    </contour>
    <contour>
      <point x="223" y="437" type="curve"/>
      <point x="231" y="460" smooth="yes"/>
      <point x="241" y="481" smooth="yes"/>
      <point x="241" y="503" type="curve" smooth="yes"/>
      <point x="241" y="542" smooth="yes"/>
      <point x="208" y="554" smooth="yes"/>
      <point x="180" y="554" type="curve" smooth="yes"/>
      <point x="162" y="554"/>
      <point x="142" y="550"/>
      <point x="126" y="544" type="curve"/>
      <point x="118" y="521" smooth="yes"/>
      <point x="108" y="500" smooth="yes"/>
      <point x="108" y="478" type="curve" smooth="yes"/>
      <point x="108" y="439" smooth="yes"/>
      <point x="141" y="427" smooth="yes"/>
      <point x="169" y="427" type="curve" smooth="yes"/>
      <point x="187" y="427"/>
      <point x="207" y="431"/>
    </contour>
  </outline>
</glyph>
<glyph name="currency" format="1">
  <advance width="604"/>
  <unicode hex="00A4"/>
  <outline>
    <contour>
      <point x="333" y="581" type="curve" smooth="yes" name="hr00"/>
      <point x="303" y="581"/>
      <point x="276" y="576"/>
      <point x="252" y="568" type="curve"/>
      <point x="232" y="604" smooth="yes"/>
      <point x="214" y="632" smooth="yes"/>
      <point x="201" y="649" type="curve" smooth="yes"/>
      <point x="165" y="694"/>
      <point x="122" y="691"/>
      <point x="107" y="679" type="curve"/>
      <point x="132" y="641"/>
      <point x="160" y="590"/>
      <point x="190" y="532" type="curve"/>
      <point x="137" y="489" smooth="yes"/>
      <point x="110" y="422" smooth="yes"/>
      <point x="110" y="356" type="curve" smooth="yes"/>
      <point x="110" y="307"/>
      <point x="121" y="269"/>
      <point x="140" y="242" type="curve"/>
      <point x="113" y="212" smooth="yes"/>
      <point x="92" y="186" smooth="yes"/>
      <point x="82" y="168" type="curve" smooth="yes"/>
      <point x="43" y="102"/>
      <point x="107" y="64"/>
      <point x="113" y="61" type="curve"/>
      <point x="136" y="101"/>
      <point x="169" y="145"/>
      <point x="207" y="191" type="curve"/>
      <point x="227" y="183" smooth="yes"/>
      <point x="249" y="180" smooth="yes"/>
      <point x="271" y="180" type="curve" smooth="yes"/>
      <point x="299" y="180"/>
      <point x="326" y="184"/>
      <point x="349" y="192" type="curve"/>
      <point x="373" y="142" smooth="yes"/>
      <point x="395" y="103" smooth="yes"/>
      <point x="413" y="83" type="curve" smooth="yes"/>
      <point x="463" y="25"/>
      <point x="520" y="72"/>
      <point x="524" y="76" type="curve"/>
      <point x="490" y="117"/>
      <point x="455" y="173"/>
      <point x="420" y="233" type="curve"/>
      <point x="469" y="276" smooth="yes"/>
      <point x="494" y="340" smooth="yes"/>
      <point x="494" y="404" type="curve" smooth="yes"/>
      <point x="494" y="435"/>
      <point x="489" y="462"/>
      <point x="481" y="484" type="curve"/>
      <point x="509" y="516"/>
      <point x="529" y="542"/>
      <point x="541" y="560" type="curve"/>
      <point x="570" y="610"/>
      <point x="554" y="649"/>
      <point x="536" y="660" type="curve"/>
      <point x="513" y="626"/>
      <point x="479" y="587"/>
      <point x="439" y="544" type="curve"/>
      <point x="409" y="570" smooth="yes"/>
      <point x="371" y="581" smooth="yes"/>
    </contour>
    <contour>
      <point x="314" y="521" type="curve" smooth="yes"/>
      <point x="358" y="521" smooth="yes"/>
      <point x="402" y="484" smooth="yes"/>
      <point x="402" y="385" type="curve" smooth="yes"/>
      <point x="402" y="314" smooth="yes"/>
      <point x="366" y="240" smooth="yes"/>
      <point x="291" y="240" type="curve" smooth="yes"/>
      <point x="248" y="240" smooth="yes"/>
      <point x="204" y="271" smooth="yes"/>
      <point x="204" y="376" type="curve" smooth="yes"/>
      <point x="204" y="447" smooth="yes"/>
      <point x="239" y="521" smooth="yes"/>
    </contour>
  </outline>
</glyph>
<glyph name="yen" format="1">
  <advance width="620"/>
  <unicode hex="00A5"/>
  <outline>
    <contour>
      <point x="292" y="398" type="line" smooth="yes"/>
      <point x="230" y="623" smooth="yes"/>
      <point x="202" y="719" smooth="yes"/>
      <point x="132" y="719" type="curve" smooth="yes"/>
      <point x="116" y="719"/>
      <point x="87" y="709"/>
      <point x="70" y="693" type="curve"/>
      <point x="120" y="614"/>
      <point x="168" y="514"/>
      <point x="207" y="397" type="curve"/>
      <point x="184" y="395" smooth="yes"/>
      <point x="161" y="394" smooth="yes"/>
      <point x="139" y="394" type="curve" smooth="yes"/>
      <point x="127" y="394"/>
      <point x="116" y="395"/>
      <point x="105" y="395" type="curve"/>
      <point x="110" y="355" smooth="yes"/>
      <point x="132" y="331" smooth="yes"/>
      <point x="173" y="331" type="curve" smooth="yes"/>
      <point x="186" y="331"/>
      <point x="205" y="333"/>
      <point x="227" y="335" type="curve"/>
      <point x="246" y="266" type="line"/>
      <point x="208" y="259" smooth="yes"/>
      <point x="170" y="254" smooth="yes"/>
      <point x="133" y="254" type="curve" smooth="yes"/>
      <point x="121" y="254"/>
      <point x="110" y="255"/>
      <point x="99" y="255" type="curve"/>
      <point x="104" y="215" smooth="yes"/>
      <point x="126" y="191" smooth="yes"/>
      <point x="167" y="191" type="curve" smooth="yes"/>
      <point x="184" y="191"/>
      <point x="208" y="194"/>
      <point x="237" y="199" type="curve"/>
      <point x="232" y="162" smooth="yes"/>
      <point x="229" y="128" smooth="yes"/>
      <point x="229" y="97" type="curve" smooth="yes"/>
      <point x="229" y="31"/>
      <point x="239" y="-10"/>
      <point x="327" y="-15" type="curve"/>
      <point x="325" y="6" smooth="yes"/>
      <point x="324" y="17" smooth="yes"/>
      <point x="324" y="41" type="curve" smooth="yes"/>
      <point x="324" y="87"/>
      <point x="331" y="149"/>
      <point x="340" y="218" type="curve"/>
      <point x="379" y="224" smooth="yes"/>
      <point x="417" y="229" smooth="yes"/>
      <point x="451" y="229" type="curve" smooth="yes" name="hr01"/>
      <point x="480" y="229"/>
      <point x="503" y="227"/>
      <point x="513" y="223" type="curve"/>
      <point x="499" y="274" smooth="yes"/>
      <point x="471" y="292" smooth="yes"/>
      <point x="422" y="292" type="curve" smooth="yes"/>
      <point x="401" y="292"/>
      <point x="379" y="290"/>
      <point x="357" y="286" type="curve"/>
      <point x="408" y="358" type="line"/>
      <point x="429" y="360" smooth="yes"/>
      <point x="450" y="361" smooth="yes"/>
      <point x="469" y="361" type="curve" smooth="yes"/>
      <point x="498" y="361"/>
      <point x="521" y="359"/>
      <point x="531" y="355" type="curve"/>
      <point x="518" y="400"/>
      <point x="494" y="420"/>
      <point x="454" y="423" type="curve"/>
      <point x="516" y="512" smooth="yes"/>
      <point x="555" y="574" smooth="yes"/>
      <point x="555" y="627" type="curve" smooth="yes"/>
      <point x="555" y="656"/>
      <point x="542" y="701"/>
      <point x="503" y="735" type="curve"/>
      <point x="488" y="642" smooth="yes"/>
      <point x="458" y="547" smooth="yes"/>
      <point x="313" y="336" type="curve" smooth="yes"/>
      <point x="310" y="332" type="line"/>
    </contour>
  </outline>
</glyph>
<glyph name="brokenbar" format="1">
  <advance width="456"/>
  <unicode hex="00A6"/>
  <outline>
    <contour>
      <point x="274" y="450" type="curve"/>
      <point x="274" y="558" smooth="yes"/>
      <point x="285" y="726" smooth="yes"/>
      <point x="285" y="803" type="curve" smooth="yes"/>
      <point x="285" y="847"/>
      <point x="252" y="867"/>
      <point x="172" y="867" type="curve"/>
      <point x="183" y="776" smooth="yes"/>
      <point x="186" y="641" smooth="yes"/>
      <point x="186" y="547" type="curve" smooth="yes"/>
      <point x="186" y="484"/>
      <point x="207" y="450"/>
    </contour>
    <contour>
      <point x="182" y="231" type="curve"/>
      <point x="182" y="123" smooth="yes"/>
      <point x="171" y="-45" smooth="yes"/>
      <point x="171" y="-122" type="curve" smooth="yes" name="hr01"/>
      <point x="171" y="-166"/>
      <point x="204" y="-186"/>
      <point x="284" y="-186" type="curve"/>
      <point x="273" y="-95" smooth="yes"/>
      <point x="270" y="40" smooth="yes"/>
      <point x="270" y="134" type="curve" smooth="yes"/>
      <point x="270" y="197"/>
      <point x="249" y="231"/>
    </contour>
  </outline>
</glyph>
<glyph name="copyright" format="1">
  <advance width="803"/>
  <unicode hex="00A9"/>
  <outline>
    <contour>
      <point x="489" y="485" type="curve" name="hr00"/>
      <point x="464" y="449" smooth="yes"/>
      <point x="431" y="431" smooth="yes"/>
      <point x="405" y="431" type="curve" smooth="yes"/>
      <point x="366" y="431" smooth="yes"/>
      <point x="334" y="465" smooth="yes"/>
      <point x="334" y="543" type="curve" smooth="yes"/>
      <point x="334" y="622" smooth="yes"/>
      <point x="368" y="715" smooth="yes"/>
      <point x="426" y="715" type="curve" smooth="yes"/>
      <point x="447" y="715" smooth="yes"/>
      <point x="455" y="697" smooth="yes"/>
      <point x="455" y="677" type="curve" smooth="yes"/>
      <point x="455" y="651"/>
      <point x="442" y="615"/>
      <point x="428" y="599" type="curve"/>
      <point x="442" y="595" smooth="yes"/>
      <point x="453" y="592" smooth="yes"/>
      <point x="462" y="592" type="curve" smooth="yes"/>
      <point x="506" y="592" smooth="yes"/>
      <point x="535" y="626" smooth="yes"/>
      <point x="535" y="672" type="curve" smooth="yes"/>
      <point x="535" y="713" smooth="yes"/>
      <point x="506" y="758" smooth="yes"/>
      <point x="432" y="758" type="curve" smooth="yes"/>
      <point x="308" y="758" smooth="yes"/>
      <point x="246" y="655" smooth="yes"/>
      <point x="246" y="542" type="curve" smooth="yes"/>
      <point x="246" y="429" smooth="yes"/>
      <point x="309" y="378" smooth="yes"/>
      <point x="380" y="378" type="curve" smooth="yes"/>
      <point x="423" y="378"/>
      <point x="483" y="396"/>
      <point x="521" y="465" type="curve"/>
      <point x="521" y="477"/>
      <point x="512" y="485"/>
    </contour>
    <contour>
      <point x="438" y="861" type="curve" smooth="yes"/>
      <point x="217" y="861" smooth="yes"/>
      <point x="100" y="711" smooth="yes"/>
      <point x="100" y="555" type="curve" smooth="yes"/>
      <point x="100" y="344" smooth="yes"/>
      <point x="238" y="273" smooth="yes"/>
      <point x="365" y="273" type="curve" smooth="yes"/>
      <point x="586" y="273" smooth="yes"/>
      <point x="703" y="423" smooth="yes"/>
      <point x="703" y="579" type="curve" smooth="yes"/>
      <point x="703" y="790" smooth="yes"/>
      <point x="565" y="861" smooth="yes"/>
    </contour>
    <contour>
      <point x="436" y="814" type="curve" smooth="yes"/>
      <point x="533" y="814" smooth="yes"/>
      <point x="638" y="755" smooth="yes"/>
      <point x="638" y="579" type="curve" smooth="yes"/>
      <point x="638" y="447" smooth="yes"/>
      <point x="546" y="320" smooth="yes"/>
      <point x="367" y="320" type="curve" smooth="yes"/>
      <point x="270" y="320" smooth="yes"/>
      <point x="165" y="379" smooth="yes"/>
      <point x="165" y="555" type="curve" smooth="yes"/>
      <point x="165" y="687" smooth="yes"/>
      <point x="257" y="814" smooth="yes"/>
    </contour>
  </outline>
</glyph>
<glyph name="degree" format="1">
  <advance width="404"/>
  <unicode hex="00B0"/>
  <outline>
    <contour>
      <point x="229" y="784" type="curve" smooth="yes" name="hr00"/>
      <point x="104" y="784" smooth="yes"/>
      <point x="38" y="690" smooth="yes"/>
      <point x="38" y="597" type="curve" smooth="yes"/>
      <point x="38" y="488" smooth="yes"/>
      <point x="108" y="450" smooth="yes"/>
      <point x="175" y="450" type="curve" smooth="yes"/>
      <point x="300" y="450" smooth="yes"/>
      <point x="366" y="543" smooth="yes"/>
      <point x="366" y="637" type="curve" smooth="yes"/>
      <point x="366" y="746" smooth="yes"/>
      <point x="296" y="784" smooth="yes"/>
    </contour>
    <contour>
      <point x="212" y="729" type="curve" smooth="yes"/>
      <point x="246" y="729" smooth="yes"/>
      <point x="280" y="700" smooth="yes"/>
      <point x="280" y="621" type="curve" smooth="yes"/>
      <point x="280" y="564" smooth="yes"/>
      <point x="252" y="505" smooth="yes"/>
      <point x="193" y="505" type="curve" smooth="yes"/>
      <point x="159" y="505" smooth="yes"/>
      <point x="125" y="530" smooth="yes"/>
      <point x="125" y="613" type="curve" smooth="yes"/>
      <point x="125" y="670" smooth="yes"/>
      <point x="153" y="729" smooth="yes"/>
    </contour>
  </outline>
</glyph>
<glyph name="acute" format="1">
  <advance width="372"/>
  <unicode hex="00B4"/>
  <outline>
    <contour>
      <point x="98" y="652" type="curve" name="hr00"/>
      <point x="100" y="637"/>
      <point x="114" y="623"/>
      <point x="130" y="619" type="curve"/>
      <point x="171" y="671"/>
      <point x="252" y="744"/>
      <point x="337" y="770" type="curve"/>
      <point x="335" y="821"/>
      <point x="303" y="843"/>
      <point x="289" y="852" type="curve"/>
      <point x="214" y="822"/>
      <point x="129" y="722"/>
    </contour>
  </outline>
</glyph>
<glyph name="mu" format="1">
  <advance width="606"/>
  <unicode hex="00B5"/>
  <outline>
    <contour>
      <point x="408" y="577" type="curve"/>
      <point x="413" y="536" smooth="yes"/>
      <point x="414" y="517" smooth="yes"/>
      <point x="414" y="480" type="curve" smooth="yes"/>
      <point x="414" y="287" smooth="yes"/>
      <point x="305" y="94" smooth="yes"/>
      <point x="237" y="94" type="curve" smooth="yes"/>
      <point x="205" y="94" smooth="yes"/>
      <point x="191" y="119" smooth="yes"/>
      <point x="191" y="168" type="curve" smooth="yes"/>
      <point x="191" y="264" smooth="yes"/>
      <point x="233" y="392" smooth="yes"/>
      <point x="233" y="465" type="curve" smooth="yes"/>
      <point x="233" y="556"/>
      <point x="188" y="572"/>
      <point x="105" y="572" type="curve"/>
      <point x="115" y="535" smooth="yes"/>
      <point x="119" y="499" smooth="yes"/>
      <point x="119" y="462" type="curve" smooth="yes"/>
      <point x="119" y="226" smooth="yes"/>
      <point x="37" y="-27" smooth="yes"/>
      <point x="37" y="-159" type="curve" smooth="yes" name="hr01"/>
      <point x="37" y="-237"/>
      <point x="55" y="-282"/>
      <point x="128" y="-307" type="curve"/>
      <point x="122" y="-293" smooth="yes"/>
      <point x="120" y="-269" smooth="yes"/>
      <point x="120" y="-237" type="curve" smooth="yes"/>
      <point x="120" y="-149"/>
      <point x="134" y="-69"/>
      <point x="148" y="1" type="curve"/>
      <point x="281" y="1"/>
      <point x="364" y="113"/>
      <point x="410" y="269" type="curve"/>
      <point x="405" y="229" smooth="yes"/>
      <point x="399" y="190" smooth="yes"/>
      <point x="399" y="156" type="curve" smooth="yes"/>
      <point x="399" y="77"/>
      <point x="422" y="13"/>
      <point x="507" y="-21" type="curve"/>
      <point x="492" y="33" smooth="yes"/>
      <point x="488" y="93" smooth="yes"/>
      <point x="488" y="154" type="curve" smooth="yes"/>
      <point x="488" y="278" smooth="yes"/>
      <point x="526" y="439" smooth="yes"/>
      <point x="526" y="490" type="curve" smooth="yes"/>
      <point x="526" y="562" smooth="yes"/>
      <point x="492" y="579" smooth="yes"/>
      <point x="442" y="579" type="curve" smooth="yes"/>
      <point x="433" y="579"/>
      <point x="420" y="578"/>
    </contour>
  </outline>
</glyph>
<glyph name="paragraph" format="1">
  <advance width="620"/>
  <unicode hex="00B6"/>
  <outline>
    <contour>
      <point x="464" y="-329" type="curve"/>
      <point x="462" y="-300" smooth="yes"/>
      <point x="460" y="-270" smooth="yes"/>
      <point x="460" y="-239" type="curve" smooth="yes"/>
      <point x="460" y="22" smooth="yes"/>
      <point x="534" y="479" smooth="yes"/>
      <point x="534" y="602" type="curve" smooth="yes" name="hr01"/>
      <point x="534" y="745" smooth="yes"/>
      <point x="458" y="812" smooth="yes"/>
      <point x="330" y="812" type="curve" smooth="yes"/>
      <point x="163" y="812" smooth="yes"/>
      <point x="82" y="699" smooth="yes"/>
      <point x="82" y="557" type="curve" smooth="yes"/>
      <point x="82" y="425"/>
      <point x="187" y="289"/>
      <point x="394" y="211" type="curve"/>
      <point x="367" y="-26" smooth="yes"/>
      <point x="353" y="-130" smooth="yes"/>
      <point x="353" y="-196" type="curve" smooth="yes" name="hr02"/>
      <point x="353" y="-302"/>
      <point x="383" y="-324"/>
    </contour>
    <contour>
      <point x="333" y="742" type="curve" smooth="yes"/>
      <point x="372" y="742"/>
      <point x="414" y="723"/>
      <point x="436" y="682" type="curve" name="hr03"/>
      <point x="436" y="601"/>
      <point x="417" y="420"/>
      <point x="406" y="306" type="curve"/>
      <point x="291" y="359" smooth="yes"/>
      <point x="202" y="469" smooth="yes"/>
      <point x="202" y="576" type="curve" smooth="yes"/>
      <point x="202" y="670" smooth="yes"/>
      <point x="239" y="742" smooth="yes"/>
    </contour>
    <contour>
      <point x="186" y="-201" type="curve" smooth="yes"/>
      <point x="186" y="-301"/>
      <point x="243" y="-315"/>
      <point x="309" y="-319" type="curve"/>
      <point x="292" y="-299" smooth="yes"/>
      <point x="281" y="-266" smooth="yes"/>
      <point x="281" y="-203" type="curve" smooth="yes"/>
      <point x="281" y="-70"/>
      <point x="298" y="10"/>
      <point x="316" y="160" type="curve"/>
      <point x="290" y="171"/>
      <point x="257" y="188"/>
      <point x="232" y="208" type="curve"/>
      <point x="212" y="53" smooth="yes"/>
      <point x="186" y="-106" smooth="yes"/>
    </contour>
  </outline>
</glyph>
<glyph name="cedilla" format="1">
  <advance width="292"/>
  <unicode hex="00B8"/>
  <outline>
    <contour>
      <point x="110" y="-40" type="curve" name="hr00"/>
      <point x="106" y="-49"/>
      <point x="104" y="-55"/>
      <point x="104" y="-67" type="curve"/>
      <point x="124" y="-76" smooth="yes"/>
      <point x="158" y="-94" smooth="yes"/>
      <point x="158" y="-146" type="curve" smooth="yes"/>
      <point x="158" y="-191"/>
      <point x="124" y="-231"/>
      <point x="65" y="-243" type="curve"/>
      <point x="65" y="-275"/>
      <point x="79" y="-302"/>
      <point x="104" y="-313" type="curve"/>
      <point x="184" y="-289" smooth="yes"/>
      <point x="232" y="-223" smooth="yes"/>
      <point x="232" y="-152" type="curve" smooth="yes"/>
      <point x="232" y="-94"/>
      <point x="198" y="-46"/>
    </contour>
  </outline>
</glyph>
<glyph name="questiondown" format="1">
  <advance width="373"/>
  <unicode hex="00BF"/>
  <outline>
    <contour>
      <point x="283" y="226" type="curve" smooth="yes"/>
      <point x="283" y="273"/>
      <point x="268" y="311"/>
      <point x="191" y="337" type="curve"/>
      <point x="197" y="323" smooth="yes"/>
      <point x="202" y="305" smooth="yes"/>
      <point x="202" y="275" type="curve" smooth="yes"/>
      <point x="202" y="132" smooth="yes"/>
      <point x="-45" y="92" smooth="yes"/>
      <point x="-45" y="-73" type="curve" smooth="yes"/>
      <point x="-45" y="-193" smooth="yes"/>
      <point x="48" y="-233" smooth="yes"/>
      <point x="140" y="-233" type="curve" smooth="yes"/>
      <point x="239" y="-233" smooth="yes"/>
      <point x="338" y="-178" smooth="yes"/>
      <point x="338" y="-89" type="curve" smooth="yes" name="hr01"/>
      <point x="338" y="-41" smooth="yes"/>
      <point x="304" y="-9" smooth="yes"/>
      <point x="260" y="-9" type="curve" smooth="yes"/>
      <point x="249" y="-9"/>
      <point x="236" y="-11"/>
      <point x="223" y="-17" type="curve"/>
      <point x="239" y="-36" smooth="yes"/>
      <point x="248" y="-60" smooth="yes"/>
      <point x="248" y="-84" type="curve" smooth="yes"/>
      <point x="248" y="-132" smooth="yes"/>
      <point x="218" y="-178" smooth="yes"/>
      <point x="145" y="-178" type="curve" smooth="yes"/>
      <point x="101" y="-178" smooth="yes"/>
      <point x="55" y="-149" smooth="yes"/>
      <point x="55" y="-90" type="curve" smooth="yes"/>
      <point x="55" y="52" smooth="yes"/>
      <point x="283" y="100" smooth="yes"/>
    </contour>
    <contour>
      <point x="284" y="437" type="curve"/>
      <point x="292" y="460" smooth="yes"/>
      <point x="302" y="481" smooth="yes"/>
      <point x="302" y="503" type="curve" smooth="yes"/>
      <point x="302" y="542" smooth="yes"/>
      <point x="269" y="554" smooth="yes"/>
      <point x="241" y="554" type="curve" smooth="yes"/>
      <point x="223" y="554"/>
      <point x="203" y="550"/>
      <point x="187" y="544" type="curve"/>
      <point x="179" y="521" smooth="yes"/>
      <point x="169" y="500" smooth="yes"/>
      <point x="169" y="478" type="curve" smooth="yes"/>
      <point x="169" y="439" smooth="yes"/>
      <point x="202" y="427" smooth="yes"/>
      <point x="230" y="427" type="curve" smooth="yes"/>
      <point x="248" y="427"/>
      <point x="268" y="431"/>
    </contour>
  </outline>
</glyph>
<glyph name="germandbls" format="1">
  <advance width="713"/>
  <unicode hex="00DF"/>
  <outline>
    <contour>
      <point x="462" y="454" type="line"/>
      <point x="564" y="509" smooth="yes"/>
      <point x="627" y="606" smooth="yes"/>
      <point x="627" y="695" type="curve" smooth="yes"/>
      <point x="627" y="780" smooth="yes"/>
      <point x="571" y="860" smooth="yes"/>
      <point x="440" y="860" type="curve" smooth="yes"/>
      <point x="349" y="860"/>
      <point x="232" y="788"/>
      <point x="178" y="548" type="curve"/>
      <point x="106" y="547" smooth="yes"/>
      <point x="51" y="540" smooth="yes"/>
      <point x="51" y="465" type="curve" smooth="yes"/>
      <point x="51" y="454"/>
      <point x="52" y="449"/>
      <point x="53" y="438" type="curve"/>
      <point x="93" y="456"/>
      <point x="127" y="463"/>
      <point x="161" y="469" type="curve"/>
      <point x="138" y="331" smooth="yes"/>
      <point x="121" y="192" smooth="yes"/>
      <point x="121" y="83" type="curve" smooth="yes"/>
      <point x="121" y="-4"/>
      <point x="160" y="-81"/>
      <point x="231" y="-113" type="curve"/>
      <point x="216" y="-27" smooth="yes"/>
      <point x="215" y="-15" smooth="yes"/>
      <point x="215" y="63" type="curve" smooth="yes"/>
      <point x="215" y="199" smooth="yes"/>
      <point x="240" y="379" smooth="yes"/>
      <point x="258" y="507" type="curve" smooth="yes"/>
      <point x="289" y="724" smooth="yes"/>
      <point x="359" y="801" smooth="yes"/>
      <point x="435" y="801" type="curve" smooth="yes"/>
      <point x="495" y="801" smooth="yes"/>
      <point x="529" y="752" smooth="yes"/>
      <point x="529" y="678" type="curve" smooth="yes"/>
      <point x="529" y="595"/>
      <point x="474" y="505"/>
      <point x="382" y="447" type="curve"/>
      <point x="398" y="410" type="line"/>
      <point x="508" y="410" smooth="yes"/>
      <point x="568" y="316" smooth="yes"/>
      <point x="568" y="221" type="curve" smooth="yes" name="hr01"/>
      <point x="568" y="119" smooth="yes"/>
      <point x="515" y="19" smooth="yes"/>
      <point x="441" y="19" type="curve" smooth="yes"/>
      <point x="384" y="19" smooth="yes"/>
      <point x="364" y="52" smooth="yes"/>
      <point x="364" y="94" type="curve" smooth="yes"/>
      <point x="364" y="138"/>
      <point x="387" y="194"/>
      <point x="405" y="215" type="curve"/>
      <point x="389" y="222" smooth="yes"/>
      <point x="372" y="225" smooth="yes"/>
      <point x="362" y="225" type="curve" smooth="yes"/>
      <point x="304" y="225" smooth="yes"/>
      <point x="265" y="167" smooth="yes"/>
      <point x="265" y="109" type="curve" smooth="yes"/>
      <point x="265" y="38" smooth="yes"/>
      <point x="311" y="-33" smooth="yes"/>
      <point x="425" y="-33" type="curve" smooth="yes"/>
      <point x="589" y="-33" smooth="yes"/>
      <point x="678" y="105" smooth="yes"/>
      <point x="678" y="235" type="curve" smooth="yes"/>
      <point x="678" y="340"/>
      <point x="605" y="440"/>
      <point x="463" y="449" type="curve"/>
    </contour>
  </outline>
</glyph>
<glyph name="divide" format="1">
  <advance width="620"/>
  <unicode hex="00F7"/>
  <outline>
    <contour>
      <point x="352" y="504" type="curve" name="hr00"/>
      <point x="359" y="524" smooth="yes"/>
      <point x="368" y="542" smooth="yes"/>
      <point x="368" y="561" type="curve" smooth="yes"/>
      <point x="368" y="595" smooth="yes"/>
      <point x="339" y="606" smooth="yes"/>
      <point x="314" y="606" type="curve" smooth="yes"/>
      <point x="299" y="606"/>
      <point x="281" y="603"/>
      <point x="267" y="597" type="curve"/>
      <point x="260" y="577" smooth="yes"/>
      <point x="251" y="559" smooth="yes"/>
      <point x="251" y="540" type="curve" smooth="yes"/>
      <point x="251" y="506" smooth="yes"/>
      <point x="280" y="495" smooth="yes"/>
      <point x="305" y="495" type="curve" smooth="yes"/>
      <point x="320" y="495"/>
      <point x="338" y="498"/>
    </contour>
    <contour>
      <point x="352" y="115" type="curve"/>
      <point x="359" y="135" smooth="yes"/>
      <point x="368" y="153" smooth="yes"/>
      <point x="368" y="172" type="curve" smooth="yes"/>
      <point x="368" y="206" smooth="yes"/>
      <point x="339" y="217" smooth="yes"/>
      <point x="314" y="217" type="curve" smooth="yes"/>
      <point x="299" y="217"/>
      <point x="281" y="214"/>
      <point x="267" y="208" type="curve"/>
      <point x="260" y="188" smooth="yes"/>
      <point x="251" y="170" smooth="yes"/>
      <point x="251" y="151" type="curve" smooth="yes"/>
      <point x="251" y="117" smooth="yes"/>
      <point x="280" y="106" smooth="yes"/>
      <point x="305" y="106" type="curve" smooth="yes"/>
      <point x="320" y="106"/>
      <point x="338" y="109"/>
    </contour>
    <component  base="minus"/>
  </outline>
</glyph>
<glyph name="thorn" format="1">
  <advance width="649"/>
  <unicode hex="00FE"/>
  <outline>
    <contour>
      <point x="204" y="343" type="curve" name="hr00"/>
      <point x="224" y="548" smooth="yes"/>
      <point x="242" y="667" smooth="yes"/>
      <point x="242" y="751" type="curve" smooth="yes"/>
      <point x="242" y="845"/>
      <point x="216" y="898"/>
      <point x="137" y="926" type="curve"/>
      <point x="145" y="906" smooth="yes"/>
      <point x="149" y="864" smooth="yes"/>
      <point x="149" y="809" type="curve" smooth="yes"/>
      <point x="149" y="460" smooth="yes"/>
      <point x="53" y="-129" smooth="yes"/>
      <point x="53" y="-213" type="curve" smooth="yes"/>
      <point x="53" y="-308"/>
      <point x="116" y="-326"/>
      <point x="184" y="-329" type="curve"/>
      <point x="169" y="-252" smooth="yes"/>
      <point x="164" y="-178" smooth="yes"/>
      <point x="164" y="-108" type="curve" smooth="yes"/>
      <point x="164" y="215" smooth="yes"/>
      <point x="257" y="468" smooth="yes"/>
      <point x="399" y="468" type="curve" smooth="yes"/>
      <point x="450" y="468" smooth="yes"/>
      <point x="476" y="422" smooth="yes"/>
      <point x="476" y="360" type="curve" smooth="yes"/>
      <point x="476" y="239"/>
      <point x="396" y="49"/>
      <point x="237" y="16" type="curve"/>
      <point x="265" y="5" smooth="yes"/>
      <point x="290" y="0" smooth="yes"/>
      <point x="317" y="0" type="curve" smooth="yes"/>
      <point x="463" y="0" smooth="yes"/>
      <point x="584" y="160" smooth="yes"/>
      <point x="584" y="360" type="curve" smooth="yes"/>
      <point x="584" y="491" smooth="yes"/>
      <point x="520" y="553" smooth="yes"/>
      <point x="443" y="553" type="curve" smooth="yes"/>
      <point x="364" y="553"/>
      <point x="261" y="472"/>
    </contour>
  </outline>
</glyph>
<glyph name="dotlessi" format="1">
  <advance width="321"/>
  <unicode hex="0131"/>
  <outline>
    <contour>
      <point x="192" y="88" type="curve" smooth="yes"/>
      <point x="194" y="275" smooth="yes"/>
      <point x="242" y="438" smooth="yes"/>
      <point x="242" y="497" type="curve" smooth="yes" name="hr01"/>
      <point x="242" y="558" smooth="yes"/>
      <point x="217" y="583" smooth="yes"/>
      <point x="157" y="583" type="curve" smooth="yes"/>
      <point x="149" y="583"/>
      <point x="137" y="582"/>
      <point x="128" y="581" type="curve"/>
      <point x="134" y="548" smooth="yes"/>
      <point x="134" y="513" smooth="yes"/>
      <point x="134" y="479" type="curve" smooth="yes"/>
      <point x="134" y="377" smooth="yes"/>
      <point x="102" y="252" smooth="yes"/>
      <point x="102" y="164" type="curve" smooth="yes" name="hr02"/>
      <point x="102" y="67"/>
      <point x="125" y="13"/>
      <point x="204" y="-15" type="curve"/>
      <point x="196" y="3" smooth="yes"/>
      <point x="192" y="40" smooth="yes"/>
    </contour>
  </outline>
</glyph>
<glyph name="OE" format="1">
  <advance width="1046"/>
  <unicode hex="0152"/>
  <outline>
    <contour>
      <point x="1004" y="794" type="curve"/>
      <point x="933" y="780" smooth="yes"/>
      <point x="867" y="775" smooth="yes"/>
      <point x="807" y="775" type="curve" smooth="yes"/>
      <point x="674" y="775" smooth="yes"/>
      <point x="569" y="799" smooth="yes"/>
      <point x="502" y="799" type="curve" smooth="yes"/>
      <point x="369" y="799"/>
      <point x="244" y="714"/>
      <point x="185" y="553" type="curve"/>
      <point x="212" y="700"/>
      <point x="287" y="766"/>
      <point x="361" y="810" type="curve"/>
      <point x="360" y="819"/>
      <point x="353" y="825"/>
      <point x="342" y="827" type="curve"/>
      <point x="176" y="775" smooth="yes"/>
      <point x="65" y="600" smooth="yes"/>
      <point x="65" y="379" type="curve" smooth="yes"/>
      <point x="65" y="191" smooth="yes"/>
      <point x="152" y="-25" smooth="yes"/>
      <point x="357" y="-25" type="curve" smooth="yes"/>
      <point x="488" y="-25" smooth="yes"/>
      <point x="533" y="0" smooth="yes"/>
      <point x="681" y="0" type="curve" smooth="yes" name="hr01"/>
      <point x="730" y="0" smooth="yes"/>
      <point x="784" y="-11" smooth="yes"/>
      <point x="830" y="-11" type="curve" smooth="yes" name="hr02"/>
      <point x="902" y="-11"/>
      <point x="958" y="11"/>
      <point x="969" y="114" type="curve"/>
      <point x="906" y="96"/>
      <point x="771" y="83"/>
      <point x="635" y="83" type="curve"/>
      <point x="636" y="169"/>
      <point x="643" y="260"/>
      <point x="651" y="339" type="curve"/>
      <point x="675" y="340" smooth="yes"/>
      <point x="698" y="340" smooth="yes"/>
      <point x="719" y="340" type="curve" smooth="yes"/>
      <point x="748" y="340" smooth="yes"/>
      <point x="765" y="339" smooth="yes"/>
      <point x="801" y="339" type="curve" smooth="yes"/>
      <point x="842" y="339" smooth="yes"/>
      <point x="878" y="348" smooth="yes"/>
      <point x="878" y="412" type="curve" smooth="yes"/>
      <point x="878" y="423"/>
      <point x="877" y="434"/>
      <point x="876" y="445" type="curve"/>
      <point x="842" y="422" smooth="yes"/>
      <point x="796" y="417" smooth="yes"/>
      <point x="745" y="417" type="curve" smooth="yes"/>
      <point x="725" y="417"/>
      <point x="692" y="418"/>
      <point x="661" y="419" type="curve"/>
      <point x="674" y="523"/>
      <point x="688" y="620"/>
      <point x="692" y="683" type="curve"/>
      <point x="719" y="679" smooth="yes"/>
      <point x="747" y="676" smooth="yes"/>
      <point x="775" y="676" type="curve" smooth="yes"/>
      <point x="888" y="676"/>
      <point x="996" y="707"/>
    </contour>
    <contour>
      <point x="472" y="731" type="curve" smooth="yes"/>
      <point x="520" y="731"/>
      <point x="557" y="723"/>
      <point x="590" y="705" type="curve"/>
      <point x="581" y="521"/>
      <point x="533" y="210"/>
      <point x="522" y="83" type="curve"/>
      <point x="498" y="58" smooth="yes"/>
      <point x="437" y="35" smooth="yes"/>
      <point x="381" y="35" type="curve" smooth="yes" name="hr03"/>
      <point x="241" y="35" smooth="yes"/>
      <point x="182" y="170" smooth="yes"/>
      <point x="182" y="330" type="curve" smooth="yes"/>
      <point x="182" y="519" smooth="yes"/>
      <point x="303" y="731" smooth="yes"/>
    </contour>
  </outline>
</glyph>
<glyph name="oe" format="1">
  <advance width="917"/>
  <unicode hex="0153"/>
  <outline>
    <contour>
      <point x="266" y="591" type="curve"/>
      <point x="143" y="543" smooth="yes"/>
      <point x="65" y="413" smooth="yes"/>
      <point x="65" y="247" type="curve" smooth="yes"/>
      <point x="65" y="65" smooth="yes"/>
      <point x="171" y="-15" smooth="yes"/>
      <point x="268" y="-15" type="curve" smooth="yes"/>
      <point x="358" y="-15"/>
      <point x="425" y="26"/>
      <point x="471" y="86" type="curve"/>
      <point x="507" y="21" smooth="yes"/>
      <point x="560" y="-15" smooth="yes"/>
      <point x="623" y="-15" type="curve" smooth="yes"/>
      <point x="721" y="-15"/>
      <point x="791" y="27"/>
      <point x="849" y="120" type="curve"/>
      <point x="849" y="135"/>
      <point x="838" y="143"/>
      <point x="812" y="147" type="curve"/>
      <point x="771" y="83" smooth="yes"/>
      <point x="715" y="49" smooth="yes"/>
      <point x="651" y="49" type="curve" smooth="yes"/>
      <point x="582" y="49" smooth="yes"/>
      <point x="546" y="109" smooth="yes"/>
      <point x="546" y="226" type="curve" smooth="yes"/>
      <point x="546" y="241"/>
      <point x="546" y="250"/>
      <point x="547" y="257" type="curve"/>
      <point x="577" y="250" smooth="yes"/>
      <point x="611" y="246" smooth="yes"/>
      <point x="653" y="246" type="curve" smooth="yes"/>
      <point x="762" y="246" smooth="yes"/>
      <point x="877" y="308" smooth="yes"/>
      <point x="877" y="432" type="curve" smooth="yes"/>
      <point x="877" y="526" smooth="yes"/>
      <point x="827" y="577" smooth="yes"/>
      <point x="727" y="577" type="curve" smooth="yes" name="hr01"/>
      <point x="643" y="577"/>
      <point x="578" y="542"/>
      <point x="530" y="481" type="curve"/>
      <point x="505" y="540" smooth="yes"/>
      <point x="461" y="574" smooth="yes"/>
      <point x="405" y="574" type="curve" smooth="yes"/>
      <point x="324" y="574"/>
      <point x="219" y="526"/>
      <point x="164" y="367" type="curve"/>
      <point x="183" y="482"/>
      <point x="237" y="539"/>
      <point x="286" y="571" type="curve" name="hr02"/>
      <point x="286" y="581"/>
      <point x="281" y="591"/>
    </contour>
    <contour>
      <point x="363" y="511" type="curve" smooth="yes"/>
      <point x="416" y="511" smooth="yes"/>
      <point x="454" y="459" smooth="yes"/>
      <point x="454" y="341" type="curve" smooth="yes"/>
      <point x="454" y="207" smooth="yes"/>
      <point x="389" y="47" smooth="yes"/>
      <point x="278" y="47" type="curve" smooth="yes"/>
      <point x="199" y="47" smooth="yes"/>
      <point x="169" y="134" smooth="yes"/>
      <point x="169" y="228" type="curve" smooth="yes"/>
      <point x="169" y="354" smooth="yes"/>
      <point x="260" y="511" smooth="yes"/>
    </contour>
    <contour>
      <point x="708" y="525" type="curve" smooth="yes" name="hr03"/>
      <point x="752" y="525" smooth="yes"/>
      <point x="771" y="493" smooth="yes"/>
      <point x="771" y="452" type="curve" smooth="yes"/>
      <point x="771" y="384" smooth="yes"/>
      <point x="727" y="294" smooth="yes"/>
      <point x="579" y="294" type="curve" smooth="yes"/>
      <point x="551" y="294" type="line"/>
      <point x="568" y="404" smooth="yes"/>
      <point x="622" y="525" smooth="yes"/>
    </contour>
  </outline>
</glyph>
<glyph name="circumflex" format="1">
  <advance width="450"/>
  <unicode hex="02C6"/>
  <outline>
    <contour>
      <point x="373" y="641" type="curve" smooth="yes" name="hr00"/>
      <point x="398" y="641"/>
      <point x="412" y="646"/>
      <point x="425" y="652" type="curve"/>
      <point x="316" y="755"/>
      <point x="376" y="853"/>
      <point x="278" y="853" type="curve"/>
      <point x="238" y="807"/>
      <point x="216" y="770"/>
      <point x="107" y="701" type="curve"/>
      <point x="108" y="659"/>
      <point x="132" y="636"/>
      <point x="146" y="625" type="curve"/>
      <point x="216" y="671"/>
      <point x="250" y="719"/>
      <point x="279" y="772" type="curve"/>
      <point x="299" y="668" smooth="yes"/>
      <point x="321" y="641" smooth="yes"/>
    </contour>
  </outline>
</glyph>
<glyph name="breve" format="1">
  <advance width="355"/>
  <unicode hex="02D8"/>
  <outline>
    <contour>
      <point x="42" y="788" type="curve"/>
      <point x="42" y="680" smooth="yes"/>
      <point x="106" y="644" smooth="yes"/>
      <point x="170" y="644" type="curve" smooth="yes"/>
      <point x="235" y="644"/>
      <point x="293" y="677"/>
      <point x="313" y="751" type="curve"/>
      <point x="313" y="782"/>
      <point x="287" y="817"/>
      <point x="259" y="817" type="curve"/>
      <point x="255" y="756" smooth="yes"/>
      <point x="204" y="719" smooth="yes"/>
      <point x="160" y="719" type="curve" smooth="yes"/>
      <point x="124" y="719"/>
      <point x="94" y="746"/>
      <point x="94" y="789" type="curve"/>
      <point x="89" y="798" smooth="yes"/>
      <point x="80" y="802" smooth="yes"/>
      <point x="72" y="802" type="curve" smooth="yes" name="hr01"/>
      <point x="61" y="802"/>
      <point x="51" y="796"/>
    </contour>
  </outline>
</glyph>
<glyph name="dotaccent" format="1">
  <advance width="263"/>
  <unicode hex="02D9"/>
  <outline>
    <contour>
      <point x="180" y="666" type="curve" name="hr00"/>
      <point x="188" y="689" smooth="yes"/>
      <point x="198" y="710" smooth="yes"/>
      <point x="198" y="732" type="curve" smooth="yes"/>
      <point x="198" y="771" smooth="yes"/>
      <point x="165" y="783" smooth="yes"/>
      <point x="137" y="783" type="curve" smooth="yes"/>
      <point x="119" y="783"/>
      <point x="99" y="779"/>
      <point x="83" y="773" type="curve"/>
      <point x="75" y="750" smooth="yes"/>
      <point x="65" y="729" smooth="yes"/>
      <point x="65" y="707" type="curve" smooth="yes"/>
      <point x="65" y="668" smooth="yes"/>
      <point x="98" y="656" smooth="yes"/>
      <point x="126" y="656" type="curve" smooth="yes"/>
      <point x="144" y="656"/>
      <point x="164" y="660"/>
    </contour>
  </outline>
</glyph>
<glyph name="hungarumlaut" format="1">
  <advance width="450"/>
  <unicode hex="02DD"/>
  <outline>
    <contour>
      <point x="70" y="624" type="curve" name="hr00"/>
      <point x="140" y="655"/>
      <point x="240" y="740"/>
      <point x="270" y="815" type="curve"/>
      <point x="261" y="829"/>
      <point x="239" y="861"/>
      <point x="188" y="863" type="curve"/>
      <point x="162" y="778"/>
      <point x="94" y="700"/>
      <point x="42" y="659" type="curve"/>
      <point x="46" y="643"/>
      <point x="55" y="628"/>
    </contour>
    <contour>
      <point x="260" y="624" type="curve"/>
      <point x="330" y="655"/>
      <point x="430" y="740"/>
      <point x="460" y="815" type="curve"/>
      <point x="451" y="829"/>
      <point x="429" y="861"/>
      <point x="378" y="863" type="curve"/>
      <point x="352" y="778"/>
      <point x="284" y="700"/>
      <point x="232" y="659" type="curve"/>
      <point x="236" y="643"/>
      <point x="245" y="628"/>
    </contour>
  </outline>
</glyph>
<glyph name="emdash" format="1">
  <advance width="665"/>
  <unicode hex="2014"/>
  <outline>
    <contour>
      <point x="508" y="370" type="curve" smooth="yes" name="hr00"/>
      <point x="398" y="370" smooth="yes"/>
      <point x="311" y="359" smooth="yes"/>
      <point x="223" y="359" type="curve" smooth="yes"/>
      <point x="159" y="359"/>
      <point x="82" y="361"/>
      <point x="36" y="367" type="curve"/>
      <point x="36" y="361" smooth="yes"/>
      <point x="35" y="355" smooth="yes"/>
      <point x="35" y="349" type="curve" smooth="yes"/>
      <point x="35" y="301" smooth="yes"/>
      <point x="50" y="265" smooth="yes"/>
      <point x="157" y="265" type="curve" smooth="yes"/>
      <point x="267" y="265" smooth="yes"/>
      <point x="354" y="276" smooth="yes"/>
      <point x="442" y="276" type="curve" smooth="yes"/>
      <point x="506" y="276"/>
      <point x="583" y="274"/>
      <point x="629" y="268" type="curve"/>
      <point x="629" y="274" smooth="yes"/>
      <point x="630" y="280" smooth="yes"/>
      <point x="630" y="286" type="curve" smooth="yes"/>
      <point x="630" y="334" smooth="yes"/>
      <point x="615" y="370" smooth="yes"/>
    </contour>
  </outline>
</glyph>
<glyph name="quoteright" format="1">
  <advance width="248"/>
  <unicode hex="2019"/>
  <outline>
    <contour>
      <point x="109" y="842" type="curve" name="hr00"/>
      <point x="118" y="817" smooth="yes"/>
      <point x="124" y="792" smooth="yes"/>
      <point x="124" y="767" type="curve" smooth="yes"/>
      <point x="124" y="709"/>
      <point x="98" y="651"/>
      <point x="50" y="605" type="curve"/>
      <point x="74" y="575" type="line"/>
      <point x="183" y="634" smooth="yes"/>
      <point x="238" y="712" smooth="yes"/>
      <point x="238" y="791" type="curve" smooth="yes"/>
      <point x="238" y="841" smooth="yes"/>
      <point x="206" y="853" smooth="yes"/>
      <point x="174" y="853" type="curve" smooth="yes"/>
      <point x="153" y="853"/>
      <point x="127" y="848"/>
    </contour>
  </outline>
</glyph>
<glyph name="quotedblleft" format="1">
  <advance width="355"/>
  <unicode hex="201C"/>
  <outline>
    <contour>
      <point x="144" y="571" type="curve" name="hr00"/>
      <point x="135" y="596" smooth="yes"/>
      <point x="129" y="621" smooth="yes"/>
      <point x="129" y="646" type="curve" smooth="yes"/>
      <point x="129" y="704"/>
      <point x="155" y="762"/>
      <point x="203" y="808" type="curve"/>
      <point x="179" y="838" type="line"/>
      <point x="70" y="779" smooth="yes"/>
      <point x="15" y="701" smooth="yes"/>
      <point x="15" y="622" type="curve" smooth="yes"/>
      <point x="15" y="572" smooth="yes"/>
      <point x="47" y="560" smooth="yes"/>
      <point x="79" y="560" type="curve" smooth="yes"/>
      <point x="100" y="560"/>
      <point x="126" y="565"/>
    </contour>
    <contour>
      <point x="346" y="595" type="curve"/>
      <point x="337" y="620" smooth="yes"/>
      <point x="331" y="645" smooth="yes"/>
      <point x="331" y="670" type="curve" smooth="yes"/>
      <point x="331" y="728"/>
      <point x="357" y="786"/>
      <point x="405" y="832" type="curve"/>
      <point x="381" y="862" type="line"/>
      <point x="272" y="803" smooth="yes"/>
      <point x="217" y="725" smooth="yes"/>
      <point x="217" y="646" type="curve" smooth="yes"/>
      <point x="217" y="596" smooth="yes"/>
      <point x="249" y="584" smooth="yes"/>
      <point x="281" y="584" type="curve" smooth="yes"/>
      <point x="302" y="584"/>
      <point x="328" y="589"/>
    </contour>
  </outline>
</glyph>
<glyph name="daggerdbl" format="1">
  <advance width="390"/>
  <unicode hex="2021"/>
  <outline>
    <contour>
      <point x="81" y="-68" type="curve" smooth="yes" name="hr00"/>
      <point x="81" y="-137"/>
      <point x="87" y="-180"/>
      <point x="197" y="-186" type="curve"/>
      <point x="193" y="-160" smooth="yes"/>
      <point x="193" y="-132" smooth="yes"/>
      <point x="193" y="-104" type="curve" smooth="yes"/>
      <point x="193" y="-80"/>
      <point x="197" y="-33"/>
      <point x="204" y="24" type="curve"/>
      <point x="287" y="24" type="line" smooth="yes"/>
      <point x="357" y="24" smooth="yes"/>
      <point x="414" y="35" smooth="yes"/>
      <point x="414" y="104" type="curve" smooth="yes"/>
      <point x="414" y="114"/>
      <point x="411" y="139"/>
      <point x="410" y="148" type="curve"/>
      <point x="344" y="121"/>
      <point x="274" y="117"/>
      <point x="215" y="117" type="curve"/>
      <point x="235" y="278" smooth="yes"/>
      <point x="263" y="471" smooth="yes"/>
      <point x="271" y="529" type="curve" smooth="yes"/>
      <point x="271" y="533"/>
      <point x="272" y="537"/>
      <point x="272" y="542" type="curve"/>
      <point x="315" y="541" smooth="yes"/>
      <point x="363" y="541" smooth="yes"/>
      <point x="383" y="541" type="curve" smooth="yes"/>
      <point x="421" y="541"/>
      <point x="476" y="561"/>
      <point x="476" y="635" type="curve"/>
      <point x="285" y="635" type="line"/>
      <point x="292" y="684" smooth="yes"/>
      <point x="297" y="724" smooth="yes"/>
      <point x="297" y="749" type="curve" smooth="yes"/>
      <point x="297" y="818"/>
      <point x="291" y="861"/>
      <point x="181" y="867" type="curve"/>
      <point x="183" y="841" smooth="yes"/>
      <point x="185" y="813" smooth="yes"/>
      <point x="185" y="785" type="curve" smooth="yes"/>
      <point x="185" y="738"/>
      <point x="182" y="688"/>
      <point x="177" y="635" type="curve"/>
      <point x="107" y="635" type="line" smooth="yes"/>
      <point x="37" y="635" smooth="yes"/>
      <point x="-20" y="624" smooth="yes"/>
      <point x="-20" y="555" type="curve" smooth="yes"/>
      <point x="-20" y="545"/>
      <point x="-17" y="520"/>
      <point x="-16" y="511" type="curve"/>
      <point x="46" y="536"/>
      <point x="111" y="541"/>
      <point x="168" y="542" type="curve"/>
      <point x="151" y="393"/>
      <point x="124" y="237"/>
      <point x="104" y="117" type="curve"/>
      <point x="67" y="118" smooth="yes"/>
      <point x="28" y="118" smooth="yes"/>
      <point x="11" y="118" type="curve" smooth="yes"/>
      <point x="-27" y="118"/>
      <point x="-82" y="98"/>
      <point x="-82" y="24" type="curve"/>
      <point x="90" y="24" type="line"/>
      <point x="84" y="-15" smooth="yes"/>
      <point x="81" y="-47" smooth="yes"/>
    </contour>
  </outline>
</glyph>
<glyph name="ellipsis" format="1">
  <advance width="624"/>
  <unicode hex="2026"/>
  <outline>
    <contour>
      <point x="165" y="-1" type="curve" name="hr00"/>
      <point x="173" y="23" smooth="yes"/>
      <point x="183" y="47" smooth="yes"/>
      <point x="183" y="72" type="curve" smooth="yes"/>
      <point x="183" y="114" smooth="yes"/>
      <point x="149" y="126" smooth="yes"/>
      <point x="118" y="126" type="curve" smooth="yes"/>
      <point x="98" y="126"/>
      <point x="76" y="122"/>
      <point x="58" y="116" type="curve"/>
      <point x="50" y="92" smooth="yes"/>
      <point x="40" y="68" smooth="yes"/>
      <point x="40" y="43" type="curve" smooth="yes"/>
      <point x="40" y="1" smooth="yes"/>
      <point x="74" y="-11" smooth="yes"/>
      <point x="105" y="-11" type="curve" smooth="yes"/>
      <point x="125" y="-11"/>
      <point x="147" y="-7"/>
    </contour>
    <contour>
      <point x="373" y="-1" type="curve"/>
      <point x="381" y="23" smooth="yes"/>
      <point x="391" y="47" smooth="yes"/>
      <point x="391" y="72" type="curve" smooth="yes"/>
      <point x="391" y="114" smooth="yes"/>
      <point x="357" y="126" smooth="yes"/>
      <point x="326" y="126" type="curve" smooth="yes"/>
      <point x="306" y="126"/>
      <point x="284" y="122"/>
      <point x="266" y="116" type="curve"/>
      <point x="258" y="92" smooth="yes"/>
      <point x="248" y="68" smooth="yes"/>
      <point x="248" y="43" type="curve" smooth="yes"/>
      <point x="248" y="1" smooth="yes"/>
      <point x="282" y="-11" smooth="yes"/>
      <point x="313" y="-11" type="curve" smooth="yes"/>
      <point x="333" y="-11"/>
      <point x="355" y="-7"/>
    </contour>
    <contour>
      <point x="581" y="-1" type="curve"/>
      <point x="589" y="23" smooth="yes"/>
      <point x="599" y="47" smooth="yes"/>
      <point x="599" y="72" type="curve" smooth="yes"/>
      <point x="599" y="114" smooth="yes"/>
      <point x="565" y="126" smooth="yes"/>
      <point x="534" y="126" type="curve" smooth="yes"/>
      <point x="514" y="126"/>
      <point x="492" y="122"/>
      <point x="474" y="116" type="curve"/>
      <point x="466" y="92" smooth="yes"/>
      <point x="456" y="68" smooth="yes"/>
      <point x="456" y="43" type="curve" smooth="yes"/>
      <point x="456" y="1" smooth="yes"/>
      <point x="490" y="-11" smooth="yes"/>
      <point x="521" y="-11" type="curve" smooth="yes"/>
      <point x="541" y="-11"/>
      <point x="563" y="-7"/>
    </contour>
  </outline>
</glyph>
<glyph name="guilsinglright" format="1">
  <advance width="397"/>
  <unicode hex="203A"/>
  <outline>
    <contour>
      <point x="322" y="327" type="line" name="hr00"/>
      <point x="254" y="360" smooth="yes"/>
      <point x="257" y="564" smooth="yes"/>
      <point x="173" y="564" type="curve" smooth="yes"/>
      <point x="148" y="564"/>
      <point x="123" y="555"/>
      <point x="88" y="519" type="curve"/>
      <point x="148" y="497"/>
      <point x="181" y="383"/>
      <point x="221" y="317" type="curve"/>
      <point x="168" y="251"/>
      <point x="111" y="137"/>
      <point x="45" y="115" type="curve"/>
      <point x="73" y="79" smooth="yes"/>
      <point x="94" y="70" smooth="yes"/>
      <point x="118" y="70" type="curve" smooth="yes"/>
      <point x="202" y="70"/>
      <point x="245" y="274"/>
      <point x="319" y="307" type="curve"/>
    </contour>
  </outline>
</glyph>
<glyph name="fraction" format="1">
  <advance width="343"/>
  <unicode hex="2044"/>
  <outline>
    <contour>
      <point x="279" y="768" type="curve" name="hr00"/>
      <point x="243" y="557" smooth="yes"/>
      <point x="29" y="122" smooth="yes"/>
      <point x="29" y="14" type="curve" smooth="yes"/>
      <point x="29" y="-72"/>
      <point x="97" y="-82"/>
      <point x="97" y="-82" type="curve"/>
      <point x="129" y="158" smooth="yes"/>
      <point x="316" y="569" smooth="yes"/>
      <point x="316" y="665" type="curve" smooth="yes"/>
      <point x="316" y="735"/>
      <point x="279" y="768"/>
    </contour>
  </outline>
</glyph>
<glyph name="fourinferior" format="1">
  <advance width="346"/>
  <unicode hex="2084"/>
  <outline>
    <contour>
      <point x="28" y="-58" type="curve"/>
      <point x="39" y="-61"/>
      <point x="124" y="-65"/>
      <point x="194" y="-66" type="curve"/>
      <point x="191" y="-80" smooth="yes"/>
      <point x="190" y="-103" smooth="yes"/>
      <point x="190" y="-111" type="curve" smooth="yes"/>
      <point x="190" y="-137" smooth="yes"/>
      <point x="197" y="-161" smooth="yes"/>
      <point x="244" y="-161" type="curve" smooth="yes"/>
      <point x="250" y="-161"/>
      <point x="259" y="-161"/>
      <point x="275" y="-158" type="curve"/>
      <point x="269" y="-126"/>
      <point x="269" y="-115"/>
      <point x="269" y="-67" type="curve"/>
      <point x="308" y="-65" smooth="yes"/>
      <point x="321" y="-45" smooth="yes"/>
      <point x="321" y="-22" type="curve" smooth="yes"/>
      <point x="321" y="-16"/>
      <point x="319" y="-4"/>
      <point x="314" y="14" type="curve"/>
      <point x="314" y="14"/>
      <point x="296" y="12"/>
      <point x="275" y="10" type="curve"/>
      <point x="278" y="28" smooth="yes"/>
      <point x="281" y="39" smooth="yes"/>
      <point x="281" y="58" type="curve" smooth="yes" name="hr01"/>
      <point x="281" y="88" smooth="yes"/>
      <point x="270" y="99" smooth="yes"/>
      <point x="243" y="99" type="curve" smooth="yes"/>
      <point x="226" y="99"/>
      <point x="218" y="97"/>
      <point x="211" y="95" type="curve"/>
      <point x="211" y="52"/>
      <point x="209" y="27"/>
      <point x="206" y="2" type="curve"/>
      <point x="171" y="0"/>
      <point x="113" y="-2"/>
      <point x="77" y="-3" type="curve"/>
      <point x="135" y="82" smooth="yes"/>
      <point x="223" y="186" smooth="yes"/>
      <point x="223" y="238" type="curve" smooth="yes"/>
      <point x="223" y="285"/>
      <point x="164" y="314"/>
      <point x="164" y="314" type="curve"/>
      <point x="145" y="224" smooth="yes"/>
      <point x="97" y="134" smooth="yes"/>
      <point x="39" y="44" type="curve" smooth="yes"/>
      <point x="13" y="4" smooth="yes"/>
      <point x="10" y="-4" smooth="yes"/>
      <point x="10" y="-16" type="curve" smooth="yes"/>
      <point x="10" y="-39"/>
      <point x="28" y="-58"/>
    </contour>
  </outline>
</glyph>
<glyph name="fiveinferior" format="1">
  <advance width="343"/>
  <unicode hex="2085"/>
  <outline>
    <contour>
      <point x="149" y="-115" type="curve" smooth="yes" name="hr00"/>
      <point x="111" y="-115" smooth="yes"/>
      <point x="91" y="-96" smooth="yes"/>
      <point x="91" y="-65" type="curve" smooth="yes"/>
      <point x="91" y="-48"/>
      <point x="99" y="-23"/>
      <point x="130" y="-6" type="curve"/>
      <point x="110" y="4" smooth="yes"/>
      <point x="90" y="5" smooth="yes"/>
      <point x="83" y="5" type="curve" smooth="yes"/>
      <point x="41" y="5" smooth="yes"/>
      <point x="20" y="-35" smooth="yes"/>
      <point x="20" y="-67" type="curve" smooth="yes"/>
      <point x="20" y="-116" smooth="yes"/>
      <point x="52" y="-169" smooth="yes"/>
      <point x="142" y="-169" type="curve" smooth="yes"/>
      <point x="249" y="-169" smooth="yes"/>
      <point x="313" y="-99" smooth="yes"/>
      <point x="313" y="-21" type="curve" smooth="yes"/>
      <point x="313" y="48" smooth="yes"/>
      <point x="272" y="107" smooth="yes"/>
      <point x="146" y="107" type="curve" smooth="yes"/>
      <point x="137" y="107"/>
      <point x="126" y="107"/>
      <point x="116" y="106" type="curve"/>
      <point x="133" y="217" type="line"/>
      <point x="170" y="207" smooth="yes"/>
      <point x="240" y="198" smooth="yes"/>
      <point x="264" y="198" type="curve" smooth="yes"/>
      <point x="299" y="198" smooth="yes"/>
      <point x="308" y="217" smooth="yes"/>
      <point x="308" y="241" type="curve" smooth="yes"/>
      <point x="308" y="255"/>
      <point x="304" y="271"/>
      <point x="301" y="282" type="curve"/>
      <point x="301" y="282" smooth="yes"/>
      <point x="240" y="273" smooth="yes"/>
      <point x="175" y="273" type="curve" smooth="yes"/>
      <point x="133" y="273"/>
      <point x="101" y="275"/>
      <point x="59" y="280" type="curve"/>
      <point x="61" y="253"/>
      <point x="68" y="240"/>
      <point x="77" y="228" type="curve"/>
      <point x="48" y="51" type="line"/>
      <point x="75" y="61" smooth="yes"/>
      <point x="112" y="63" smooth="yes"/>
      <point x="128" y="63" type="curve" smooth="yes"/>
      <point x="204" y="63" smooth="yes"/>
      <point x="231" y="15" smooth="yes"/>
      <point x="231" y="-31" type="curve" smooth="yes"/>
      <point x="231" y="-80" smooth="yes"/>
      <point x="202" y="-115" smooth="yes"/>
    </contour>
  </outline>
</glyph>
<glyph name="sixinferior" format="1">
  <advance width="363"/>
  <unicode hex="2086"/>
  <outline>
    <contour>
      <point x="230" y="152" type="curve" smooth="yes" name="hr00"/>
      <point x="244" y="142" smooth="yes"/>
      <point x="257" y="138" smooth="yes"/>
      <point x="268" y="138" type="curve" smooth="yes"/>
      <point x="302" y="138" smooth="yes"/>
      <point x="323" y="169" smooth="yes"/>
      <point x="323" y="199" type="curve" smooth="yes"/>
      <point x="323" y="243" smooth="yes"/>
      <point x="286" y="287" smooth="yes"/>
      <point x="217" y="287" type="curve" smooth="yes"/>
      <point x="93" y="287" smooth="yes"/>
      <point x="30" y="145" smooth="yes"/>
      <point x="30" y="17" type="curve" smooth="yes"/>
      <point x="30" y="-116" smooth="yes"/>
      <point x="96" y="-169" smooth="yes"/>
      <point x="168" y="-169" type="curve" smooth="yes"/>
      <point x="247" y="-169" smooth="yes"/>
      <point x="322" y="-119" smooth="yes"/>
      <point x="322" y="-26" type="curve" smooth="yes"/>
      <point x="322" y="55" smooth="yes"/>
      <point x="263" y="91" smooth="yes"/>
      <point x="194" y="91" type="curve" smooth="yes"/>
      <point x="166" y="91"/>
      <point x="139" y="85"/>
      <point x="110" y="73" type="curve"/>
      <point x="123" y="189" smooth="yes"/>
      <point x="175" y="235" smooth="yes"/>
      <point x="212" y="235" type="curve" smooth="yes"/>
      <point x="237" y="235" smooth="yes"/>
      <point x="251" y="219" smooth="yes"/>
      <point x="251" y="200" type="curve" smooth="yes"/>
      <point x="251" y="183"/>
      <point x="244" y="164"/>
    </contour>
    <contour>
      <point x="245" y="-29" type="curve" smooth="yes"/>
      <point x="245" y="-84" smooth="yes"/>
      <point x="208" y="-120" smooth="yes"/>
      <point x="171" y="-120" type="curve" smooth="yes"/>
      <point x="136" y="-120" smooth="yes"/>
      <point x="108" y="-86" smooth="yes"/>
      <point x="108" y="1" type="curve" smooth="yes"/>
      <point x="108" y="10"/>
      <point x="108" y="20"/>
      <point x="109" y="30" type="curve"/>
      <point x="134" y="40" smooth="yes"/>
      <point x="154" y="45" smooth="yes"/>
      <point x="174" y="45" type="curve" smooth="yes"/>
      <point x="217" y="45" smooth="yes"/>
      <point x="245" y="21" smooth="yes"/>
    </contour>
  </outline>
</glyph>
<glyph name="nineinferior" format="1">
  <advance width="361"/>
  <unicode hex="2089"/>
  <outline>
    <contour>
      <point x="123" y="-34" type="curve"/>
      <point x="109" y="-24" smooth="yes"/>
      <point x="91" y="-20" smooth="yes"/>
      <point x="79" y="-20" type="curve" smooth="yes"/>
      <point x="41" y="-20" smooth="yes"/>
      <point x="25" y="-51" smooth="yes"/>
      <point x="25" y="-81" type="curve" smooth="yes"/>
      <point x="25" y="-125" smooth="yes"/>
      <point x="68" y="-169" smooth="yes"/>
      <point x="139" y="-169" type="curve" smooth="yes"/>
      <point x="266" y="-169" smooth="yes"/>
      <point x="331" y="-27" smooth="yes"/>
      <point x="331" y="101" type="curve" smooth="yes"/>
      <point x="331" y="234" smooth="yes"/>
      <point x="263" y="287" smooth="yes"/>
      <point x="189" y="287" type="curve" smooth="yes"/>
      <point x="117" y="287" smooth="yes"/>
      <point x="41" y="237" smooth="yes"/>
      <point x="41" y="144" type="curve" smooth="yes" name="hr01"/>
      <point x="41" y="64" smooth="yes"/>
      <point x="100" y="27" smooth="yes"/>
      <point x="170" y="27" type="curve" smooth="yes"/>
      <point x="198" y="27"/>
      <point x="231" y="37"/>
      <point x="254" y="55" type="curve"/>
      <point x="244" y="-80" smooth="yes"/>
      <point x="190" y="-122" smooth="yes"/>
      <point x="143" y="-122" type="curve" smooth="yes"/>
      <point x="113" y="-122" smooth="yes"/>
      <point x="101" y="-105" smooth="yes"/>
      <point x="101" y="-84" type="curve" smooth="yes" name="hr02"/>
      <point x="101" y="-66"/>
      <point x="109" y="-46"/>
    </contour>
    <contour>
      <point x="115" y="147" type="curve" smooth="yes" name="hr03"/>
      <point x="115" y="209" smooth="yes"/>
      <point x="152" y="238" smooth="yes"/>
      <point x="187" y="238" type="curve" smooth="yes"/>
      <point x="244" y="238"/>
      <point x="255" y="161"/>
      <point x="255" y="98" type="curve"/>
      <point x="231" y="78" smooth="yes"/>
      <point x="206" y="73" smooth="yes"/>
      <point x="186" y="73" type="curve" smooth="yes"/>
      <point x="145" y="73" smooth="yes"/>
      <point x="115" y="96" smooth="yes"/>
    </contour>
  </outline>
</glyph>
<glyph name="franc" format="1">
  <advance width="484"/>
  <unicode hex="20A3"/>
  <outline>
    <contour>
      <point x="92" y="659" type="curve" smooth="yes"/>
      <point x="92" y="616"/>
      <point x="106" y="605"/>
      <point x="157" y="605" type="curve"/>
      <point x="152" y="472"/>
      <point x="126" y="316"/>
      <point x="109" y="198" type="curve"/>
      <point x="81" y="194" smooth="yes"/>
      <point x="53" y="191" smooth="yes"/>
      <point x="27" y="191" type="curve" smooth="yes"/>
      <point x="15" y="191"/>
      <point x="4" y="192"/>
      <point x="-7" y="192" type="curve"/>
      <point x="-2" y="152" smooth="yes"/>
      <point x="20" y="128" smooth="yes"/>
      <point x="61" y="128" type="curve" smooth="yes"/>
      <point x="71" y="128"/>
      <point x="85" y="129"/>
      <point x="101" y="132" type="curve"/>
      <point x="98" y="105" smooth="yes"/>
      <point x="96" y="80" smooth="yes"/>
      <point x="96" y="62" type="curve" smooth="yes"/>
      <point x="96" y="6" smooth="yes"/>
      <point x="124" y="-15" smooth="yes"/>
      <point x="183" y="-15" type="curve" smooth="yes"/>
      <point x="192" y="-15"/>
      <point x="200" y="-14"/>
      <point x="212" y="-14" type="curve" name="hr01"/>
      <point x="207" y="18" smooth="yes"/>
      <point x="207" y="47" smooth="yes"/>
      <point x="207" y="75" type="curve" smooth="yes"/>
      <point x="207" y="101"/>
      <point x="207" y="126"/>
      <point x="209" y="152" type="curve"/>
      <point x="251" y="159" smooth="yes"/>
      <point x="294" y="166" smooth="yes"/>
      <point x="328" y="166" type="curve" smooth="yes"/>
      <point x="353" y="166"/>
      <point x="373" y="164"/>
      <point x="382" y="160" type="curve"/>
      <point x="370" y="211" smooth="yes"/>
      <point x="345" y="229" smooth="yes"/>
      <point x="301" y="229" type="curve" smooth="yes"/>
      <point x="275" y="229"/>
      <point x="245" y="225"/>
      <point x="213" y="219" type="curve"/>
      <point x="225" y="334" type="line"/>
      <point x="248" y="335" smooth="yes"/>
      <point x="269" y="335" smooth="yes"/>
      <point x="289" y="335" type="curve" smooth="yes"/>
      <point x="314" y="335" smooth="yes"/>
      <point x="342" y="334" smooth="yes"/>
      <point x="373" y="334" type="curve" smooth="yes"/>
      <point x="409" y="334" smooth="yes"/>
      <point x="433" y="353" smooth="yes"/>
      <point x="433" y="409" type="curve" smooth="yes"/>
      <point x="433" y="417"/>
      <point x="432" y="426"/>
      <point x="431" y="433" type="curve"/>
      <point x="402" y="411" smooth="yes"/>
      <point x="357" y="406" smooth="yes"/>
      <point x="313" y="406" type="curve" smooth="yes"/>
      <point x="294" y="406"/>
      <point x="263" y="407"/>
      <point x="236" y="408" type="curve"/>
      <point x="247" y="490"/>
      <point x="258" y="560"/>
      <point x="260" y="606" type="curve"/>
      <point x="320" y="608" smooth="yes"/>
      <point x="383" y="613" smooth="yes"/>
      <point x="426" y="620" type="curve" smooth="yes"/>
      <point x="481" y="629"/>
      <point x="524" y="653"/>
      <point x="534" y="715" type="curve"/>
      <point x="462" y="702" smooth="yes"/>
      <point x="379" y="695" smooth="yes"/>
      <point x="297" y="695" type="curve" smooth="yes"/>
      <point x="231" y="695"/>
      <point x="163" y="700"/>
      <point x="100" y="708" type="curve"/>
      <point x="96" y="698" smooth="yes"/>
      <point x="92" y="680" smooth="yes"/>
    </contour>
  </outline>
</glyph>
<glyph name="Euro" format="1">
  <advance width="620"/>
  <unicode hex="20AC"/>
  <outline>
    <contour>
      <point x="370" y="226" type="curve" smooth="yes"/>
      <point x="399" y="226"/>
      <point x="422" y="224"/>
      <point x="432" y="220" type="curve"/>
      <point x="418" y="271" smooth="yes"/>
      <point x="390" y="289" smooth="yes"/>
      <point x="340" y="289" type="curve" smooth="yes"/>
      <point x="297" y="289"/>
      <point x="243" y="279"/>
      <point x="188" y="270" type="curve"/>
      <point x="188" y="294" type="line" smooth="yes"/>
      <point x="188" y="313"/>
      <point x="189" y="333"/>
      <point x="192" y="353" type="curve"/>
      <point x="248" y="362" smooth="yes"/>
      <point x="309" y="371" smooth="yes"/>
      <point x="354" y="371" type="curve" smooth="yes"/>
      <point x="383" y="371"/>
      <point x="406" y="369"/>
      <point x="416" y="365" type="curve"/>
      <point x="402" y="416" smooth="yes"/>
      <point x="374" y="434" smooth="yes"/>
      <point x="324" y="434" type="curve" smooth="yes"/>
      <point x="289" y="434"/>
      <point x="248" y="428"/>
      <point x="204" y="420" type="curve"/>
      <point x="237" y="546" smooth="yes"/>
      <point x="317" y="651" smooth="yes"/>
      <point x="425" y="651" type="curve" smooth="yes"/>
      <point x="466" y="651" smooth="yes"/>
      <point x="484" y="624" smooth="yes"/>
      <point x="484" y="598" type="curve" smooth="yes"/>
      <point x="484" y="564"/>
      <point x="461" y="528"/>
      <point x="434" y="510" type="curve"/>
      <point x="448" y="505" smooth="yes"/>
      <point x="463" y="503" smooth="yes"/>
      <point x="475" y="503" type="curve" smooth="yes"/>
      <point x="542" y="503" smooth="yes"/>
      <point x="575" y="560" smooth="yes"/>
      <point x="575" y="601" type="curve" smooth="yes"/>
      <point x="575" y="664" smooth="yes"/>
      <point x="537" y="719" smooth="yes"/>
      <point x="437" y="719" type="curve" smooth="yes"/>
      <point x="245" y="719"/>
      <point x="126" y="579"/>
      <point x="92" y="402" type="curve"/>
      <point x="64" y="398" smooth="yes"/>
      <point x="37" y="396" smooth="yes"/>
      <point x="11" y="396" type="curve" smooth="yes" name="hr01"/>
      <point x="-1" y="396"/>
      <point x="-12" y="397"/>
      <point x="-23" y="397" type="curve"/>
      <point x="-18" y="357" smooth="yes"/>
      <point x="4" y="333" smooth="yes"/>
      <point x="45" y="333" type="curve" smooth="yes"/>
      <point x="55" y="333"/>
      <point x="68" y="334"/>
      <point x="83" y="336" type="curve"/>
      <point x="82" y="322" smooth="yes"/>
      <point x="82" y="307" smooth="yes"/>
      <point x="82" y="293" type="curve" smooth="yes"/>
      <point x="82" y="279"/>
      <point x="82" y="266"/>
      <point x="83" y="254" type="curve"/>
      <point x="64" y="252" smooth="yes"/>
      <point x="45" y="251" smooth="yes"/>
      <point x="27" y="251" type="curve" smooth="yes"/>
      <point x="15" y="251"/>
      <point x="4" y="252"/>
      <point x="-7" y="252" type="curve"/>
      <point x="-2" y="212" smooth="yes"/>
      <point x="20" y="188" smooth="yes"/>
      <point x="61" y="188" type="curve" smooth="yes"/>
      <point x="69" y="188"/>
      <point x="79" y="188"/>
      <point x="91" y="190" type="curve"/>
      <point x="120" y="40" smooth="yes"/>
      <point x="215" y="-27" smooth="yes"/>
      <point x="316" y="-27" type="curve" smooth="yes"/>
      <point x="391" y="-27"/>
      <point x="491" y="5"/>
      <point x="559" y="140" type="curve"/>
      <point x="559" y="156"/>
      <point x="546" y="168"/>
      <point x="527" y="173" type="curve"/>
      <point x="474" y="93" smooth="yes"/>
      <point x="412" y="47" smooth="yes"/>
      <point x="358" y="47" type="curve" smooth="yes"/>
      <point x="283" y="47"/>
      <point x="219" y="97"/>
      <point x="196" y="206" type="curve"/>
      <point x="256" y="216" smooth="yes"/>
      <point x="321" y="226" smooth="yes"/>
    </contour>
  </outline>
</glyph>
<glyph name="trademark" format="1">
  <advance width="1010"/>
  <unicode hex="2122"/>
  <outline>
    <contour>
      <point x="808" y="754" type="line"/>
      <point x="802" y="675" smooth="yes"/>
      <point x="777" y="593" smooth="yes"/>
      <point x="777" y="518" type="curve" smooth="yes" name="hr01"/>
      <point x="777" y="467"/>
      <point x="797" y="435"/>
      <point x="880" y="413" type="curve"/>
      <point x="871" y="434" smooth="yes"/>
      <point x="865" y="460" smooth="yes"/>
      <point x="865" y="489" type="curve" smooth="yes"/>
      <point x="865" y="610" smooth="yes"/>
      <point x="904" y="773" smooth="yes"/>
      <point x="904" y="843" type="curve" smooth="yes" name="hr02"/>
      <point x="904" y="887"/>
      <point x="901" y="913"/>
      <point x="817" y="920" type="curve"/>
      <point x="811" y="863"/>
      <point x="748" y="734"/>
      <point x="666" y="613" type="curve"/>
      <point x="562" y="893" smooth="yes"/>
      <point x="545" y="920" smooth="yes"/>
      <point x="489" y="920" type="curve" smooth="yes"/>
      <point x="475" y="920"/>
      <point x="450" y="912"/>
      <point x="434" y="899" type="curve"/>
      <point x="445" y="889"/>
      <point x="460" y="869"/>
      <point x="472" y="849" type="curve"/>
      <point x="472" y="755" smooth="yes"/>
      <point x="433" y="553" smooth="yes"/>
      <point x="433" y="477" type="curve" smooth="yes"/>
      <point x="433" y="453"/>
      <point x="445" y="433"/>
      <point x="513" y="433" type="curve"/>
      <point x="512" y="449" smooth="yes"/>
      <point x="511" y="472" smooth="yes"/>
      <point x="511" y="489" type="curve" smooth="yes"/>
      <point x="511" y="569"/>
      <point x="520" y="650"/>
      <point x="533" y="746" type="curve"/>
      <point x="559" y="680"/>
      <point x="582" y="617"/>
      <point x="603" y="553" type="curve"/>
      <point x="610" y="544" smooth="yes"/>
      <point x="621" y="539" smooth="yes"/>
      <point x="640" y="539" type="curve" smooth="yes"/>
      <point x="652" y="539"/>
      <point x="667" y="540"/>
      <point x="684" y="549" type="curve"/>
    </contour>
    <contour>
      <point x="60" y="866" type="curve" smooth="yes"/>
      <point x="60" y="844" smooth="yes"/>
      <point x="67" y="820" smooth="yes"/>
      <point x="96" y="820" type="curve" smooth="yes"/>
      <point x="115" y="820"/>
      <point x="150" y="821"/>
      <point x="177" y="822" type="curve"/>
      <point x="163" y="721" smooth="yes"/>
      <point x="144" y="612" smooth="yes"/>
      <point x="144" y="521" type="curve" smooth="yes"/>
      <point x="144" y="468"/>
      <point x="164" y="437"/>
      <point x="246" y="413" type="curve"/>
      <point x="236" y="434" smooth="yes"/>
      <point x="230" y="460" smooth="yes"/>
      <point x="230" y="489" type="curve" smooth="yes"/>
      <point x="230" y="606"/>
      <point x="249" y="717"/>
      <point x="269" y="828" type="curve"/>
      <point x="362" y="836"/>
      <point x="396" y="863"/>
      <point x="405" y="920" type="curve"/>
      <point x="336" y="905" smooth="yes"/>
      <point x="268" y="897" smooth="yes"/>
      <point x="206" y="897" type="curve" smooth="yes"/>
      <point x="164" y="897"/>
      <point x="119" y="901"/>
      <point x="68" y="910" type="curve"/>
      <point x="62" y="894" smooth="yes"/>
      <point x="60" y="881" smooth="yes"/>
    </contour>
  </outline>
</glyph>
<glyph name="partialdiff" format="1">
  <advance width="627"/>
  <unicode hex="2202"/>
  <outline>
    <contour>
      <point x="321" y="751" type="curve" smooth="yes" name="hr00"/>
      <point x="415" y="751" smooth="yes"/>
      <point x="473" y="631" smooth="yes"/>
      <point x="473" y="483" type="curve" smooth="yes"/>
      <point x="473" y="473"/>
      <point x="472" y="462"/>
      <point x="472" y="452" type="curve"/>
      <point x="428" y="478" smooth="yes"/>
      <point x="378" y="491" smooth="yes"/>
      <point x="330" y="491" type="curve" smooth="yes"/>
      <point x="194" y="491" smooth="yes"/>
      <point x="65" y="393" smooth="yes"/>
      <point x="65" y="220" type="curve" smooth="yes"/>
      <point x="65" y="57" smooth="yes"/>
      <point x="171" y="-15" smooth="yes"/>
      <point x="269" y="-15" type="curve" smooth="yes"/>
      <point x="501" y="-15" smooth="yes"/>
      <point x="572" y="243" smooth="yes"/>
      <point x="572" y="470" type="curve" smooth="yes"/>
      <point x="572" y="715" smooth="yes"/>
      <point x="438" y="819" smooth="yes"/>
      <point x="328" y="819" type="curve" smooth="yes"/>
      <point x="225" y="819" smooth="yes"/>
      <point x="181" y="760" smooth="yes"/>
      <point x="181" y="702" type="curve" smooth="yes"/>
      <point x="181" y="657" smooth="yes"/>
      <point x="216" y="603" smooth="yes"/>
      <point x="278" y="603" type="curve" smooth="yes"/>
      <point x="290" y="603"/>
      <point x="305" y="605"/>
      <point x="319" y="610" type="curve"/>
      <point x="292" y="628" smooth="yes"/>
      <point x="269" y="664" smooth="yes"/>
      <point x="269" y="698" type="curve" smooth="yes"/>
      <point x="269" y="724" smooth="yes"/>
      <point x="285" y="751" smooth="yes"/>
    </contour>
    <contour>
      <point x="288" y="47" type="curve" smooth="yes"/>
      <point x="202" y="47" smooth="yes"/>
      <point x="169" y="120" smooth="yes"/>
      <point x="169" y="207" type="curve" smooth="yes"/>
      <point x="169" y="338" smooth="yes"/>
      <point x="254" y="424" smooth="yes"/>
      <point x="360" y="424" type="curve" smooth="yes"/>
      <point x="395" y="424"/>
      <point x="432" y="415"/>
      <point x="470" y="394" type="curve"/>
      <point x="456" y="212" smooth="yes"/>
      <point x="397" y="47" smooth="yes"/>
    </contour>
  </outline>
</glyph>
<glyph name="Delta" format="1">
  <advance width="658"/>
  <unicode hex="2206"/>
  <outline>
    <contour>
      <point x="387" y="733" type="curve" smooth="yes"/>
      <point x="358" y="733"/>
      <point x="336" y="729"/>
      <point x="312" y="722" type="curve"/>
      <point x="320" y="713"/>
      <point x="331" y="703"/>
      <point x="343" y="688" type="curve"/>
      <point x="283" y="532"/>
      <point x="135" y="259"/>
      <point x="41" y="42" type="curve"/>
      <point x="62" y="-11" smooth="yes"/>
      <point x="124" y="-14" smooth="yes"/>
      <point x="158" y="-14" type="curve" smooth="yes"/>
      <point x="269" y="-14"/>
      <point x="406" y="0"/>
      <point x="599" y="0" type="curve" name="hr01"/>
      <point x="620" y="14" smooth="yes"/>
      <point x="626" y="38" smooth="yes"/>
      <point x="626" y="62" type="curve" smooth="yes"/>
      <point x="626" y="81" smooth="yes"/>
      <point x="623" y="99" smooth="yes"/>
      <point x="619" y="114" type="curve" smooth="yes"/>
      <point x="503" y="569" type="line" smooth="yes"/>
      <point x="486" y="638" smooth="yes"/>
      <point x="453" y="733" smooth="yes"/>
    </contour>
    <contour>
      <point x="387" y="597" type="curve"/>
      <point x="434" y="447"/>
      <point x="487" y="200"/>
      <point x="517" y="85" type="curve"/>
      <point x="437" y="82" smooth="yes"/>
      <point x="379" y="73" smooth="yes"/>
      <point x="301" y="73" type="curve" smooth="yes"/>
      <point x="268" y="73"/>
      <point x="208" y="73"/>
      <point x="157" y="75" type="curve"/>
      <point x="221" y="248"/>
      <point x="324" y="456"/>
    </contour>
  </outline>
</glyph>
<glyph name="product" format="1">
  <advance width="765"/>
  <unicode hex="220F"/>
  <outline>
    <contour>
      <point x="649" y="540" type="curve" smooth="yes"/>
      <point x="649" y="577"/>
      <point x="646" y="608"/>
      <point x="631" y="631" type="curve"/>
      <point x="669" y="629"/>
      <point x="708" y="626"/>
      <point x="749" y="621" type="curve"/>
      <point x="749" y="628" smooth="yes"/>
      <point x="750" y="634" smooth="yes"/>
      <point x="750" y="640" type="curve" smooth="yes"/>
      <point x="750" y="694" smooth="yes"/>
      <point x="735" y="733" smooth="yes"/>
      <point x="627" y="733" type="curve" smooth="yes"/>
      <point x="516" y="733" smooth="yes"/>
      <point x="343" y="721" smooth="yes"/>
      <point x="254" y="721" type="curve" smooth="yes"/>
      <point x="190" y="721"/>
      <point x="132" y="723"/>
      <point x="66" y="730" type="curve"/>
      <point x="66" y="723" smooth="yes"/>
      <point x="65" y="717" smooth="yes"/>
      <point x="65" y="710" type="curve" smooth="yes"/>
      <point x="65" y="659"/>
      <point x="79" y="621"/>
      <point x="177" y="618" type="curve"/>
      <point x="178" y="603" smooth="yes"/>
      <point x="178" y="587" smooth="yes"/>
      <point x="178" y="570" type="curve" smooth="yes"/>
      <point x="178" y="362" smooth="yes"/>
      <point x="111" y="3" smooth="yes"/>
      <point x="111" y="-109" type="curve" smooth="yes"/>
      <point x="111" y="-189"/>
      <point x="122" y="-238"/>
      <point x="228" y="-244" type="curve"/>
      <point x="226" y="-214" smooth="yes"/>
      <point x="224" y="-184" smooth="yes"/>
      <point x="224" y="-152" type="curve" smooth="yes"/>
      <point x="224" y="115" smooth="yes"/>
      <point x="282" y="385" smooth="yes"/>
      <point x="282" y="510" type="curve" smooth="yes" name="hr01"/>
      <point x="282" y="556"/>
      <point x="275" y="591"/>
      <point x="257" y="619" type="curve"/>
      <point x="351" y="622"/>
      <point x="457" y="629"/>
      <point x="535" y="631" type="curve"/>
      <point x="536" y="616" smooth="yes"/>
      <point x="536" y="599" smooth="yes"/>
      <point x="536" y="583" type="curve" smooth="yes"/>
      <point x="536" y="316" smooth="yes"/>
      <point x="478" y="47" smooth="yes"/>
      <point x="478" y="-79" type="curve" smooth="yes" name="hr02"/>
      <point x="478" y="-175"/>
      <point x="510" y="-229"/>
      <point x="594" y="-258" type="curve"/>
      <point x="586" y="-238" smooth="yes"/>
      <point x="582" y="-195" smooth="yes"/>
      <point x="582" y="-138" type="curve" smooth="yes"/>
      <point x="582" y="69" smooth="yes"/>
      <point x="649" y="428" smooth="yes"/>
    </contour>
  </outline>
</glyph>
<glyph name="summation" format="1">
  <advance width="765"/>
  <unicode hex="2211"/>
  <outline>
    <contour>
      <point x="489" y="242" type="line" name="hr00"/>
      <point x="219" y="621" type="line"/>
      <point x="243" y="622" smooth="yes"/>
      <point x="252" y="622" smooth="yes"/>
      <point x="277" y="622" type="curve" smooth="yes"/>
      <point x="370" y="622" smooth="yes"/>
      <point x="462" y="608" smooth="yes"/>
      <point x="578" y="608" type="curve" smooth="yes"/>
      <point x="702" y="608"/>
      <point x="715" y="662"/>
      <point x="715" y="730" type="curve"/>
      <point x="648" y="722" smooth="yes"/>
      <point x="591" y="719" smooth="yes"/>
      <point x="527" y="719" type="curve" smooth="yes"/>
      <point x="439" y="719" smooth="yes"/>
      <point x="361" y="733" smooth="yes"/>
      <point x="251" y="733" type="curve" smooth="yes"/>
      <point x="196" y="733"/>
      <point x="142" y="719"/>
      <point x="112" y="635" type="curve"/>
      <point x="112" y="571"/>
      <point x="170" y="451"/>
      <point x="375" y="242" type="curve"/>
      <point x="137" y="30"/>
      <point x="61" y="-97"/>
      <point x="57" y="-151" type="curve"/>
      <point x="76" y="-235" smooth="yes"/>
      <point x="128" y="-249" smooth="yes"/>
      <point x="182" y="-249" type="curve" smooth="yes"/>
      <point x="293" y="-249" smooth="yes"/>
      <point x="372" y="-235" smooth="yes"/>
      <point x="460" y="-235" type="curve" smooth="yes"/>
      <point x="524" y="-235"/>
      <point x="581" y="-238"/>
      <point x="646" y="-246" type="curve"/>
      <point x="649" y="-237" smooth="yes"/>
      <point x="653" y="-216" smooth="yes"/>
      <point x="653" y="-200" type="curve" smooth="yes"/>
      <point x="653" y="-158" smooth="yes"/>
      <point x="630" y="-124" smooth="yes"/>
      <point x="529" y="-124" type="curve" smooth="yes"/>
      <point x="413" y="-124" smooth="yes"/>
      <point x="319" y="-138" smooth="yes"/>
      <point x="226" y="-138" type="curve" smooth="yes"/>
      <point x="201" y="-138"/>
      <point x="192" y="-138"/>
      <point x="168" y="-137" type="curve"/>
    </contour>
  </outline>
</glyph>
<glyph name="minus" format="1">
  <advance width="620"/>
  <unicode hex="2212"/>
  <outline>
    <contour>
      <point x="456" y="409" type="curve" smooth="yes" name="hr00"/>
      <point x="364" y="409" smooth="yes"/>
      <point x="294" y="398" smooth="yes"/>
      <point x="219" y="398" type="curve" smooth="yes"/>
      <point x="165" y="398"/>
      <point x="107" y="400"/>
      <point x="61" y="406" type="curve"/>
      <point x="61" y="400" smooth="yes"/>
      <point x="60" y="394" smooth="yes"/>
      <point x="60" y="388" type="curve" smooth="yes"/>
      <point x="60" y="340" smooth="yes"/>
      <point x="73" y="304" smooth="yes"/>
      <point x="164" y="304" type="curve" smooth="yes"/>
      <point x="256" y="304" smooth="yes"/>
      <point x="326" y="315" smooth="yes"/>
      <point x="401" y="315" type="curve" smooth="yes"/>
      <point x="455" y="315"/>
      <point x="513" y="313"/>
      <point x="559" y="307" type="curve"/>
      <point x="559" y="313" smooth="yes"/>
      <point x="560" y="319" smooth="yes"/>
      <point x="560" y="325" type="curve" smooth="yes"/>
      <point x="560" y="373" smooth="yes"/>
      <point x="547" y="409" smooth="yes"/>
    </contour>
  </outline>
</glyph>
<glyph name="radical" format="1">
  <advance width="591"/>
  <unicode hex="221A"/>
  <outline>
    <contour>
      <point x="253" y="-111" type="curve" name="hr00"/>
      <point x="206" y="209" smooth="yes"/>
      <point x="208" y="380" smooth="yes"/>
      <point x="112" y="380" type="curve" smooth="yes"/>
      <point x="92" y="380"/>
      <point x="72" y="369"/>
      <point x="47" y="354" type="curve"/>
      <point x="115" y="244" smooth="yes"/>
      <point x="132" y="-24" smooth="yes"/>
      <point x="178" y="-205" type="curve" smooth="yes"/>
      <point x="181" y="-216" smooth="yes"/>
      <point x="192" y="-220" smooth="yes"/>
      <point x="207" y="-220" type="curve" smooth="yes"/>
      <point x="230" y="-220"/>
      <point x="267" y="-216"/>
      <point x="283" y="-206" type="curve"/>
      <point x="356" y="-16"/>
      <point x="555" y="561"/>
      <point x="589" y="730" type="curve"/>
      <point x="682" y="731" smooth="yes"/>
      <point x="767" y="739" smooth="yes"/>
      <point x="767" y="808" type="curve" smooth="yes"/>
      <point x="767" y="821"/>
      <point x="765" y="837"/>
      <point x="763" y="853" type="curve"/>
      <point x="671" y="827"/>
      <point x="591" y="827"/>
      <point x="497" y="827" type="curve"/>
      <point x="497" y="725"/>
      <point x="329" y="100"/>
    </contour>
  </outline>
</glyph>
<glyph name="lozenge" format="1">
  <advance width="517"/>
  <unicode hex="25CA"/>
  <outline>
    <contour>
      <point x="391" y="329" type="line" name="hr00"/>
      <point x="268" y="51" type="line"/>
      <point x="155" y="331" type="line"/>
      <point x="278" y="609" type="line"/>
    </contour>
    <contour>
      <point x="477" y="329" type="line"/>
      <point x="366" y="612" type="line" smooth="yes"/>
      <point x="340" y="678" smooth="yes"/>
      <point x="321" y="706" smooth="yes"/>
      <point x="269" y="706" type="curve" smooth="yes"/>
      <point x="235" y="706" type="line"/>
      <point x="69" y="331" type="line"/>
      <point x="180" y="48" type="line" smooth="yes"/>
      <point x="206" y="-18" smooth="yes"/>
      <point x="225" y="-46" smooth="yes"/>
      <point x="277" y="-46" type="curve" smooth="yes"/>
      <point x="311" y="-46" type="line"/>
    </contour>
  </outline>
</glyph>
<glyph name="fl" format="1">
  <advance width="668"/>
  <unicode hex="FB02"/>
  <outline>
    <contour>
      <point x="394" y="574" type="curve"/>
      <point x="364" y="550" smooth="yes"/>
      <point x="317" y="545" smooth="yes"/>
      <point x="270" y="545" type="curve" smooth="yes"/>
      <point x="260" y="545" type="line"/>
      <point x="297" y="733" smooth="yes"/>
      <point x="346" y="840" smooth="yes"/>
      <point x="442" y="840" type="curve" smooth="yes"/>
      <point x="499" y="840" smooth="yes"/>
      <point x="520" y="797" smooth="yes"/>
      <point x="520" y="753" type="curve" smooth="yes"/>
      <point x="520" y="609" smooth="yes"/>
      <point x="455" y="240" smooth="yes"/>
      <point x="455" y="117" type="curve" smooth="yes" name="hr01"/>
      <point x="455" y="23"/>
      <point x="483" y="-8"/>
      <point x="560" y="-16" type="curve"/>
      <point x="552" y="4" smooth="yes"/>
      <point x="548" y="46" smooth="yes"/>
      <point x="548" y="101" type="curve" smooth="yes"/>
      <point x="548" y="304" smooth="yes"/>
      <point x="606" y="615" smooth="yes"/>
      <point x="606" y="724" type="curve" smooth="yes" name="hr02"/>
      <point x="606" y="840" smooth="yes"/>
      <point x="548" y="897" smooth="yes"/>
      <point x="443" y="897" type="curve" smooth="yes"/>
      <point x="346" y="897"/>
      <point x="232" y="807"/>
      <point x="173" y="548" type="curve"/>
      <point x="105" y="548" smooth="yes"/>
      <point x="50" y="537" smooth="yes"/>
      <point x="50" y="467" type="curve" smooth="yes"/>
      <point x="50" y="457"/>
      <point x="51" y="446"/>
      <point x="52" y="438" type="curve"/>
      <point x="91" y="454"/>
      <point x="124" y="464"/>
      <point x="157" y="469" type="curve"/>
      <point x="130" y="322" smooth="yes"/>
      <point x="118" y="185" smooth="yes"/>
      <point x="118" y="83" type="curve" smooth="yes"/>
      <point x="118" y="-4"/>
      <point x="149" y="-81"/>
      <point x="231" y="-113" type="curve"/>
      <point x="216" y="-27" smooth="yes"/>
      <point x="215" y="-15" smooth="yes"/>
      <point x="215" y="63" type="curve" smooth="yes"/>
      <point x="215" y="176"/>
      <point x="232" y="351"/>
      <point x="249" y="474" type="curve"/>
      <point x="333" y="474" type="line" smooth="yes"/>
      <point x="371" y="474" smooth="yes"/>
      <point x="396" y="489" smooth="yes"/>
      <point x="396" y="548" type="curve" smooth="yes"/>
      <point x="396" y="557"/>
      <point x="395" y="567"/>
    </contour>
  </outline>
</glyph>
<glyph name="caron.case" format="1">
  <advance width="450"/>
  <outline>
    <contour>
      <point x="169" y="1066" type="curve" smooth="yes" name="hr00"/>
      <point x="144" y="1066"/>
      <point x="130" y="1061"/>
      <point x="117" y="1055" type="curve"/>
      <point x="226" y="952"/>
      <point x="166" y="854"/>
      <point x="264" y="854" type="curve"/>
      <point x="304" y="900"/>
      <point x="326" y="937"/>
      <point x="435" y="1006" type="curve"/>
      <point x="434" y="1048"/>
      <point x="410" y="1071"/>
      <point x="396" y="1082" type="curve"/>
      <point x="326" y="1036"/>
      <point x="292" y="988"/>
      <point x="263" y="935" type="curve"/>
      <point x="243" y="1039" smooth="yes"/>
      <point x="221" y="1066" smooth="yes"/>
    </contour>
  </outline>
</glyph>
<glyph name="caron.salt" format="1">
  <advance width="209"/>
  <outline>
    <contour>
      <point x="29" y="882" type="curve" name="hr00"/>
      <point x="46" y="851" smooth="yes"/>
      <point x="59" y="822" smooth="yes"/>
      <point x="59" y="775" type="curve" smooth="yes"/>
      <point x="59" y="723"/>
      <point x="44" y="668"/>
      <point x="15" y="628" type="curve"/>
      <point x="44" y="599" type="line"/>
      <point x="126" y="655" smooth="yes"/>
      <point x="165" y="731" smooth="yes"/>
      <point x="165" y="806" type="curve" smooth="yes"/>
      <point x="165" y="879" smooth="yes"/>
      <point x="126" y="893" smooth="yes"/>
      <point x="90" y="893" type="curve" smooth="yes"/>
      <point x="70" y="893"/>
      <point x="46" y="888"/>
    </contour>
  </outline>
</glyph>
<glyph name="circumflex.case" format="1">
  <advance width="450"/>
  <outline>
    <contour>
      <point x="373" y="870" type="curve" smooth="yes" name="hr00"/>
      <point x="398" y="870"/>
      <point x="412" y="875"/>
      <point x="425" y="881" type="curve"/>
      <point x="316" y="984"/>
      <point x="376" y="1082"/>
      <point x="278" y="1082" type="curve"/>
      <point x="238" y="1036"/>
      <point x="216" y="999"/>
      <point x="107" y="930" type="curve"/>
      <point x="108" y="888"/>
      <point x="132" y="865"/>
      <point x="146" y="854" type="curve"/>
      <point x="216" y="900"/>
      <point x="250" y="948"/>
      <point x="279" y="1001" type="curve"/>
      <point x="299" y="897" smooth="yes"/>
      <point x="321" y="870" smooth="yes"/>
    </contour>
  </outline>
</glyph>
<glyph name="commaaccent" format="1">
  <advance width="209"/>
  <outline>
    <contour>
      <point x="55" y="-61" type="curve" name="hr00"/>
      <point x="64" y="-86" smooth="yes"/>
      <point x="70" y="-111" smooth="yes"/>
      <point x="70" y="-136" type="curve" smooth="yes"/>
      <point x="70" y="-194"/>
      <point x="44" y="-252"/>
      <point x="-4" y="-298" type="curve"/>
      <point x="20" y="-328" type="line"/>
      <point x="129" y="-269" smooth="yes"/>
      <point x="184" y="-191" smooth="yes"/>
      <point x="184" y="-112" type="curve" smooth="yes"/>
      <point x="184" y="-62" smooth="yes"/>
      <point x="152" y="-50" smooth="yes"/>
      <point x="120" y="-50" type="curve" smooth="yes"/>
      <point x="99" y="-50"/>
      <point x="73" y="-55"/>
    </contour>
  </outline>
</glyph>
<glyph name="dieresis.case" format="1">
  <advance width="450"/>
  <outline>
    <contour>
      <point x="202" y="915" type="curve" name="hr00"/>
      <point x="210" y="934" smooth="yes"/>
      <point x="217" y="952" smooth="yes"/>
      <point x="217" y="971" type="curve" smooth="yes"/>
      <point x="217" y="1019" smooth="yes"/>
      <point x="173" y="1028" smooth="yes"/>
      <point x="133" y="1028" type="curve" smooth="yes"/>
      <point x="120" y="1028"/>
      <point x="106" y="1026"/>
      <point x="95" y="1024" type="curve"/>
      <point x="87" y="1005" smooth="yes"/>
      <point x="80" y="987" smooth="yes"/>
      <point x="80" y="968" type="curve" smooth="yes"/>
      <point x="80" y="920" smooth="yes"/>
      <point x="124" y="911" smooth="yes"/>
      <point x="164" y="911" type="curve" smooth="yes"/>
      <point x="177" y="911"/>
      <point x="191" y="913"/>
    </contour>
    <contour>
      <point x="412" y="915" type="curve"/>
      <point x="420" y="934" smooth="yes"/>
      <point x="427" y="952" smooth="yes"/>
      <point x="427" y="971" type="curve" smooth="yes"/>
      <point x="427" y="1019" smooth="yes"/>
      <point x="383" y="1028" smooth="yes"/>
      <point x="343" y="1028" type="curve" smooth="yes"/>
      <point x="330" y="1028"/>
      <point x="316" y="1026"/>
      <point x="305" y="1024" type="curve"/>
      <point x="297" y="1005" smooth="yes"/>
      <point x="290" y="987" smooth="yes"/>
      <point x="290" y="968" type="curve" smooth="yes"/>
      <point x="290" y="920" smooth="yes"/>
      <point x="334" y="911" smooth="yes"/>
      <point x="374" y="911" type="curve" smooth="yes"/>
      <point x="387" y="911"/>
      <point x="401" y="913"/>
    </contour>
  </outline>
</glyph>
<glyph name="dotaccent.case" format="1">
  <advance width="263"/>
  <outline>
    <contour>
      <point x="180" y="895" type="curve" name="hr00"/>
      <point x="188" y="918" smooth="yes"/>
      <point x="198" y="939" smooth="yes"/>
      <point x="198" y="961" type="curve" smooth="yes"/>
      <point x="198" y="1000" smooth="yes"/>
      <point x="165" y="1012" smooth="yes"/>
      <point x="137" y="1012" type="curve" smooth="yes"/>
      <point x="119" y="1012"/>
      <point x="99" y="1008"/>
      <point x="83" y="1002" type="curve"/>
      <point x="75" y="979" smooth="yes"/>
      <point x="65" y="958" smooth="yes"/>
      <point x="65" y="936" type="curve" smooth="yes"/>
      <point x="65" y="897" smooth="yes"/>
      <point x="98" y="885" smooth="yes"/>
      <point x="126" y="885" type="curve" smooth="yes"/>
      <point x="144" y="885"/>
      <point x="164" y="889"/>
    </contour>
  </outline>
</glyph>
<glyph name="hungarumlaut.case" format="1">
  <advance width="450"/>
  <outline>
    <contour>
      <point x="70" y="853" type="curve" name="hr00"/>
      <point x="140" y="884"/>
      <point x="240" y="969"/>
      <point x="270" y="1044" type="curve"/>
      <point x="261" y="1058"/>
      <point x="239" y="1090"/>
      <point x="188" y="1092" type="curve"/>
      <point x="162" y="1007"/>
      <point x="94" y="929"/>
      <point x="42" y="888" type="curve"/>
      <point x="46" y="872"/>
      <point x="55" y="857"/>
    </contour>
    <contour>
      <point x="260" y="853" type="curve"/>
      <point x="330" y="884"/>
      <point x="430" y="969"/>
      <point x="460" y="1044" type="curve"/>
      <point x="451" y="1058"/>
      <point x="429" y="1090"/>
      <point x="378" y="1092" type="curve"/>
      <point x="352" y="1007"/>
      <point x="284" y="929"/>
      <point x="232" y="888" type="curve"/>
      <point x="236" y="872"/>
      <point x="245" y="857"/>
    </contour>
  </outline>
</glyph>
<glyph name="macron.case" format="1">
  <advance width="424"/>
  <outline>
    <contour>
      <point x="297" y="1007" type="curve" smooth="yes" name="hr00"/>
      <point x="243" y="1007" smooth="yes"/>
      <point x="203" y="995" smooth="yes"/>
      <point x="158" y="995" type="curve" smooth="yes"/>
      <point x="127" y="995"/>
      <point x="99" y="997"/>
      <point x="66" y="1004" type="curve"/>
      <point x="66" y="997" smooth="yes"/>
      <point x="65" y="992" smooth="yes"/>
      <point x="65" y="986" type="curve" smooth="yes"/>
      <point x="65" y="935" smooth="yes"/>
      <point x="74" y="908" smooth="yes"/>
      <point x="127" y="908" type="curve" smooth="yes"/>
      <point x="181" y="908" smooth="yes"/>
      <point x="221" y="920" smooth="yes"/>
      <point x="266" y="920" type="curve" smooth="yes"/>
      <point x="297" y="920"/>
      <point x="325" y="918"/>
      <point x="358" y="911" type="curve"/>
      <point x="358" y="918" smooth="yes"/>
      <point x="359" y="923" smooth="yes"/>
      <point x="359" y="929" type="curve" smooth="yes"/>
      <point x="359" y="980" smooth="yes"/>
      <point x="350" y="1007" smooth="yes"/>
    </contour>
  </outline>
</glyph>
<glyph name="ringacute.case" format="1">
  <advance width="339"/>
  <outline>
    <contour>
      <point x="310" y="870" type="curve" name="hr00"/>
      <point x="325" y="912" smooth="yes"/>
      <point x="338" y="951" smooth="yes"/>
      <point x="338" y="992" type="curve" smooth="yes"/>
      <point x="338" y="1007"/>
      <point x="335" y="1019"/>
      <point x="331" y="1030" type="curve"/>
      <point x="369" y="1059"/>
      <point x="412" y="1086"/>
      <point x="457" y="1100" type="curve"/>
      <point x="455" y="1151"/>
      <point x="423" y="1173"/>
      <point x="409" y="1182" type="curve"/>
      <point x="365" y="1164"/>
      <point x="317" y="1123"/>
      <point x="279" y="1077" type="curve"/>
      <point x="264" y="1082" smooth="yes"/>
      <point x="247" y="1084" smooth="yes"/>
      <point x="231" y="1084" type="curve" smooth="yes"/>
      <point x="196" y="1084"/>
      <point x="159" y="1076"/>
      <point x="129" y="1067" type="curve"/>
      <point x="114" y="1025" smooth="yes"/>
      <point x="101" y="986" smooth="yes"/>
      <point x="101" y="945" type="curve" smooth="yes"/>
      <point x="101" y="873" smooth="yes"/>
      <point x="157" y="853" smooth="yes"/>
      <point x="208" y="853" type="curve" smooth="yes"/>
      <point x="243" y="853"/>
      <point x="280" y="861"/>
    </contour>
    <contour>
      <point x="260" y="922" type="curve"/>
      <point x="247" y="919" smooth="yes"/>
      <point x="231" y="917" smooth="yes"/>
      <point x="215" y="917" type="curve" smooth="yes"/>
      <point x="190" y="917" smooth="yes"/>
      <point x="167" y="923" smooth="yes"/>
      <point x="167" y="958" type="curve" smooth="yes"/>
      <point x="167" y="973"/>
      <point x="172" y="995"/>
      <point x="179" y="1015" type="curve"/>
      <point x="192" y="1018" smooth="yes"/>
      <point x="208" y="1020" smooth="yes"/>
      <point x="224" y="1020" type="curve" smooth="yes"/>
      <point x="249" y="1020" smooth="yes"/>
      <point x="272" y="1014" smooth="yes"/>
      <point x="272" y="979" type="curve" smooth="yes"/>
      <point x="272" y="964"/>
      <point x="267" y="942"/>
    </contour>
  </outline>
</glyph>
